<?xml version="1.0" encoding="UTF-8" standalone="no"?>
<!-- Created with Inkscape (http://www.inkscape.org/) -->

<svg
   width="485.29639mm"
   height="251.18127mm"
   viewBox="0 0 485.29639 251.18127"
   version="1.1"
   id="svg5"
   inkscape:version="1.2.2 (732a01da63, 2022-12-09)"
   sodipodi:docname="dessin-1.svg"
   xml:space="preserve"
   xmlns:inkscape="http://www.inkscape.org/namespaces/inkscape"
   xmlns:sodipodi="http://sodipodi.sourceforge.net/DTD/sodipodi-0.dtd"
   xmlns="http://www.w3.org/2000/svg"
   xmlns:svg="http://www.w3.org/2000/svg"><sodipodi:namedview
     id="namedview7"
     pagecolor="#ffffff"
     bordercolor="#999999"
     borderopacity="1"
     inkscape:pageshadow="0"
     inkscape:pageopacity="0"
     inkscape:pagecheckerboard="0"
     inkscape:document-units="mm"
     showgrid="false"
     inkscape:snap-global="false"
     inkscape:zoom="0.7096503"
     inkscape:cx="4040.7226"
     inkscape:cy="3352.3554"
     inkscape:window-width="2880"
     inkscape:window-height="1586"
     inkscape:window-x="2869"
     inkscape:window-y="-11"
     inkscape:window-maximized="1"
     inkscape:current-layer="layer1"
     inkscape:showpageshadow="0"
     inkscape:deskcolor="#d1d1d1"
     showguides="true"><sodipodi:guide
       position="-1447.7368,181.84112"
       orientation="0,-1"
       id="guide1923"
       inkscape:locked="false" /><sodipodi:guide
       position="-1346.0905,11.262186"
       orientation="0,-1"
       id="guide1925"
       inkscape:locked="false" /><sodipodi:guide
       position="-1415.6072,72.016325"
       orientation="0,-1"
       id="guide1927"
       inkscape:locked="false" /></sodipodi:namedview><defs
     id="defs2" /><g
     inkscape:label="Calque 1"
     inkscape:groupmode="layer"
     id="layer1"
     transform="translate(-1526.6004,-303.36315)"><path
       style="fill:#ffb727;fill-opacity:1;stroke-width:1"
       d="m 1680.1347,554.42608 -29.1856,0.11828 v -5.33716 -5.33717 h 25.3078 25.3078 l 2.6254,-0.59711 2.6252,-0.5971 1.2524,-0.83648 1.2526,-0.83649 0.6648,-1.32334 0.6649,-1.32336 7e-4,-3.1372 7e-4,-3.13722 -17.3971,-0.007 -17.3972,-0.007 -3.6126,-0.37676 -3.6125,-0.37677 -3.0422,-0.78096 -3.0421,-0.78096 -2.7252,-1.30648 -2.7253,-1.30647 -2.1472,-1.96245 -2.1473,-1.96245 -1.0217,-1.93624 -1.022,-1.93627 V 500.0432 480.74485 l 8.0807,-2.2e-4 8.0807,-2.1e-4 v 18.0877 18.0877 l 0.4267,0.8306 0.4268,0.83061 0.9838,1.05466 0.984,1.05467 1.8906,0.56147 1.8907,0.56146 h 18.5642 18.564 v -20.72458 -20.72457 h 8.1844 8.1846 l -0.1035,30.52481 -0.1034,30.52479 -1.2523,2.54329 -1.2523,2.54328 -1.9799,1.74725 -1.9801,1.74726 -2.6619,1.28635 -2.6619,1.28635 -2.852,0.8695 -2.8519,0.86951 z m 216.5941,-10.94623 -9.4434,-0.0101 -6.2745,-5.7047 -6.2744,-5.70472 -5.1336,0.29583 -5.1335,0.29581 -12.3588,-0.0214 -12.3586,-0.0214 -3.7536,-1.01401 -3.7536,-1.01401 -2.7948,-1.38094 -2.7949,-1.38094 -1.8784,-1.84909 -1.8785,-1.84908 -0.9813,-2.00889 -0.9814,-2.00889 -0.4011,-2.17659 -0.401,-2.17657 0.1121,-21.78026 0.1121,-21.78028 0.8823,-2.18527 0.8825,-2.18527 1.9178,-2.09831 1.9177,-2.09833 2.3335,-1.29069 2.3334,-1.29071 3.0511,-0.95193 3.0512,-0.95194 3.0331,-0.43991 3.0332,-0.4399 19.2034,0.14565 19.2036,0.14563 3.2321,0.8466 3.2324,0.84662 3.0813,1.4895 3.0811,1.4895 2.1152,2.2847 2.1153,2.28468 0.8878,2.1997 0.8879,2.19968 0.1092,22.17626 0.1092,22.17628 -0.3949,2.136 -0.3948,2.136 -0.7839,1.61924 -0.7839,1.61923 -1.4846,1.52979 -1.4845,1.52979 -1.9676,0.99702 -1.9674,0.997 0.9086,0.8672 0.9088,0.8672 6.6546,6.00948 6.6547,6.00949 0.1265,0.31509 0.1264,0.31507 -9.4433,-0.0101 z m -41.2908,-21.69719 7.7004,0.0319 v -0.12202 -0.12203 l -6.4949,-5.86713 -6.4947,-5.86714 9.5609,-0.10161 9.5609,-0.10162 5.6489,5.14021 5.6489,5.14018 h 0.3672 0.3672 l 1.3546,-1.49952 1.3548,-1.49952 0.414,-1.53744 0.4139,-1.53745 -0.1078,-19.33198 -0.1077,-19.332 -1.0372,-1.56686 -1.0372,-1.56689 -1.6246,-0.9418 -1.6247,-0.94182 -2.2816,-0.43781 -2.2816,-0.43779 -14.8396,0.12274 -14.8397,0.12274 -2.4729,1.21798 -2.4729,1.21798 -0.8374,1.13284 -0.8377,1.13285 -0.3787,1.64198 -0.3787,1.64198 v 17.68243 17.68244 l 0.3905,1.7112 0.3905,1.71121 0.9364,1.35892 0.9365,1.35891 1.6108,0.91098 1.6109,0.91096 2.0914,0.45518 2.0916,0.45518 7.7004,0.0319 z m -271.4158,11.54601 -2.4718,0.17119 -2.6744,-0.28272 -2.6745,-0.28272 -1.9915,-0.85671 -1.9915,-0.85672 -1.8173,-1.98846 -1.8173,-1.98845 -12.7203,-28.39226 -12.7202,-28.39226 -0.098,31.00122 -0.098,31.00124 h -8.1736 -8.1735 v -33.01425 -33.01425 l 0.5913,-1.9913 0.5914,-1.99131 1.4565,-1.45647 1.4563,-1.45646 2.2174,-0.8296 2.2172,-0.82958 2.8575,-0.59095 2.8575,-0.59094 3.8425,0.17088 3.8424,0.17089 2.4394,1.15219 2.4394,1.15215 1.6678,1.66996 1.6676,1.66997 1.9699,4.18293 1.9698,4.18295 10.4323,24.2408 10.4325,24.2408 0.2181,10e-4 0.2182,10e-4 11.714,-26.33352 11.7142,-26.33352 1.1555,-2.20655 1.1555,-2.20656 2.0291,-1.85447 2.0291,-1.85447 2.1853,-0.88213 2.1852,-0.88215 5.1336,0.0279 5.1337,0.0279 3.0765,1.01493 3.0765,1.01493 1.5313,1.10925 1.5313,1.10926 0.9061,1.84044 0.906,1.84043 0.1035,33.74874 0.1035,33.74873 h -8.1815 -8.1816 l -0.098,-30.93022 -0.098,-30.93022 -12.3586,27.60238 -12.3588,27.6024 -1.3621,2.03479 -1.362,2.03478 -1.658,1.11352 -1.658,1.11351 -1.9234,0.52726 -1.9235,0.52727 -2.4717,0.17118 z m 416.5829,-0.23174 -3.0422,0.12332 -1.8379,-0.63479 -1.8381,-0.63479 -1.8885,-1.69793 -1.8885,-1.69793 -0.7113,-1.39442 -0.7115,-1.39442 -0.4142,-2.28436 -0.4143,-2.28435 0.3846,-2.02733 0.3844,-2.02731 0.8427,-1.6872 0.8425,-1.68719 1.4871,-1.34344 1.487,-1.34345 1.7578,-0.79412 1.7578,-0.7941 3.042,-0.0187 3.0422,-0.0187 2.1505,1.00821 2.1506,1.00824 1.5405,1.58738 1.5406,1.58739 0.8139,2.15773 0.8139,2.15773 -0.1621,3.04214 -0.162,3.04213 -0.9912,1.93558 -0.9912,1.93556 -1.3659,1.19931 -1.366,1.1993 -1.6055,0.82852 -1.6055,0.82854 -3.0422,0.12331 z m -0.1515,-2.66129 1.7498,-0.1328 1.8627,-0.91684 1.8628,-0.91685 -1.5212,-0.1134 -1.521,-0.11354 -1.6494,-2.8336 -1.6493,-2.8336 h -0.9176 -0.9173 v 2.85201 2.852 h -1.3309 -1.331 v -6.84482 -6.84481 h 4.2122 4.2122 l 1.1116,1.11155 1.1115,1.11154 v 1.46572 1.46572 l -0.6191,0.88401 -0.6193,0.88401 -1.0739,0.45157 -1.0739,0.45155 1.7882,2.73492 1.7882,2.7349 0.3761,-0.11842 0.3763,-0.11843 1.0497,-2.00948 1.0498,-2.00948 -0.014,-2.33326 -0.014,-2.33324 -0.7056,-1.52107 -0.7059,-1.52108 -1.2823,-1.21658 -1.2823,-1.21661 -1.4138,-0.58966 -1.4138,-0.58969 h -2.0601 -2.0603 l -2.0398,1.06226 -2.0399,1.06226 -1.1866,1.97566 -1.1865,1.97568 -0.2404,1.50255 -0.2403,1.50257 0.4086,1.9048 0.4085,1.90481 1.106,1.52661 1.1058,1.52662 0.9616,0.63011 0.9617,0.63011 1.4225,0.52825 1.4226,0.52827 1.7498,-0.1328 z m -1.2042,-10.14218 h 1.4963 l 0.9235,-0.35115 0.9236,-0.35113 0.2301,-0.59952 0.2301,-0.59954 -0.216,-0.56297 -0.216,-0.56298 -1.3883,-0.38558 -1.3882,-0.38556 -1.0457,-0.003 -1.0457,-0.003 v 1.90134 1.90134 h 1.4963 z m -233.9347,12.07948 -26.1434,0.12332 v -5.51752 -5.51753 l 24.0519,-0.10981 24.0519,-0.1098 1.7057,-0.67898 1.7059,-0.67899 1.0851,-1.03097 1.0851,-1.03095 0.5364,-1.02686 0.5365,-1.02685 v -5.25435 -5.25435 l -0.9368,-1.37855 -0.9368,-1.37855 -1.6299,-0.78282 -1.6301,-0.7828 -2.4718,-0.39578 -2.4717,-0.39579 -10.6475,-0.006 -10.6476,-0.006 -3.6125,-0.54778 -3.6124,-0.54775 -2.6619,-0.81846 -2.6619,-0.81845 -2.5826,-1.3488 -2.5825,-1.34881 -1.8427,-1.75088 -1.8426,-1.75088 -0.8968,-1.71119 -0.897,-1.71122 -0.1293,-6.83815 -0.1294,-6.83818 0.4483,-2.2789 0.4484,-2.27889 0.7411,-1.45249 0.741,-1.4525 1.3573,-1.50248 1.3575,-1.5025 2.1642,-1.31468 2.1641,-1.31469 3.592,-1.25357 3.5919,-1.25352 27.6644,-0.11139 27.6646,-0.11138 v 5.51733 5.51733 l -25.383,0.10793 -25.3828,0.10794 -1.4966,0.76053 -1.4964,0.76054 -0.7852,1.07208 -0.785,1.07209 -0.1236,4.86331 -0.1236,4.8633 0.4108,1.52525 0.4106,1.52524 0.7952,1.01092 0.7952,1.01092 1.5803,0.8436 1.58,0.8436 14.6404,0.23363 14.6402,0.23364 2.2816,0.45261 2.2816,0.45262 2.4718,0.78823 2.4717,0.78825 2.5668,1.33091 2.5667,1.33091 1.6899,1.48752 1.6899,1.48754 0.9923,2.02808 0.9923,2.02809 -0.115,8.70094 -0.115,8.70095 -0.8582,1.7416 -0.8583,1.74159 -1.9937,1.99154 -1.9937,1.99153 -3.4225,1.68944 -3.4224,1.68945 -3.0421,0.84074 -3.0422,0.84073 z m 192.2251,0.0408 -23.4815,-0.0482 -2.4718,-0.3134 -2.4717,-0.3134 -3.5372,-0.81113 -3.5373,-0.81113 -2.9272,-1.46676 -2.9274,-1.46675 -1.6636,-1.63851 -1.6636,-1.6385 -0.8407,-1.33094 -0.8408,-1.33093 -0.7162,-1.90134 -0.7162,-1.90133 -0.1264,-29.5658 -0.1265,-29.56579 h 8.1814 8.1816 l 0.1092,28.80526 0.1093,28.80525 0.7811,1.32964 0.781,1.32965 1.2656,0.85291 1.2656,0.85293 1.3758,0.46352 1.3757,0.46352 24.0519,0.12677 24.0519,0.12676 v 5.49793 5.49792 z m 51.1099,-51.66815 h -0.5115 l -0.7244,-0.80782 -0.7245,-0.80781 -4.7533,-3.594 -4.7532,-3.59399 -7.6054,-3.77832 -7.6054,-3.77831 -3.3597,-2.41386 -3.3597,-2.41386 -1.6929,-1.41509 -1.6928,-1.41507 -2.0493,-2.7263 -2.0491,-2.7263 -1.0392,-2.40095 -1.0392,-2.40094 0.7257,-0.72458 0.7258,-0.72457 4.3731,-1.50429 4.373,-1.50428 3.0422,-0.63867 3.0421,-0.63867 6.1793,-0.20359 6.1794,-0.20362 v -0.24983 -0.24982 l -1.426,-1.35837 -1.426,-1.35837 -4.3731,-2.91892 -4.373,-2.91891 -4.715,-3.20345 -4.7149,-3.20344 -3.0805,-1.18185 -3.0806,-1.18187 -4.98,-1.6523 -4.9799,-1.65229 -1.7492,-0.82226 -1.7493,-0.82225 -0.9071,-1.20367 -0.9072,-1.20365 -1.5965,-2.70305 -1.5965,-2.70304 -3.5464,-7.75431 -3.5462,-7.75431 -2.6807,-5.70401 -2.6806,-5.70401 -1.7372,-4.40914 -1.7371,-4.40912 -1.7806,-3.19622 -1.7806,-3.19621 -2.7448,-4.18295 -2.7447,-4.18295 -2.5804,-3.23227 -2.5804,-3.23228 -2.8864,-3.19821 -2.8864,-3.1982 -3.8909,-3.51969 -3.891,-3.5197 -3.6333,-2.73088 -3.6333,-2.73087 -3.8839,-2.4403 -3.8837,-2.44031 -3.8027,-1.85658 -3.8027,-1.85659 -3.4164,-1.20058 -3.4164,-1.20057 -4.5691,-0.35973 -4.5693,-0.35971 -2.5541,-0.24099 -2.5542,-0.24098 -2.3319,-1.87914 -2.3321,-1.87915 -2.1416,-1.37001 -2.1418,-1.37002 -3.8098,-1.7927 -3.8098,-1.79268 -2.6069,-0.80125 -2.6068,-0.80125 h -0.8927 -0.8928 l -0.9937,0.45278 -0.9937,0.4528 -0.5251,1.25689 -0.5252,1.25689 0.5598,1.88517 0.5598,1.88519 1.9037,2.77462 1.904,2.77461 2.0875,2.66189 2.0878,2.66186 1.7703,2.63114 1.7704,2.63113 1.2191,2.50248 1.219,2.50247 2.7395,8.36588 2.7397,8.3659 1.4496,3.10805 1.4496,3.10804 1.2413,1.83543 1.2415,1.83543 1.7915,1.92341 1.7917,1.92339 0.6645,1.28524 0.6646,1.28525 -0.2233,2.13703 -0.2234,2.13703 -1.87,5.30455 -1.87,5.30455 -0.6152,3.58175 -0.6152,3.58175 v 5.16168 5.16165 l 0.5587,3.44431 0.5586,3.4443 0.8043,2.63998 0.8043,2.63998 0.9904,2.2816 0.9904,2.28161 1.031,1.53663 1.0311,1.53664 1.3524,0.72829 1.3523,0.72829 0.1981,-0.19795 0.1979,-0.19795 0.7745,-6.05979 0.7745,-6.05978 0.7602,-2.78478 0.7603,-2.78478 0.8007,-1.5883 0.8006,-1.5883 2.1044,-2.66186 2.1046,-2.66187 0.3045,-0.34515 0.3046,-0.34514 0.5442,0.45171 0.5442,0.45171 0.4082,1.62091 0.4081,1.62091 2.4982,5.68077 2.4982,5.68077 3.2719,5.90111 3.2718,5.90112 3.4935,5.32373 3.4936,5.32375 2.3692,2.93386 2.3691,2.93385 2.7264,2.46369 2.7263,2.46367 -0.2394,0.23946 -0.2395,0.23944 -1.2712,-0.65285 -1.2712,-0.65284 -3.0422,-2.91596 -3.0422,-2.91595 -3.0421,-2.50527 -3.0421,-2.50528 -3.0596,-3.17545 -3.0597,-3.17545 -1.5035,-1.86262 -1.5037,-1.86262 -2.9178,-5.74273 -2.9179,-5.74272 -0.1893,0.57039 -0.1893,0.57041 -0.4099,2.47174 -0.41,2.47173 -0.5753,3.73162 -0.5752,3.73162 -0.7156,1.402 -0.7156,1.40199 -0.7198,0.65096 -0.7199,0.65097 -1.3998,0.58489 -1.3999,0.58491 h -1.5374 -1.5374 l -1.7154,-0.80629 -1.7151,-0.80627 -2.1785,-2.37978 -2.1782,-2.37978 -1.603,-3.01359 -1.6029,-3.01358 -1.111,-3.40212 -1.1111,-3.4021 -0.6584,-3.80267 -0.6584,-3.80267 v -5.70401 -5.70401 l 0.4218,-2.66188 0.422,-2.66187 1.3556,-5.70401 1.3556,-5.70401 0.7337,-1.90869 0.7336,-1.90868 v -0.26348 -0.26349 l -2.0038,-2.24568 -2.0038,-2.24569 -1.9995,-3.60934 -1.9995,-3.60931 -1.5371,-3.76112 -1.5371,-3.76112 -2.0956,-6.46454 -2.0957,-6.46455 -1.2981,-2.66187 -1.2981,-2.66188 -3.6248,-4.75334 -3.6249,-4.75334 -1.8699,-2.7732 -1.8699,-2.77318 -0.7818,-2.08949 -0.7817,-2.08947 v -2.55256 -2.55253 l 0.8923,-1.90134 0.8923,-1.90133 1.0954,-1.08396 1.0953,-1.08398 1.5261,-0.81121 1.526,-0.8112 3.8027,0.0197 3.8027,0.0197 3.6079,1.23305 3.6079,1.23306 4.0127,2.08489 4.0128,2.08489 1.8861,1.47351 1.8859,1.47352 1.4502,1.05013 1.45,1.05013 4.8244,0.32004 4.8243,0.32006 3.8531,0.92441 3.8531,0.92441 2.8016,0.97874 2.8015,0.97874 3.6127,2.14698 3.6125,2.147 4.373,2.92348 4.3731,2.92349 4.3709,3.3805 4.3709,3.38049 5.5451,5.51388 5.5453,5.51388 3.3115,4.17479 3.3117,4.17478 3.1843,4.7615 3.1845,4.76152 1.5282,2.852 1.5283,2.85201 1.8914,4.75335 1.8916,4.75334 1.4139,3.23227 1.4138,3.23228 5.3307,11.02774 5.3307,11.02776 1.0854,1.58579 1.0854,1.58578 1.4288,0.46878 1.4286,0.4688 5.8941,2.66854 5.8942,2.66852 2.4716,1.5085 2.4717,1.5085 3.644,2.58156 3.6438,2.58157 4.3417,3.49448 4.3418,3.49449 1.824,1.76224 1.8238,1.76224 2.0739,2.70436 2.0738,2.70435 v 0.60689 0.60689 l -2.5667,0.75897 -2.5669,0.75897 -1.7112,0.3695 -1.7112,0.36948 -3.7349,0.4375 -3.7349,0.43749 -4.2508,1.1054 -4.2506,1.10539 -0.8556,0.007 -0.8557,0.007 v 0.45898 0.45898 l 2.391,2.29796 2.3908,2.29796 4.9037,3.02109 4.9037,3.02111 2.6875,2.16717 2.6874,2.16717 2.4718,2.65238 2.4717,2.65238 2.888,3.18711 2.8881,3.1871 0.8195,1.85462 0.8196,1.8546 v 0.14186 0.14185 h -0.5114 z M 1871.9022,345.75066 h -0.2952 l -1.2477,-2.86152 -1.2476,-2.86151 -1.3914,-1.60664 -1.3914,-1.60662 -0.8761,-1.25777 -0.8763,-1.25776 0.1492,-0.14921 0.1493,-0.1492 2.5468,-0.26095 2.5469,-0.26093 1.7275,1.41558 1.7276,1.41557 0.7514,1.47305 0.7515,1.47306 v 0.68061 0.68062 l -0.3928,1.41419 -0.3927,1.41419 -0.9698,1.15262 -0.97,1.15262 h -0.295 z"
       id="path4925"
       inkscape:export-filename="..\Documents\Luciana web site\Luciana\assets\img\mysql.svg"
       inkscape:export-xdpi="90"
       inkscape:export-ydpi="90" /></g></svg>
