<?xml version="1.0" encoding="UTF-8" standalone="no"?>
<!-- Created with Inkscape (http://www.inkscape.org/) -->

<svg
   width="213.78052mm"
   height="70.643799mm"
   viewBox="0 0 213.78052 70.643799"
   version="1.1"
   id="svg5"
   inkscape:version="1.1.1 (3bf5ae0d25, 2021-09-20)"
   sodipodi:docname="dessin-1.svg"
   xml:space="preserve"
   xmlns:inkscape="http://www.inkscape.org/namespaces/inkscape"
   xmlns:sodipodi="http://sodipodi.sourceforge.net/DTD/sodipodi-0.dtd"
   xmlns="http://www.w3.org/2000/svg"
   xmlns:svg="http://www.w3.org/2000/svg"><sodipodi:namedview
     id="namedview7"
     pagecolor="#ffffff"
     bordercolor="#999999"
     borderopacity="1"
     inkscape:pageshadow="0"
     inkscape:pageopacity="0"
     inkscape:pagecheckerboard="0"
     inkscape:document-units="mm"
     showgrid="false"
     inkscape:snap-global="false"
     inkscape:zoom="0.22645918"
     inkscape:cx="1671.3829"
     inkscape:cy="-794.84523"
     inkscape:window-width="2880"
     inkscape:window-height="1586"
     inkscape:window-x="2869"
     inkscape:window-y="-11"
     inkscape:window-maximized="1"
     inkscape:current-layer="layer1"
     inkscape:showpageshadow="0"
     inkscape:deskcolor="#d1d1d1"
     showguides="true"><sodipodi:guide
       position="-1311.8301,-79.812193"
       orientation="0,-1"
       id="guide1923"
       inkscape:locked="false" /><sodipodi:guide
       position="-1210.1837,-250.39113"
       orientation="0,-1"
       id="guide1925"
       inkscape:locked="false" /><sodipodi:guide
       position="-1279.7005,-189.63699"
       orientation="0,-1"
       id="guide1927"
       inkscape:locked="false" /></sodipodi:namedview><defs
     id="defs2" /><g
     inkscape:label="Calque 1"
     inkscape:groupmode="layer"
     id="layer1"
     transform="translate(-1390.6936,-222.24731)"><path
       style="fill:#ffb727;fill-opacity:1;stroke-width:1"
       d="m 1397.195,292.87944 -1.0774,-0.0116 -1.0246,-0.36523 -1.0246,-0.36522 -0.9597,-0.76091 -0.9598,-0.76091 -0.7276,-1.42324 -0.7276,-1.42323 0.01,-1.47391 0.01,-1.47392 0.539,-1.19062 0.5389,-1.19063 0.712,-0.76106 0.712,-0.76107 1.3229,-0.62541 1.323,-0.62541 1.4765,-0.003 1.4765,-0.003 1.2031,0.60909 1.2031,0.60909 3.3908,-2.32998 3.3907,-2.32999 0.016,-1.79734 0.016,-1.79735 -3.3725,-2.28844 -3.3726,-2.28845 -1.2584,0.561 -1.2584,0.561 -1.5929,0.004 -1.5928,0.004 -1.3849,-0.75375 -1.3848,-0.75374 -0.6739,-0.88347 -0.6739,-0.88347 -0.3833,-0.91744 -0.3833,-0.91731 v -1.26527 -1.26527 l 0.2832,-1.01989 0.2832,-1.01989 1.1044,-1.20286 1.1044,-1.20286 1.0584,-0.48342 1.0583,-0.48342 1.6621,-0.006 1.6622,-0.006 0.9837,0.41029 0.9837,0.41028 0.883,0.84649 0.8831,0.84648 0.5583,1.05834 0.5583,1.05833 0.047,1.83484 0.046,1.83483 3.3799,2.31776 3.3799,2.31776 1.0184,-0.51952 1.0183,-0.51952 1.1513,-0.1578 1.1513,-0.1578 1.4292,0.41824 1.4293,0.41824 1.0263,0.85023 1.0263,0.85024 0.6248,1.34167 0.6247,1.34166 v 1.52986 1.52985 l -0.4098,0.98369 -0.4098,0.98369 -0.9793,1.02373 -0.9792,1.02372 -1.0584,0.49182 -1.0583,0.49181 -1.5384,0.006 -1.5385,0.006 -1.289,-0.55452 -1.289,-0.55451 -3.4132,2.31948 -3.4132,2.31947 0.12,1.24879 0.1199,1.2488 -0.463,1.39413 -0.4631,1.39414 -1.107,1.10703 -1.107,1.10704 -1.2861,0.4382 -1.2862,0.4382 z m 192.1346,-0.85771 -2.8442,0.15485 v -3.44367 -3.44367 l 1.788,-0.12793 1.7881,-0.12794 0.8501,-0.4396 0.8501,-0.43962 0.5575,-0.59248 0.5574,-0.59249 0.4424,-0.92604 0.4424,-0.92604 0.074,-21.36511 0.074,-21.3651 h 3.9612 3.9613 v 20.35377 20.35377 l -0.2847,2.0469 -0.2847,2.0469 -0.6068,1.67163 -0.6067,1.67162 -0.8945,1.16622 -0.8945,1.16622 -1.2896,0.95474 -1.2895,0.95473 -1.7532,0.54674 -1.7531,0.54674 z m -10.5172,-10.50776 h -3.9687 v -4.60928 -4.60928 l -10.6495,-0.0971 -10.6495,-0.0971 -1.5219,-0.60453 -1.5219,-0.60452 -1.2562,-0.99349 -1.2562,-0.99349 -0.7784,-1.43141 -0.7783,-1.43142 -0.1072,-2.11994 -0.1072,-2.11995 0.5588,-1.4552 0.5589,-1.45521 8.9902,-11.77396 8.9902,-11.77396 1.0641,-1.10707 1.0642,-1.10707 1.5171,-0.74502 1.5172,-0.74501 h 2.652 2.6521 l 1.7512,0.86246 1.7513,0.86246 0.9849,1.09017 0.9849,1.09016 0.6972,1.48696 0.6972,1.48696 0.075,13.29531 0.075,13.29532 h 2.9011 2.9011 v 3.57187 3.57188 h -2.9104 -2.9104 v 4.6302 4.63021 z m -13.5671,-16.40416 h 9.5984 v -12.48073 -12.48073 l -0.4379,-0.48386 -0.4379,-0.48385 h -0.7021 -0.7022 l -0.4179,0.33073 -0.4179,0.33073 -8.4111,11.1125 -8.4112,11.1125 -0.3204,0.61229 -0.3205,0.61228 0.1361,0.52029 0.136,0.52028 0.5551,0.38879 0.555,0.38878 z m -89.2235,13.38529 -4.2333,0.0806 -1.4552,-0.3366 -1.4552,-0.33659 -1.0584,-0.34746 -1.0583,-0.34745 -1.7199,-0.85958 -1.7199,-0.85957 -1.6595,-1.24742 -1.6594,-1.24742 -1.4573,-1.86243 -1.4572,-1.86244 -0.9078,-1.88744 -0.9079,-1.88744 -0.5375,-2.24252 -0.5376,-2.24253 v -3.175 -3.175 l 0.5359,-2.24895 0.536,-2.24896 1.0465,-2.11667 1.0465,-2.11667 1.3575,-1.65483 1.3575,-1.65483 1.6223,-1.22725 1.6222,-1.22724 2.1167,-1.01368 2.1166,-1.01369 1.5875,-0.43993 1.5875,-0.43994 3.9688,-0.12228 3.9687,-0.12227 2.3044,0.54784 2.3043,0.54785 1.7561,0.79624 1.756,0.79623 1.6658,1.18868 1.6658,1.18869 1.5041,1.66062 1.5041,1.66063 1.1729,2.38125 1.1728,2.38125 0.5132,2.04064 0.5132,2.04064 0.1843,3.31717 0.1843,3.31717 h -17.2416 -17.2416 l 0.1776,0.72761 0.1777,0.7276 0.3651,1.04966 0.3651,1.04967 0.6275,1.07071 0.6274,1.07071 1.434,1.35614 1.4339,1.35613 1.1264,0.57469 1.1265,0.57469 2.0053,0.51286 2.0053,0.51287 1.479,-0.002 1.4791,-0.002 1.7198,-0.26818 1.7197,-0.26817 1.8975,-0.92465 1.8975,-0.92465 1.1857,-1.31872 1.1856,-1.31871 h 4.2591 4.259 v 0.3053 0.3053 l -0.9655,1.74522 -0.9655,1.74522 -2.2903,2.27802 -2.2903,2.27803 -2.4989,1.22615 -2.4989,1.22614 -1.5875,0.43623 -1.5875,0.43622 -4.2333,0.0806 z m -0.5292,-24.76238 h 12.868 l -0.1689,-0.59531 -0.169,-0.59531 -0.7796,-1.62949 -0.7796,-1.62948 -1.5702,-1.45375 -1.5703,-1.45375 -1.4079,-0.68883 -1.4079,-0.68882 -1.9781,-0.42127 -1.9781,-0.42127 -2.1167,0.14517 -2.1167,0.14516 -1.5663,0.54367 -1.5664,0.54367 -1.0832,0.63478 -1.0831,0.63479 -1.3997,1.47995 -1.3997,1.47994 -0.6216,1.38977 -0.6216,1.38976 -0.1757,0.59531 -0.1756,0.59531 z m 46.9636,24.7813 -4.3656,0.081 -2.1167,-0.53059 -2.1167,-0.53061 -2.5135,-1.23682 -2.5136,-1.23683 -2.3918,-2.39549 -2.3919,-2.3955 -1.1006,-2.13164 -1.1007,-2.13163 -0.6032,-2.1017 -0.6032,-2.1017 v -3.96875 -3.96875 l 0.4687,-1.71979 0.4687,-1.71979 1.2087,-2.50512 1.2088,-2.50512 2.4134,-2.40392 2.4134,-2.40391 2.5136,-1.22893 2.5135,-1.22892 1.7198,-0.47306 1.7198,-0.47305 4.6302,-0.004 4.6302,-0.004 1.973,0.61955 1.973,0.61956 1.7313,0.87188 1.7313,0.87187 1.6692,1.25475 1.6692,1.25474 1.3071,1.61552 1.3072,1.61553 0.9018,1.72371 0.9019,1.72372 0.5537,1.85208 0.5538,1.85208 0.2397,2.38125 0.2398,2.38125 -0.2389,2.38125 -0.2388,2.38125 -0.5552,1.84276 -0.5553,1.84276 -0.7402,1.46629 -0.7401,1.46629 -1.249,1.66152 -1.249,1.66152 -1.4285,1.1636 -1.4284,1.1636 -1.5328,0.93112 -1.5328,0.93113 -2.4992,0.85308 -2.4992,0.85308 -4.3656,0.081 z m -0.6376,-7.07525 1.6113,0.021 2.07,-0.52943 2.0701,-0.52943 1.2134,-0.71015 1.2134,-0.71014 1.356,-1.28106 1.356,-1.28106 0.8186,-1.53581 0.8185,-1.53582 0.4189,-1.56595 0.4189,-1.56595 v -2.38125 -2.38125 l -0.4084,-1.52579 -0.4085,-1.5258 -0.6978,-1.37718 -0.6979,-1.37717 -1.6194,-1.61316 -1.6195,-1.61316 -1.4598,-0.71033 -1.4598,-0.71034 -1.8475,-0.39133 -1.8475,-0.39134 h -1.3229 -1.3229 l -1.7912,0.37956 -1.7911,0.37956 -1.641,0.87262 -1.641,0.87261 -1.3303,1.33035 -1.3304,1.33034 -0.8533,1.6047 -0.8532,1.6047 -0.3996,1.69516 -0.3996,1.69517 v 1.85208 1.85209 l 0.3996,1.69517 0.3996,1.69516 0.8501,1.61213 0.8502,1.61212 1.3496,1.36378 1.3497,1.36378 1.6726,0.84434 1.6726,0.84433 1.6111,0.35054 1.611,0.35054 z m -75.5441,6.37104 h -3.9871 v -11.57552 -11.57553 l -0.3911,-1.65871 -0.391,-1.65871 -0.6799,-1.34172 -0.6799,-1.34172 -1.0317,-1.11917 -1.0316,-1.11918 -1.2898,-0.70203 -1.2899,-0.70202 -1.6969,-0.39998 -1.6968,-0.39998 -1.353,-0.004 -1.3529,-0.004 -1.3899,0.26358 -1.3898,0.26358 -1.5494,0.69532 -1.5494,0.69531 -1.301,1.37562 -1.301,1.37563 -0.5292,1.03892 -0.5292,1.03892 -0.4616,1.45521 -0.4616,1.4552 -0.1263,6.39029 -0.1263,6.3903 -0.8304,-0.34584 -0.8303,-0.34585 -1.2205,-0.18206 -1.2204,-0.18207 -1.6452,0.42147 -1.6452,0.42148 h -0.1109 -0.1109 v -6.41614 -6.41615 l 0.5101,-2.47226 0.5101,-2.47226 1.1318,-2.29024 1.1317,-2.29024 1.8604,-1.85622 1.8604,-1.85623 1.852,-0.96194 1.8521,-0.96194 1.8521,-0.59115 1.8521,-0.59115 4.1144,-0.12668 4.1144,-0.12668 1.98,0.40946 1.98,0.40947 1.5266,0.57117 1.5265,0.57116 1.9725,1.31929 1.9725,1.31928 1.2284,1.50066 1.2284,1.50067 0.8817,1.85208 0.8818,1.85208 0.5844,2.11667 0.5844,2.11667 0.1,12.63385 0.1,12.63386 h -3.987 z m 152.2455,-42.49752 -1.319,0.13514 -0.7938,-0.2058 -0.7937,-0.2058 -0.8296,-0.43226 -0.8296,-0.43227 -1.0647,-1.20949 -1.0646,-1.20949 -0.321,-1.33832 -0.3211,-1.33832 0.1598,-1.16607 0.1599,-1.16608 0.5185,-1.01639 0.5185,-1.01639 0.9885,-0.86795 0.9886,-0.86794 0.8706,-0.36378 0.8706,-0.36377 1.6622,0.006 1.6621,0.006 1.0584,0.48341 1.0583,0.48342 1.1044,1.20286 1.1044,1.20287 0.2832,1.01988 0.2832,1.01989 v 1.26527 1.26527 l -0.4051,0.96945 -0.4051,0.96945 -0.6214,0.81477 -0.6215,0.81477 -1.2925,0.70345 -1.2924,0.70346 -1.3191,0.13514 z"
       id="path4757" /></g></svg>
