<?xml version="1.0" encoding="UTF-8" standalone="no"?>
<!-- Created with Inkscape (http://www.inkscape.org/) -->

<svg
   width="147.06477mm"
   height="129.23608mm"
   viewBox="0 0 147.06477 129.23608"
   version="1.1"
   id="svg5"
   inkscape:version="1.2.2 (732a01da63, 2022-12-09)"
   sodipodi:docname="dessin-1.svg"
   xml:space="preserve"
   xmlns:inkscape="http://www.inkscape.org/namespaces/inkscape"
   xmlns:sodipodi="http://sodipodi.sourceforge.net/DTD/sodipodi-0.dtd"
   xmlns="http://www.w3.org/2000/svg"
   xmlns:svg="http://www.w3.org/2000/svg"><sodipodi:namedview
     id="namedview7"
     pagecolor="#ffffff"
     bordercolor="#999999"
     borderopacity="1"
     inkscape:pageshadow="0"
     inkscape:pageopacity="0"
     inkscape:pagecheckerboard="0"
     inkscape:document-units="mm"
     showgrid="false"
     inkscape:snap-global="false"
     inkscape:zoom="0.7096503"
     inkscape:cx="4040.7226"
     inkscape:cy="3352.3554"
     inkscape:window-width="2880"
     inkscape:window-height="1586"
     inkscape:window-x="2869"
     inkscape:window-y="-11"
     inkscape:window-maximized="1"
     inkscape:current-layer="layer1"
     inkscape:showpageshadow="0"
     inkscape:deskcolor="#d1d1d1"
     showguides="true"><sodipodi:guide
       position="72.561235,163.87364"
       orientation="0,-1"
       id="guide1923"
       inkscape:locked="false" /><sodipodi:guide
       position="174.20758,-6.7052851"
       orientation="0,-1"
       id="guide1925"
       inkscape:locked="false" /><sodipodi:guide
       position="104.69082,54.048851"
       orientation="0,-1"
       id="guide1927"
       inkscape:locked="false" /></sodipodi:namedview><defs
     id="defs2" /><g
     inkscape:label="Calque 1"
     inkscape:groupmode="layer"
     id="layer1"
     transform="translate(-6.3023097,-407.34087)"><path
       style="fill:#ffb727;fill-opacity:1;stroke-width:0.999998"
       d="m 32.32562,536.28614 c -2.650639,-0.86179 -4.841163,-2.86901 -5.787297,-5.30304 -0.651624,-1.67637 -0.908813,-5.7256 -0.488223,-7.68672 0.675575,-3.15012 2.881168,-5.86955 5.649518,-6.96572 1.179026,-0.46684 1.903397,-0.56423 4.262818,-0.57313 2.623021,-0.01 2.961623,0.0443 4.386608,0.70202 3.326049,1.53522 5.252929,5.03608 5.252929,9.54383 0,4.55449 -2.059018,8.21458 -5.503354,9.78273 -1.328208,0.60472 -1.899176,0.71102 -4.136183,0.77011 -1.702099,0.0449 -2.953714,-0.0479 -3.636816,-0.27008 z m 6.60055,-2.96449 c 1.290707,-0.6374 2.573116,-2.19958 3.023348,-3.68294 0.175712,-0.57887 0.309017,-2.19089 0.30064,-3.63533 -0.01239,-2.13386 -0.113496,-2.81496 -0.568792,-3.83109 -0.6861,-1.53127 -1.828389,-2.76053 -3.123678,-3.36152 -1.150912,-0.534 -3.638985,-0.62103 -5.114674,-0.1789 -1.378171,0.41291 -2.992317,1.9317 -3.687118,3.46932 -0.516863,1.14382 -0.588616,1.66171 -0.574894,4.14936 0.01174,2.1265 0.122083,3.07728 0.438167,3.77481 0.527092,1.16326 1.997351,2.81152 2.945019,3.30159 1.782525,0.92178 4.489235,0.91953 6.361982,-0.005 z m 45.936951,2.98013 c -3.627537,-1.35462 -5.40866,-3.77872 -5.9619,-8.11415 -0.665375,-5.21414 1.358037,-9.73605 5.203159,-11.62802 1.524564,-0.75015 1.837334,-0.81305 4.006096,-0.80573 1.841667,0.006 2.596663,0.11922 3.477253,0.52044 3.074383,1.40081 4.683625,4.49303 4.683625,8.99973 v 1.718 H 89.227076 82.18279 v 0.95759 c 0,2.30281 1.283076,4.35124 3.362828,5.36877 2.368499,1.1588 5.876778,0.83177 8.31055,-0.7747 0.506871,-0.33457 0.979584,-0.60831 1.050461,-0.60831 0.07091,0 0.128892,0.66168 0.128892,1.47039 v 1.47038 l -1.668386,0.80203 c -1.54943,0.74484 -1.879863,0.8077 -4.634402,0.88151 -2.073997,0.0557 -3.23776,-0.0219 -3.869612,-0.25793 z m 8.195052,-12.66061 c 0,-2.04336 -1.312839,-4.30605 -2.877794,-4.95993 -1.137674,-0.47535 -3.235185,-0.41626 -4.413655,0.12434 -1.758055,0.80647 -3.093415,2.55971 -3.467221,4.55225 l -0.171723,0.91539 h 5.465196 5.465197 z m -38.88256,12.56912 c -0.08828,-0.14429 -4.748297,-15.39418 -6.011552,-19.67282 -0.118575,-0.40162 0.0299,-0.43723 1.545461,-0.37076 l 1.676657,0.0735 2.17168,7.90936 c 1.19442,4.35015 2.18188,8.18743 2.194341,8.52728 l 0.02269,0.61792 0.204972,-0.61792 c 0.11274,-0.33985 1.291953,-4.20972 2.620478,-8.5997 l 2.415492,-7.98179 1.494866,0.0724 1.494858,0.0724 2.150479,7.78577 c 1.182758,4.28218 2.169678,8.11946 2.193153,8.52729 l 0.04272,0.7415 0.225365,-0.7415 c 0.189175,-0.62248 3.258848,-11.97137 4.161683,-15.38618 l 0.277725,-1.05047 h 1.623511 c 1.193447,0 1.593998,0.0818 1.512103,0.30896 -0.0613,0.16993 -1.42912,4.73017 -3.039671,10.13387 l -2.928272,9.82491 h -1.646121 -1.646115 l -2.315523,-8.12559 -2.315531,-8.12559 -0.552491,1.88461 c -0.303868,1.03654 -1.423826,4.66524 -2.488801,8.06379 l -1.93631,6.1792 -1.513753,0.0731 c -0.832565,0.0401 -1.567892,-0.0155 -1.634048,-0.12358 z M 6.3023099,522.04871 v -14.08857 h 4.8307611 c 5.497858,0 7.325684,0.31346 9.223348,1.58172 4.060633,2.71384 4.362052,9.8794 0.560076,13.31426 -2.120845,1.91604 -4.512509,2.65293 -8.610506,2.65293 h -2.7905 v 5.3141 5.3141 H 7.9088995 6.3023099 Z m 9.8453301,0.11297 c 1.54822,-0.45977 2.924742,-1.60974 3.535098,-2.95328 0.605609,-1.33307 0.60187,-3.87619 -0.0075,-5.19265 -1.073936,-2.31959 -2.877732,-3.08959 -7.23763,-3.08959 H 9.515652 v 5.80844 5.80844 h 2.673985 c 1.690293,0 3.146404,-0.14028 3.958166,-0.38136 z m 85.31423,3.96528 v -10.01028 h 1.47301 1.47301 l 0.0718,2.03914 0.0718,2.03913 0.66756,-1.26544 c 1.33113,-2.52331 3.74101,-3.77492 6.06776,-3.15137 0.50329,0.13488 0.55612,0.29936 0.55612,1.7315 v 1.58248 l -0.6797,-0.19009 c -0.37385,-0.10455 -1.24459,-0.19009 -1.93499,-0.19009 -1.57973,0 -2.81048,0.86342 -3.68183,2.58294 -0.8847,1.74589 -1.11455,3.7198 -1.11664,9.59007 l -0.002,5.2523 h -1.483 -1.48301 z m 25.45829,-4.07825 v -14.08857 h 4.80759 c 2.64419,0 5.37102,0.12083 6.05964,0.26852 1.69969,0.36453 3.42099,1.57776 4.32636,3.0494 0.6757,1.0983 0.74745,1.41165 0.73581,3.21318 -0.01,1.53727 -0.13299,2.22349 -0.53518,2.98486 -0.62352,1.1803 -2.08737,2.61973 -3.28302,3.22824 l -0.86508,0.44027 1.19232,0.30752 c 3.1295,0.80714 4.91822,3.24427 4.91822,6.70107 0,3.59581 -2.11179,6.38935 -5.65805,7.48468 -1.39831,0.43189 -2.29809,0.49937 -6.65773,0.49937 h -5.04088 z m 11.17095,10.63943 c 3.21323,-1.51551 3.85762,-6.00659 1.18458,-8.25581 -1.19675,-1.00699 -2.92695,-1.39495 -6.22121,-1.39495 h -2.92115 v 5.02573 c 0,2.76416 0.0834,5.11279 0.18537,5.21918 0.10196,0.10639 1.63132,0.1394 3.39856,0.0734 2.63616,-0.0985 3.42161,-0.21839 4.37385,-0.66751 z m -2.24385,-12.8679 c 2.40033,-0.66675 3.77692,-2.57159 3.61666,-5.00451 -0.10627,-1.61354 -0.6339,-2.50315 -1.9372,-3.26625 -0.68894,-0.40338 -1.40882,-0.50569 -4.11422,-0.58476 l -3.27917,-0.0958 v 4.60124 4.60123 l 2.40988,-0.002 c 1.32545,-7.3e-4 2.81226,-0.11315 3.30405,-0.24976 z m 14.30665,2.22847 v -14.08857 h 1.6066 1.60658 v 14.08857 14.08854 h -1.60658 -1.6066 z"
       id="path7395"
       inkscape:export-filename="..\Documents\Luciana web site\Luciana\assets\img\power_bi.png"
       inkscape:export-xdpi="90"
       inkscape:export-ydpi="90" /><path
       id="path2015"
       style="fill:#ffb727;fill-opacity:1;stroke:none;stroke-width:0.993994"
       d="m 77.060407,430.59443 c -3.009554,0 -5.432544,1.72916 -5.432544,3.87697 v 16.40246 h 5.718348 c 0.09405,0 0.187389,0.002 0.280234,0.007 0.09285,0.006 0.185167,0.012 0.276693,0.0217 0.09154,0.01 0.182298,0.0216 0.272413,0.036 0.0901,0.0143 0.179528,0.0311 0.268084,0.0498 0.08858,0.0189 0.176382,0.0399 0.263298,0.063 0.08692,0.0232 0.173083,0.0485 0.258238,0.076 0.08516,0.0275 0.169385,0.0572 0.252663,0.0889 0.08328,0.0317 0.165561,0.0653 0.246852,0.10104 0.0813,0.0358 0.16159,0.0735 0.240779,0.11319 0.07922,0.0397 0.157226,0.0815 0.234207,0.12504 0.07695,0.0434 0.15297,0.0889 0.227629,0.13612 0.07468,0.0472 0.14807,0.0961 0.220303,0.14695 0.07224,0.0507 0.14327,0.10347 0.212962,0.15776 0.06972,0.0542 0.138085,0.1104 0.205107,0.16805 0.06697,0.0576 0.132531,0.11691 0.196777,0.1778 0.06421,0.0609 0.127063,0.1233 0.188427,0.18731 0.06145,0.064 0.121462,0.12952 0.179829,0.19655 0.05836,0.067 0.115204,0.13559 0.170464,0.20549 0.05528,0.07 0.108808,0.141 0.160862,0.21369 0.05203,0.0727 0.102531,0.1468 0.151249,0.22212 0.0487,0.0753 0.09585,0.15218 0.141121,0.23006 0.04521,0.0778 0.0888,0.15686 0.130512,0.23716 0.04172,0.0803 0.08159,0.16168 0.119634,0.2443 0.03807,0.0826 0.07427,0.16634 0.108515,0.25114 0.03425,0.0848 0.06648,0.17061 0.09686,0.25748 0.03036,0.0869 0.05885,0.17499 0.08524,0.26381 0.02638,0.0888 0.05081,0.17844 0.07313,0.26909 0.02232,0.0907 0.04237,0.18225 0.06039,0.27462 0.01802,0.0924 0.03385,0.18566 0.04757,0.27964 0.01372,0.094 0.02508,0.18866 0.03442,0.28413 0.0093,0.0955 0.01632,0.19178 0.02102,0.2886 0.0057,0.0969 0.0065,0.19421 0.0065,0.29231 v 28.19218 c 0,0.0981 -0.0024,0.19548 -0.0065,0.29232 -0.0057,0.0968 -0.01169,0.19313 -0.02102,0.28861 -0.0093,0.0955 -0.0207,0.19013 -0.03442,0.28412 -0.01372,0.094 -0.02954,0.18726 -0.04757,0.27964 -0.01802,0.0924 -0.03823,0.18397 -0.06039,0.27463 -0.02232,0.0907 -0.04667,0.18027 -0.07313,0.26908 -0.02638,0.0888 -0.05487,0.17669 -0.08524,0.26355 -0.03036,0.0869 -0.06258,0.17295 -0.09686,0.25774 -0.03425,0.0848 -0.07045,0.16829 -0.108515,0.25089 -0.03807,0.0826 -0.07792,0.16425 -0.119634,0.24456 -0.04172,0.0803 -0.08524,0.15928 -0.130512,0.23715 -0.04529,0.0779 -0.0924,0.15472 -0.141121,0.23005 -0.0487,0.0753 -0.0992,0.14919 -0.151249,0.22187 -0.05203,0.0727 -0.105586,0.14404 -0.160862,0.21395 -0.05528,0.07 -0.112095,0.13849 -0.170464,0.20551 -0.05836,0.067 -0.118449,0.13253 -0.179829,0.19654 -0.06144,0.064 -0.124173,0.12641 -0.188427,0.18731 -0.06421,0.0609 -0.129747,0.12016 -0.196777,0.17781 -0.06696,0.0577 -0.135439,0.11375 -0.205107,0.16804 -0.06972,0.0542 -0.14073,0.10696 -0.212962,0.15775 -0.07224,0.0507 -0.145635,0.0997 -0.220303,0.14695 -0.07476,0.0472 -0.15064,0.0926 -0.227629,0.13613 -0.07695,0.0434 -0.155001,0.0851 -0.234207,0.12478 -0.07922,0.0397 -0.159479,0.0774 -0.240779,0.11318 -0.08129,0.0358 -0.163573,0.0696 -0.246852,0.1013 -0.08328,0.0317 -0.167508,0.0614 -0.252663,0.0889 -0.08516,0.0275 -0.171316,0.0528 -0.258238,0.076 -0.08692,0.0233 -0.174718,0.0443 -0.263298,0.063 -0.08856,0.0189 -0.177986,0.0356 -0.268084,0.0498 -0.09011,0.0143 -0.18087,0.0263 -0.272413,0.0359 -0.09153,0.01 -0.18384,0.0167 -0.276693,0.0217 -0.09284,0.006 -0.186186,0.007 -0.280234,0.007 H 93.07166 c 3.009556,0 5.43229,-1.72916 5.43229,-3.87697 v -52.05004 c 0,-2.14781 -2.422734,-3.87696 -5.43229,-3.87696 z m -18.34208,22.10066 h 16.011314 c 3.009551,0 5.432401,2.42559 5.432401,5.43854 v 27.05897 c 0,3.01294 -2.42285,5.43853 -5.432401,5.43853 H 58.718327 c -3.009556,0 -5.432411,-2.42559 -5.432411,-5.43853 v -27.05897 c 0,-3.01295 2.422855,-5.43854 5.432411,-5.43854 z m 36.763006,-45.3541 c -3.009556,0 -5.43254,1.78177 -5.43254,3.99493 v 17.20869 h 5.718346 c 0.188094,0 0.373867,0.006 0.556937,0.0207 0.183053,0.0136 0.363355,0.0338 0.540494,0.0604 0.17713,0.0265 0.35122,0.0593 0.52153,0.0981 0.17031,0.0387 0.33692,0.0836 0.49952,0.13401 0.16259,0.0504 0.32102,0.10636 0.47499,0.16772 0.15397,0.0614 0.30347,0.12787 0.44793,0.19954 0.14445,0.0716 0.28403,0.14841 0.41809,0.2297 0.13403,0.0813 0.26245,0.16716 0.38519,0.25742 0.12274,0.0902 0.23977,0.18496 0.3503,0.28353 0.11053,0.0986 0.21468,0.20094 0.31211,0.30718 0.0487,0.0531 0.0959,0.10738 0.14113,0.16229 0.0453,0.0549 0.0888,0.11056 0.13051,0.16717 0.0417,0.0567 0.0816,0.1141 0.11963,0.17235 0.0381,0.0582 0.0743,0.11718 0.1085,0.17696 0.0343,0.0598 0.0665,0.12035 0.0969,0.1816 0.0304,0.0613 0.0588,0.1233 0.0852,0.18594 0.0264,0.0626 0.0508,0.12582 0.0731,0.18973 0.0223,0.064 0.0424,0.12841 0.0604,0.19355 0.018,0.0652 0.0338,0.13082 0.0476,0.19708 0.0137,0.0663 0.0251,0.13303 0.0344,0.20035 0.009,0.0673 0.0163,0.13532 0.021,0.2036 0.005,0.0683 0.006,0.13689 0.006,0.20606 v 53.6336 c 0,0.0692 -0.002,0.13805 -0.006,0.20633 -0.006,0.0683 -0.0117,0.13602 -0.021,0.20333 -0.009,0.0673 -0.0207,0.13408 -0.0344,0.20034 -0.0137,0.0663 -0.0295,0.13195 -0.0476,0.19708 -0.018,0.0652 -0.0382,0.12964 -0.0604,0.19356 -0.0223,0.064 -0.0468,0.12739 -0.0731,0.19001 -0.0264,0.0626 -0.0549,0.12442 -0.0852,0.18567 -0.0304,0.0613 -0.0626,0.1218 -0.0969,0.18158 -0.0343,0.0598 -0.0704,0.11872 -0.1085,0.17697 -0.0381,0.0582 -0.0779,0.11572 -0.11963,0.17234 -0.0417,0.0567 -0.0852,0.11255 -0.13051,0.16746 -0.0453,0.0549 -0.0924,0.10889 -0.14113,0.16201 -0.0974,0.10623 -0.20158,0.2086 -0.31211,0.30717 -0.11053,0.0986 -0.22756,0.19327 -0.3503,0.28353 -0.12274,0.0903 -0.25116,0.17615 -0.38519,0.25743 -0.13406,0.0813 -0.27364,0.15806 -0.41809,0.2297 -0.14446,0.0716 -0.29396,0.13818 -0.44793,0.19954 -0.15397,0.0614 -0.3124,0.11759 -0.47499,0.16799 -0.1626,0.0504 -0.32921,0.0949 -0.49952,0.13375 -0.17031,0.0387 -0.3444,0.0716 -0.52153,0.0981 -0.177139,0.0265 -0.357441,0.0468 -0.540494,0.0603 -0.18307,0.0135 -0.368843,0.0206 -0.556937,0.0206 h 15.725501 c 3.00956,0 5.4323,-1.78177 5.4323,-3.99493 V 411.3358 c 0,-2.21316 -2.42274,-3.99493 -5.4323,-3.99493 z" /></g></svg>
