<?xml version="1.0" encoding="UTF-8" standalone="no"?>
<!-- Created with Inkscape (http://www.inkscape.org/) -->

<svg
   width="111.41479mm"
   height="123.59766mm"
   viewBox="0 0 111.41479 123.59766"
   version="1.1"
   id="svg5"
   inkscape:version="1.2.2 (732a01da63, 2022-12-09)"
   sodipodi:docname="dessin-1.svg"
   xml:space="preserve"
   xmlns:inkscape="http://www.inkscape.org/namespaces/inkscape"
   xmlns:sodipodi="http://sodipodi.sourceforge.net/DTD/sodipodi-0.dtd"
   xmlns="http://www.w3.org/2000/svg"
   xmlns:svg="http://www.w3.org/2000/svg"><sodipodi:namedview
     id="namedview7"
     pagecolor="#ffffff"
     bordercolor="#999999"
     borderopacity="1"
     inkscape:pageshadow="0"
     inkscape:pageopacity="0"
     inkscape:pagecheckerboard="0"
     inkscape:document-units="mm"
     showgrid="false"
     inkscape:snap-global="false"
     inkscape:zoom="0.7096503"
     inkscape:cx="4040.7226"
     inkscape:cy="3352.3554"
     inkscape:window-width="2880"
     inkscape:window-height="1586"
     inkscape:window-x="2869"
     inkscape:window-y="-11"
     inkscape:window-maximized="1"
     inkscape:current-layer="layer1"
     inkscape:showpageshadow="0"
     inkscape:deskcolor="#d1d1d1"
     showguides="true"><sodipodi:guide
       position="-585.57662,167.43732"
       orientation="0,-1"
       id="guide1923"
       inkscape:locked="false" /><sodipodi:guide
       position="-483.93026,-3.1416263"
       orientation="0,-1"
       id="guide1925"
       inkscape:locked="false" /><sodipodi:guide
       position="-553.44702,57.612516"
       orientation="0,-1"
       id="guide1927"
       inkscape:locked="false" /></sodipodi:namedview><defs
     id="defs2" /><g
     inkscape:label="Calque 1"
     inkscape:groupmode="layer"
     id="layer1"
     transform="translate(-664.44014,-416.54296)"><path
       d="m 677.95489,519.83115 c 0,-5.44887 -1.55383,-8.24814 -4.66298,-8.40158 -1.23647,-0.0584 -2.44413,0.13861 -3.61847,0.59465 -0.93746,0.33557 -1.56843,0.66764 -1.90037,1.00296 v 13.00842 c 1.98794,1.2477 3.75357,1.82739 5.29168,1.73645 3.25736,-0.21522 4.88752,-2.85992 4.88752,-7.94128 z m 3.83218,0.22614 c 0,2.76861 -0.64931,5.06716 -1.95501,6.89343 -1.45541,2.0684 -3.47254,3.13347 -6.0514,3.19185 -1.94414,0.062 -3.94817,-0.54713 -6.00646,-1.82402 v 11.8221 l -3.33408,-1.18932 v -26.24139 c 0.54714,-0.67101 1.25108,-1.2477 2.10471,-1.73646 1.98419,-1.15638 4.39726,-1.75104 7.23397,-1.78023 l 0.0474,0.0474 c 2.59345,-0.0328 4.59187,1.03214 5.99524,3.19185 1.30946,1.98084 1.96625,4.52077 1.96625,7.62319 z"
       style="fill:#ffb727;fill-opacity:1;stroke-width:0.264583"
       id="path4342" /><path
       d="m 702.16791,527.81733 c 0,3.71353 -0.37205,6.28342 -1.11633,7.71674 -0.74773,1.42995 -2.17057,2.57174 -4.27002,3.42163 -1.70353,0.67101 -3.54552,1.03588 -5.52372,1.09801 l -0.55088,-2.10096 c 2.01002,-0.27357 3.42538,-0.54713 4.24758,-0.8207 1.61594,-0.54714 2.7248,-1.38616 3.33406,-2.50961 0.48875,-0.91577 0.72939,-2.66269 0.72939,-5.25054 v -0.86821 c -2.27985,1.03588 -4.67046,1.55045 -7.16661,1.55045 -1.6414,0 -3.08969,-0.5142 -4.3374,-1.55045 -1.40076,-1.12722 -2.10096,-2.55717 -2.10096,-4.28875 v -13.87665 l 3.33407,-1.14179 v 13.96647 c 0,1.49207 0.48165,2.64098 1.44454,3.44708 0.96291,0.8061 2.21062,1.1927 3.73899,1.1635 1.52839,-0.0328 3.16605,-0.62385 4.90623,-1.78024 V 509.6991 h 3.33406 v 18.11674 z"
       style="fill:#ffb727;fill-opacity:1;stroke-width:0.264583"
       id="path4344" /><path
       d="m 715.1913,529.96171 c -0.39741,0.0328 -0.76231,0.0474 -1.09799,0.0474 -1.88578,0 -3.35577,-0.44871 -4.40476,-1.34949 -1.04673,-0.90117 -1.57215,-2.14475 -1.57215,-3.7315 V 511.7962 h -2.28359 v -2.0976 h 2.28359 v -5.56862 l 3.33031,-1.18558 v 6.75496 h 3.74609 v 2.09759 h -3.74609 v 13.0421 c 0,1.25106 0.33559,2.13764 1.0067,2.65557 0.57632,0.42664 1.49208,0.67101 2.73939,0.73312 v 1.73647 z"
       style="fill:#ffb727;fill-opacity:1;stroke-width:0.264583"
       id="path4346" /><path
       d="m 735.36261,529.68851 h -3.33408 v -12.86995 c 0,-1.30946 -0.30642,-2.43665 -0.91575,-3.37785 -0.70393,-1.06507 -1.68144,-1.59762 -2.93624,-1.59762 -1.52839,0 -3.43998,0.80612 -5.73329,2.41831 v 15.426 h -3.33406 v -30.76216 l 3.33406,-1.05048 v 14.01137 c 2.13014,-1.55045 4.45714,-2.32736 6.98697,-2.32736 1.76564,0 3.19521,0.59466 4.28874,1.78023 1.09799,1.18558 1.64513,2.66268 1.64513,4.42721 v 13.91781 z"
       style="fill:#ffb727;fill-opacity:1;stroke-width:0.264583"
       id="path4348" /><path
       d="m 753.10136,519.30722 c 0,-2.09384 -0.39744,-3.82094 -1.18932,-5.19064 -0.9412,-1.66686 -2.40372,-2.54593 -4.3823,-2.63724 -3.65516,0.21155 -5.4788,2.83072 -5.4788,7.85146 0,2.30156 0.37948,4.22511 1.14553,5.76698 0.9775,1.96622 2.44413,2.93624 4.40101,2.90368 3.66974,-0.0291 5.505,-2.9254 5.505,-8.69349 z m 3.65141,0.0219 c 0,2.98004 -0.76232,5.4601 -2.28358,7.43981 -1.67433,2.21771 -3.98562,3.33032 -6.93834,3.33032 -2.92539,0 -5.20559,-1.11261 -6.85224,-3.33032 -1.49207,-1.98083 -2.23605,-4.46089 -2.23605,-7.43981 0,-2.80152 0.8061,-5.15696 2.4183,-7.07679 1.70353,-2.03546 3.94444,-3.05676 6.71004,-3.05676 2.7686,0 5.02224,1.0213 6.7587,3.05676 1.6122,1.91871 2.41831,4.27377 2.41831,7.07679 z"
       style="fill:#ffb727;fill-opacity:1;stroke-width:0.264583"
       id="path4350" /><path
       d="m 775.85489,529.68851 h -3.33406 v -13.59972 c 0,-1.49206 -0.44873,-2.65556 -1.34617,-3.4946 -0.8974,-0.8353 -2.09382,-1.24022 -3.58553,-1.20728 -1.58301,0.0291 -3.08969,0.54713 -4.52077,1.55045 v 16.75078 h -3.33405 v -17.16245 c 1.9187,-1.39702 3.68434,-2.30901 5.29541,-2.73565 1.52129,-0.39744 2.86329,-0.59466 4.01931,-0.59466 0.7915,0 1.53587,0.0767 2.23603,0.22982 1.30944,0.30276 2.37456,0.86449 3.19523,1.68892 0.91575,0.91202 1.37162,2.00628 1.37162,3.28654 v 15.28751 z"
       style="fill:#ffb727;fill-opacity:1;stroke-width:0.264583"
       id="path4352" /><path
       d="m 719.05432,416.54576 c -2.64817,0.0131 -5.17676,0.23815 -7.40034,0.63202 -6.55689,1.15828 -7.74695,3.58172 -7.74695,8.05312 v 5.90409 h 15.48813 v 1.96765 h -15.48813 -5.81166 c -4.50143,0 -8.44595,2.70594 -9.67647,7.85094 -1.42228,5.89832 -1.48525,9.58403 0,15.74232 1.10111,4.58577 3.73079,7.85092 8.23224,7.85092 h 5.32581 v -7.07681 c 0,-5.11266 4.42343,-9.62448 9.67646,-9.62448 h 15.47079 c 4.30676,0 7.74695,-3.54592 7.74695,-7.86828 v -14.74866 c 0,-4.19756 -3.54129,-7.34834 -7.74695,-8.05312 -2.66088,-0.44294 -5.4217,-0.64414 -8.07046,-0.63201 z m -8.37664,4.74811 c 1.60022,0 2.90641,1.32814 2.90641,2.96071 0,1.62681 -1.30677,2.94281 -2.90641,2.94281 -1.60543,0 -2.90641,-1.3154 -2.90641,-2.94281 0,-1.63257 1.30098,-2.96071 2.90641,-2.96071 z"
       style="fill:#ffb727;fill-opacity:1;stroke-width:0.264583"
       id="path4354" /><path
       d="m 736.80126,433.09802 v 6.88039 c 0,5.33275 -4.52109,9.8209 -9.67647,9.8209 h -15.47081 c -4.238,0 -7.74695,3.62679 -7.74695,7.86825 v 14.7487 c 0,4.19755 3.65048,6.66664 7.74695,7.86825 4.90294,1.44194 9.60716,1.70249 15.47081,0 3.89945,-1.12881 7.74695,-3.40148 7.74695,-7.86825 v -5.90409 h -15.4708 v -1.96767 h 15.4708 7.74694 c 4.50143,0 6.18138,-3.13979 7.74695,-7.85092 1.61698,-4.8521 1.54825,-9.5205 0,-15.74232 -1.11264,-4.48121 -3.23742,-7.85094 -7.74695,-7.85094 h -5.81166 z m -8.70017,37.35404 c 1.60543,0 2.90641,1.31543 2.90641,2.94281 0,1.63257 -1.30098,2.9607 -2.90641,2.9607 -1.60022,0 -2.90641,-1.32813 -2.90641,-2.9607 0,-1.62681 1.30677,-2.94281 2.90641,-2.94281 z"
       style="fill:#ffb727;fill-opacity:1;stroke-width:0.264583"
       id="path4356" /></g></svg>
