<?xml version="1.0" encoding="UTF-8" standalone="no"?>
<!-- Created with Inkscape (http://www.inkscape.org/) -->

<svg
   width="206.28894mm"
   height="159.31708mm"
   viewBox="0 0 206.28894 159.31708"
   version="1.1"
   id="svg5"
   inkscape:version="1.1.1 (3bf5ae0d25, 2021-09-20)"
   sodipodi:docname="dessin-1.svg"
   xml:space="preserve"
   xmlns:inkscape="http://www.inkscape.org/namespaces/inkscape"
   xmlns:sodipodi="http://sodipodi.sourceforge.net/DTD/sodipodi-0.dtd"
   xmlns="http://www.w3.org/2000/svg"
   xmlns:svg="http://www.w3.org/2000/svg"><sodipodi:namedview
     id="namedview7"
     pagecolor="#ffffff"
     bordercolor="#999999"
     borderopacity="1"
     inkscape:pageshadow="0"
     inkscape:pageopacity="0"
     inkscape:pagecheckerboard="0"
     inkscape:document-units="mm"
     showgrid="false"
     inkscape:snap-global="false"
     inkscape:zoom="0.22645918"
     inkscape:cx="1671.3829"
     inkscape:cy="-794.84523"
     inkscape:window-width="2880"
     inkscape:window-height="1586"
     inkscape:window-x="2869"
     inkscape:window-y="-11"
     inkscape:window-maximized="1"
     inkscape:current-layer="layer1"
     inkscape:showpageshadow="0"
     inkscape:deskcolor="#d1d1d1"
     showguides="true"><sodipodi:guide
       position="-1180.9256,169.12963"
       orientation="0,-1"
       id="guide1923"
       inkscape:locked="false" /><sodipodi:guide
       position="-1079.2793,-1.4493034"
       orientation="0,-1"
       id="guide1925"
       inkscape:locked="false" /><sodipodi:guide
       position="-1148.7961,59.304835"
       orientation="0,-1"
       id="guide1927"
       inkscape:locked="false" /></sodipodi:namedview><defs
     id="defs2" /><g
     inkscape:label="Calque 1"
     inkscape:groupmode="layer"
     id="layer1"
     transform="translate(-1259.7892,-382.51586)"><path
       style="fill:#ffb727;fill-opacity:1;stroke-width:0.999998"
       d="m 1438.7742,541.77442 -19.8682,0.0585 -7.1157,-13.37064 -7.1157,-13.37064 -0.094,-0.0359 -0.094,-0.036 -1.4501,0.4117 -1.4501,0.41171 -1.6995,0.43822 -1.6994,0.43822 -1.6074,0.36915 -1.6073,0.36914 -1.7917,0.36549 -1.7917,0.36549 -1.74,0.31494 -1.74,0.31494 -2.1446,0.32515 -2.1446,0.32514 -1.8008,0.22247 -1.8006,0.22246 v 10.9097 10.9097 h -17.6426 -17.6426 v -10.96847 -10.96847 l -0.1012,-0.0292 -0.1011,-0.0292 -2.2453,-0.29696 -2.2451,-0.29696 -2.1655,-0.35953 -2.1654,-0.35951 -2.3967,-0.48306 -2.3966,-0.48307 -1.7713,-0.41283 -1.7711,-0.41282 -1.8422,-0.48114 -1.8421,-0.48115 -1.835,-0.53025 -1.835,-0.53025 -2.2307,-0.73172 -2.2308,-0.73171 -1.4567,-0.52517 -1.4567,-0.52515 -1.6558,-0.64817 -1.6559,-0.64817 -1.6622,-0.71037 -1.6623,-0.71037 -1.4568,-0.66636 -1.4567,-0.66636 -1.843,-0.92207 -1.843,-0.92205 -1.6773,-0.91838 -1.6774,-0.91839 -1.295,-0.76675 -1.2948,-0.76675 -1.0116,-0.63279 -1.0117,-0.63279 -1.3353,-0.89141 -1.3353,-0.8914 -1.133,-0.81115 -1.133,-0.81116 -1.3245,-1.01223 -1.3245,-1.01223 -1.3057,-1.08797 -1.3057,-1.08794 -1.0509,-0.93917 -1.0507,-0.93914 -1.4474,-1.41627 -1.4474,-1.41626 -1.1474,-1.25441 -1.1474,-1.2544 -0.6894,-0.8093 -0.6896,-0.80929 -0.6494,-0.80929 -0.6495,-0.8093 -0.8711,-1.17347 -0.8711,-1.17348 -0.9118,-1.3758 -0.912,-1.3758 -0.6083,-1.01904 -0.6084,-1.01904 -0.6954,-1.28745 -0.6954,-1.28744 -0.6403,-1.3758 -0.6403,-1.3758 -0.6104,-1.53766 -0.6106,-1.53765 -0.4149,-1.25441 -0.415,-1.2544 -0.3977,-1.48633 -0.3978,-1.48633 -0.2793,-1.38667 -0.2793,-1.38666 -0.1649,-1.13301 -0.1651,-1.13301 -0.1385,-1.29488 -0.1386,-1.29486 -0.01,-2.99439 -0.01,-2.99439 0.1056,-1.13301 0.1054,-1.13301 0.2052,-1.45673 0.2052,-1.45672 0.2793,-1.37581 0.2794,-1.37579 0.3273,-1.2544 0.3273,-1.2544 0.5295,-1.6186 0.5295,-1.61859 0.5584,-1.39572 0.5582,-1.39572 0.6491,-1.3941 0.649,-1.3941 0.6557,-1.21618 0.6557,-1.21618 0.7272,-1.21394 0.7272,-1.21394 0.9876,-1.46578 0.9876,-1.46577 0.9352,-1.24536 0.9353,-1.24536 1.0614,-1.27083 1.0615,-1.27083 0.8647,-0.95473 0.8647,-0.95472 1.6231,-1.62351 1.6231,-1.62351 1.2139,-1.09026 1.214,-1.09028 1.2139,-1.01023 1.214,-1.01024 1.052,-0.81792 1.0522,-0.81793 1.052,-0.7658 1.0521,-0.76582 1.0521,-0.72633 1.0521,-0.72633 1.2544,-0.8121 1.2543,-0.8121 1.3354,-0.80821 1.3353,-0.80821 1.2499,-0.71039 1.2498,-0.71038 1.9874,-1.04069 1.9873,-1.04069 2.0637,-0.96526 2.0637,-0.96527 1.74,-0.74477 1.7399,-0.74478 1.6187,-0.63087 1.6185,-0.63086 1.4972,-0.54568 1.4972,-0.54568 1.8063,-0.59742 1.8064,-0.59743 1.8759,-0.55996 1.8759,-0.55997 1.6996,-0.45598 1.6995,-0.45599 1.6344,-0.3961 1.6345,-0.39609 1.886,-0.40386 1.8859,-0.40387 1.5377,-0.29091 1.5377,-0.29091 1.4162,-0.23543 1.4163,-0.23543 1.3353,-0.20104 1.3354,-0.20104 1.6185,-0.20374 1.6187,-0.20374 0.7283,-0.0831 0.7284,-0.0832 1.6185,-0.1587 1.6186,-0.15871 1.74,-0.12629 1.74,-0.12628 1.3354,-0.0778 1.3352,-0.0778 3.4995,-0.0979 3.4995,-0.0979 3.5413,0.0975 3.5415,0.0975 1.9827,0.11937 1.9828,0.11937 1.4972,0.12234 1.4972,0.12236 1.6186,0.16283 1.6186,0.16285 2.2255,0.28448 2.2256,0.2845 2.0637,0.32682 2.0637,0.32681 1.74,0.3207 1.7399,0.32071 1.9019,0.40548 1.9018,0.40549 2.2661,0.55518 2.2659,0.55518 1.7805,0.49575 1.7804,0.49575 1.8377,0.56505 1.8377,0.56505 1.8042,0.6147 1.8041,0.61471 1.5781,0.58982 1.5781,0.58982 1.2251,0.48952 1.225,0.48952 1.4052,0.60222 1.4051,0.60223 1.5782,0.72667 1.5781,0.72666 1.5782,0.78947 1.578,0.78947 1.0521,0.56756 1.0521,0.56756 1.2949,0.73069 1.2949,0.73069 1.3353,0.80641 1.3354,0.80642 1.8613,1.23251 1.8614,1.23251 1.1734,0.8457 1.1735,0.84569 1.0926,0.83939 1.0925,0.83937 1.0116,0.82364 1.0116,0.82364 1.3758,1.20268 1.3759,1.20268 2.032,2.02565 2.032,2.02565 1.0028,1.13886 1.0028,1.13886 0.858,1.04623 0.858,1.04624 0.9111,1.21394 0.9111,1.21394 1.0751,1.61859 1.0751,1.61858 0.7117,1.21395 0.7115,1.21394 0.9426,1.86137 0.9425,1.86138 0.5295,1.2544 0.5296,1.25441 0.4883,1.33533 0.4883,1.33533 0.3361,1.09255 0.3362,1.09255 0.3548,1.41626 0.3547,1.41626 0.2033,1.05587 0.2033,1.05587 0.2024,1.41247 0.2024,1.41249 0.1043,1.05207 0.1044,1.05209 v 3.19671 3.1967 l -0.1413,1.25441 -0.1413,1.2544 -0.1662,1.13302 -0.1663,1.13301 -0.2306,1.13301 -0.2305,1.13301 -0.1704,0.72836 -0.1705,0.72837 -0.3687,1.29042 -0.3688,1.29041 -0.4061,1.17793 -0.4061,1.17793 -0.4699,1.17348 -0.4697,1.17347 -0.3682,0.82557 -0.3682,0.82558 -0.6197,1.23813 -0.6198,1.23812 -0.6106,1.09254 -0.6107,1.09255 -0.5246,0.84976 -0.5247,0.84976 -0.73,1.09254 -0.73,1.09255 -0.7321,1.01162 -0.7322,1.01162 -1.1043,1.3758 -1.1042,1.37579 -0.9595,1.09255 -0.9593,1.09254 -1.6613,1.6876 -1.6614,1.68759 -1.1734,1.07688 -1.1735,1.07689 -1.2544,1.0615 -1.2544,1.06151 -1.1734,0.91861 -1.1735,0.91861 -1.4212,1.04185 -1.4211,1.04186 -1.3451,0.89022 -1.3452,0.89023 0.038,0.11553 0.038,0.11553 11.8991,20.06416 11.899,20.06417 -0.026,0.0237 -0.026,0.0237 z m -57.0349,-37.72095 1.7197,-0.0391 2.2256,-0.0807 2.2255,-0.0807 1.9423,-0.12088 1.9423,-0.12088 1.4163,-0.12044 1.4163,-0.12046 1.6185,-0.16771 1.6186,-0.16771 0.012,-0.0131 0.013,-0.013 -0.805,-1.12454 -0.8051,-1.12453 -0.6761,-0.82207 -0.6761,-0.82208 -0.458,-0.41853 -0.458,-0.41852 -0.8252,-0.62219 -0.8252,-0.62219 -0.5688,-0.27056 -0.5688,-0.27056 -0.5642,-0.11952 -0.5642,-0.11951 -5.0379,-0.002 -5.0378,-0.002 v 3.92073 3.92074 l 1.7197,-0.0391 z m -37.0658,-4.65254 0.06,0.006 0.02,-36.96449 0.02,-36.96447 35.0425,-0.0241 35.0424,-0.0242 1.3353,0.0882 1.3354,0.0882 1.4162,0.20179 1.4162,0.20179 1.214,0.24255 1.2139,0.24255 1.2545,0.32521 1.2544,0.3252 1.5377,0.51449 1.5375,0.51451 1.0838,0.45782 1.0836,0.45783 1.2633,0.63392 1.2633,0.63393 1.0551,0.63991 1.0552,0.63991 0.8398,0.59539 0.8396,0.59539 0.9377,0.78154 0.9377,0.78156 0.8705,0.87165 0.8707,0.87165 0.593,0.70092 0.5929,0.70091 0.578,0.78113 0.578,0.78113 0.4975,0.79699 0.4974,0.797 0.4716,0.89022 0.4716,0.89022 0.4144,0.9665 0.4143,0.96652 0.3588,1.04727 0.3587,1.04727 0.2788,1.06154 0.2789,1.06153 0.2004,1.05208 0.2005,1.05208 0.1266,1.01162 0.1266,1.01162 0.082,1.09254 0.082,1.09255 v 1.82092 1.8209 l -0.083,1.13301 -0.083,1.13301 -0.1607,1.2319 -0.1606,1.23189 -0.2041,1.03413 -0.2042,1.03413 -0.2762,1.05208 -0.2762,1.05208 -0.4063,1.18856 -0.4063,1.18855 -0.5303,1.20343 -0.5302,1.20343 -0.4705,0.84519 -0.4705,0.84519 -0.4598,0.74247 -0.4598,0.74248 -0.8388,1.1189 -0.8387,1.1189 -0.8053,0.89023 -0.8051,0.89022 -0.6704,0.62928 -0.6703,0.62928 -0.6991,0.58938 -0.6993,0.58938 -0.6488,0.49033 -0.6487,0.49033 -1.0507,0.68956 -1.0508,0.68955 -0.8026,0.46038 -0.8026,0.46038 -0.9556,0.479 -0.9556,0.47901 -1.1257,0.48151 -1.1257,0.48152 -1.2707,0.4519 -1.2706,0.45192 -1.4201,0.40274 -1.4202,0.40274 -1.5793,0.32141 -1.5793,0.3214 -0.8297,0.0964 -0.8296,0.0965 2.1162,0.70694 2.1163,0.70694 1.4163,0.54472 1.4163,0.54472 0.8436,0.35965 0.8436,0.35965 0.8155,0.40904 0.8153,0.40904 0.7883,0.47602 0.7884,0.47602 0.7415,-0.37242 0.7416,-0.37243 1.1812,-0.65284 1.1813,-0.65283 1.1735,-0.72558 1.1734,-0.72558 0.8903,-0.61198 0.8902,-0.61198 0.9572,-0.72091 0.9572,-0.72091 0.9446,-0.78681 0.9447,-0.78682 0.8498,-0.80854 0.8497,-0.80855 0.9307,-0.96921 0.9307,-0.9692 0.6429,-0.76655 0.643,-0.76654 0.8372,-1.12695 0.8372,-1.12694 0.5931,-0.93676 0.5931,-0.93675 0.4222,-0.72837 0.4222,-0.72835 0.6325,-1.29488 0.6324,-1.29486 0.5266,-1.33534 0.5267,-1.33533 0.3353,-1.05209 0.3354,-1.05208 0.3151,-1.25441 0.3152,-1.2544 0.2028,-1.09255 0.2028,-1.09254 0.1253,-0.89022 0.1253,-0.89022 0.1217,-1.29037 0.1217,-1.29035 0.051,-1.86589 0.051,-1.86588 -0.094,-1.61859 -0.094,-1.6186 -0.1193,-1.09254 -0.1194,-1.09254 -0.1635,-1.00889 -0.1635,-1.00887 -0.2014,-0.97389 -0.2015,-0.97389 -0.2791,-1.05209 -0.279,-1.05207 -0.3634,-1.10306 -0.3633,-1.10305 -0.4147,-1.04158 -0.4148,-1.04156 -0.6262,-1.29488 -0.626,-1.29486 -0.5521,-0.97116 -0.5519,-0.97115 -0.6667,-1.01162 -0.6666,-1.01161 -0.7288,-0.97116 -0.7288,-0.97115 -0.8333,-0.97115 -0.8333,-0.97116 -1.2601,-1.26005 -1.2601,-1.26006 -0.971,-0.83108 -0.9712,-0.83109 -0.9564,-0.74138 -0.9563,-0.74139 -0.9357,-0.65554 -0.9358,-0.65555 -1.0381,-0.66074 -1.0382,-0.66074 -1.2781,-0.73107 -1.2781,-0.73105 -1.7804,-0.88 -1.7805,-0.88 -1.4972,-0.6434 -1.4972,-0.6434 -1.6185,-0.60863 -1.6186,-0.60863 -1.74,-0.56835 -1.74,-0.56837 -1.4162,-0.40646 -1.4164,-0.40647 -1.2543,-0.3238 -1.2544,-0.32381 -1.4163,-0.32237 -1.4163,-0.32237 -1.8613,-0.36398 -1.8614,-0.36398 -1.7399,-0.28857 -1.7401,-0.28856 -2.1041,-0.27949 -2.1042,-0.27949 -1.9828,-0.20635 -1.9827,-0.20635 -2.1042,-0.15987 -2.1042,-0.15986 -1.5781,-0.0841 -1.5781,-0.0841 -2.347,-0.0803 -2.3469,-0.0804 -3.1158,7.3e-4 -3.1158,7.3e-4 -2.0637,0.081 -2.0637,0.081 -1.8209,0.12168 -1.8209,0.12166 -1.2948,0.12046 -1.2949,0.12046 -1.133,0.12567 -1.133,0.12568 -2.0637,0.28166 -2.0637,0.28167 -1.8614,0.31794 -1.8614,0.31795 -1.7804,0.36302 -1.7805,0.36303 -1.2544,0.28944 -1.2544,0.28944 -1.5781,0.40897 -1.5782,0.40896 -1.4975,0.43207 -1.4977,0.43206 -1.6586,0.54153 -1.6587,0.54153 -1.4567,0.52549 -1.4567,0.5255 -1.3758,0.5497 -1.3758,0.5497 -1.133,0.48733 -1.133,0.48732 -1.5782,0.73992 -1.578,0.73992 -1.2544,0.65646 -1.2545,0.65647 -1.3766,0.78393 -1.3768,0.78393 -1.0709,0.66361 -1.071,0.66361 -1.0322,0.6959 -1.0324,0.69589 -0.7283,0.5237 -0.7284,0.5237 -1.133,0.87517 -1.133,0.87515 -1.0522,0.90069 -1.052,0.90068 -1.0377,0.9768 -1.0377,0.97681 -1.0136,1.09185 -1.0137,1.09185 -0.782,0.9399 -0.7821,0.93992 -0.7084,0.94838 -0.7083,0.94837 -0.6719,1.03439 -0.6721,1.03439 -0.5561,0.97116 -0.5561,0.97115 -0.5438,1.13301 -0.5439,1.13301 -0.3264,0.81915 -0.3263,0.81915 -0.2821,0.81047 -0.2821,0.81047 -0.2858,1.04105 -0.2858,1.04105 -0.2019,1.01162 -0.2019,1.01161 -0.1334,0.97115 -0.1335,0.97116 -0.043,2.07895 -0.043,2.07895 0.098,1.0773 0.098,1.07729 0.1963,1.17347 0.1964,1.17348 0.2368,0.97115 0.2369,0.97116 0.2816,0.89022 0.2816,0.89023 0.22,0.60696 0.2199,0.60697 0.3625,0.84976 0.3625,0.84976 0.6,1.20041 0.5999,1.2004 0.6172,1.02515 0.6172,1.02515 0.462,0.6879 0.4619,0.6879 0.7277,0.97565 0.7278,0.97564 0.841,1.00713 0.841,1.00712 1.4573,1.48613 1.4574,1.48611 1.0116,0.90846 1.0116,0.90846 0.9712,0.79733 0.9711,0.79734 1.2949,0.96655 1.2949,0.96654 1.6185,1.06985 1.6187,1.06984 1.0925,0.65263 1.0925,0.65261 1.2544,0.69958 1.2545,0.69957 1.9423,0.95819 1.9423,0.9582 1.3805,0.60961 1.3806,0.60963 1.4924,0.60524 1.4925,0.60525 1.9018,0.68692 1.9018,0.68691 1.8614,0.58065 1.8613,0.58066 0.2024,0.0685 0.2023,0.0684 0.06,0.006 z m 46.8582,-28.9875 11.1885,-0.0261 0.7688,-0.17959 0.7688,-0.1796 0.6474,-0.21379 0.6475,-0.21378 0.5892,-0.26744 0.5894,-0.26742 0.6691,-0.43623 0.6692,-0.4362 0.5439,-0.50879 0.544,-0.50878 0.4032,-0.53542 0.4033,-0.53542 0.3537,-0.6879 0.3536,-0.68789 0.209,-0.64745 0.2092,-0.64743 0.1451,-0.6879 0.145,-0.6879 v -1.69952 -1.69951 l -0.1822,-0.84439 -0.1822,-0.84438 -0.2765,-0.7157 -0.2763,-0.71569 -0.3198,-0.54408 -0.3198,-0.54408 -0.4428,-0.53371 -0.4427,-0.53371 -0.6491,-0.51931 -0.6491,-0.51931 -0.6341,-0.3356 -0.6342,-0.3356 -0.7283,-0.25608 -0.7284,-0.25607 -0.7283,-0.17316 -0.7284,-0.17318 -11.5527,-0.0254 -11.5526,-0.0254 v 9.83749 9.83749 l 11.1884,-0.0261 z"
       id="path4759" /></g></svg>
