<?xml version="1.0" standalone="no"?>
<!DOCTYPE svg PUBLIC "-//W3C//DTD SVG 20010904//EN"
 "http://www.w3.org/TR/2001/REC-SVG-20010904/DTD/svg10.dtd">
<svg version="1.0" xmlns="http://www.w3.org/2000/svg"
 width="1052.000000pt" height="1052.000000pt" viewBox="0 0 1052.000000 1052.000000"
 preserveAspectRatio="xMidYMid meet">
<metadata>
Created by potrace 1.14, written by Peter Selinger 2001-2017
</metadata>
<g transform="translate(0.000000,1052.000000) scale(0.100000,-0.100000)"
fill="#000000" stroke="none">
<path d="M5113 10331 c-47 -47 -80 -92 -104 -139 -18 -39 -37 -71 -41 -71 -4
-1 -26 19 -49 44 -23 25 -47 45 -53 45 -18 0 -81 -99 -105 -165 -28 -74 -34
-174 -16 -251 18 -74 18 -79 1 -65 -23 19 -221 79 -283 86 -32 4 -62 8 -68 9
-15 2 -15 -92 1 -162 38 -168 147 -283 330 -347 l63 -22 -107 -6 c-180 -11
-359 -57 -532 -139 -83 -39 -249 -144 -301 -190 -78 -69 -122 -112 -185 -185
-109 -125 -114 -132 -196 -246 -281 -391 -446 -790 -502 -1210 -16 -116 -18
-410 -5 -537 61 -571 363 -1181 866 -1752 l104 -118 -1023 0 -1024 0 -12 -32
c-18 -47 -93 -270 -97 -288 -2 -8 -15 -60 -29 -115 -41 -157 -77 -333 -92
-460 -3 -22 -7 -53 -9 -70 -3 -16 -8 -69 -11 -116 l-7 -85 143 0 c78 1 145 -1
148 -4 4 -3 7 -122 7 -265 0 -256 6 -387 26 -535 6 -41 12 -91 15 -110 2 -19
9 -60 14 -90 5 -30 12 -71 15 -90 3 -19 17 -84 31 -145 13 -60 26 -119 28
-130 37 -185 185 -628 301 -900 125 -294 333 -682 509 -950 102 -154 136 -192
213 -236 106 -61 0 -58 2198 -56 1882 3 2013 4 2054 20 118 47 177 102 276
252 526 804 863 1721 939 2560 14 155 18 244 17 420 -1 105 -2 204 -4 222 -4
40 -5 39 162 37 l134 -1 -6 81 c-3 45 -11 117 -17 161 -6 44 -13 98 -15 120
-6 44 -6 45 -30 155 -9 41 -18 84 -21 96 -16 84 -82 314 -119 421 -25 70 -45
129 -45 130 0 2 -461 4 -1025 5 l-1024 3 52 55 c182 190 412 503 559 760 188
328 319 708 354 1025 3 33 8 69 10 80 9 43 4 355 -6 445 -62 552 -347 1128
-778 1573 -265 275 -647 437 -1031 437 l-114 0 72 36 c159 79 261 239 261 406
l0 49 -47 -6 c-27 -3 -64 -8 -83 -11 -41 -5 -138 -28 -162 -39 -15 -6 -16 -3
-2 47 28 105 14 230 -36 328 -29 58 -69 110 -84 110 -6 0 -31 -23 -55 -50
l-44 -50 -35 72 c-25 52 -56 94 -107 146 -40 39 -77 72 -83 72 -5 0 -41 -31
-79 -69z"/>
</g>
</svg>
