<?xml version="1.0" encoding="UTF-8" standalone="no"?>
<!-- Created with Inkscape (http://www.inkscape.org/) -->

<svg
   width="81.159454mm"
   height="120.48373mm"
   viewBox="0 0 81.159454 120.48373"
   version="1.1"
   id="svg5"
   inkscape:version="1.2.2 (732a01da63, 2022-12-09)"
   sodipodi:docname="dessin-1.svg"
   xml:space="preserve"
   xmlns:inkscape="http://www.inkscape.org/namespaces/inkscape"
   xmlns:sodipodi="http://sodipodi.sourceforge.net/DTD/sodipodi-0.dtd"
   xmlns="http://www.w3.org/2000/svg"
   xmlns:svg="http://www.w3.org/2000/svg"><sodipodi:namedview
     id="namedview7"
     pagecolor="#ffffff"
     bordercolor="#999999"
     borderopacity="1"
     inkscape:pageshadow="0"
     inkscape:pageopacity="0"
     inkscape:pagecheckerboard="0"
     inkscape:document-units="mm"
     showgrid="false"
     inkscape:snap-global="false"
     inkscape:zoom="0.7096503"
     inkscape:cx="4040.7226"
     inkscape:cy="3352.3554"
     inkscape:window-width="2880"
     inkscape:window-height="1586"
     inkscape:window-x="2869"
     inkscape:window-y="-11"
     inkscape:window-maximized="1"
     inkscape:current-layer="layer1"
     inkscape:showpageshadow="0"
     inkscape:deskcolor="#d1d1d1"
     showguides="true"><sodipodi:guide
       position="-326.00037,165.50695"
       orientation="0,-1"
       id="guide1923"
       inkscape:locked="false" /><sodipodi:guide
       position="-224.35401,-5.0719929"
       orientation="0,-1"
       id="guide1925"
       inkscape:locked="false" /><sodipodi:guide
       position="-293.87077,55.68215"
       orientation="0,-1"
       id="guide1927"
       inkscape:locked="false" /></sodipodi:namedview><defs
     id="defs2" /><g
     inkscape:label="Calque 1"
     inkscape:groupmode="layer"
     id="layer1"
     transform="translate(-404.8639,-417.72652)"><path
       style="fill:#ffb727;fill-opacity:1;stroke-width:0.999999"
       d="m 433.86103,482.0517 c -9.44558,-0.98634 -17.87421,-4.35988 -19.12726,-7.65564 -0.30256,-0.79584 -0.35468,-7.99866 -0.0569,-7.86272 0.11098,0.0506 1.17041,0.58845 2.35427,1.19511 11.96903,6.13338 36.73081,6.13338 48.69984,0 1.18387,-0.60666 2.24328,-1.14445 2.35427,-1.19511 0.2978,-0.13594 0.24568,7.06688 -0.0569,7.86272 -2.03246,5.34576 -19.27975,9.21024 -34.16735,7.65564 z m -1.02919,-15.45264 c -13.30094,-1.61099 -18.16221,-4.64763 -18.30886,-11.43682 -0.0866,-4.0112 -0.0866,-4.0112 1.91383,-2.93216 11.87269,6.40405 38.01583,6.40405 49.88852,0 4.11155,-2.21774 2.64215,7.46656 -1.51414,9.97913 -6.51755,3.94002 -20.19352,5.81733 -31.97935,4.38985 z m 2.89898,-14.94645 c -8.28596,-0.67267 -15.76846,-2.84379 -19.04015,-5.52469 -2.73746,-2.24314 -3.6164,-11.17135 -0.93755,-9.52358 11.0398,6.79059 40.21611,6.79059 51.2559,0 2.67886,-1.64777 1.79992,7.28044 -0.93755,9.52358 -4.98509,4.0849 -18.27252,6.50439 -30.34065,5.52469 z m 0.53812,-15.18944 c -0.51795,-0.0602 -2.09195,-0.23898 -3.49778,-0.39741 -18.95873,-2.13651 -24.41412,-10.85912 -9.82254,-15.70523 22.2515,-7.3901 56.76583,2.15927 41.6414,11.52129 -5.13527,3.17873 -19.87163,5.56255 -28.32108,4.58135 z"
       id="path4136"
       inkscape:export-filename="..\Documents\Luciana web site\Luciana\assets\img\sql.svg"
       inkscape:export-xdpi="90"
       inkscape:export-ydpi="90" /><path
       d="m 426.10909,520.79675 c 0,3.11331 -1.12161,5.52366 -3.36829,7.23106 -2.24668,1.70741 -5.34448,2.56369 -9.302,2.56369 -3.36657,0 -6.18008,-0.6099 -8.44054,-1.83145 v -7.32409 c 2.60848,2.22772 5.4823,3.34244 8.62144,3.34244 1.51617,0 2.68947,-0.30496 3.51647,-0.91659 0.827,-0.61163 1.24049,-1.41796 1.24049,-2.42758 0,-0.99068 -0.39798,-1.85213 -1.19398,-2.58437 -0.79598,-0.73224 -2.41551,-1.67812 -4.85688,-2.83763 -4.97577,-2.34661 -7.46193,-5.55467 -7.46193,-9.60869 0,-2.94272 1.08371,-5.30312 3.25457,-7.08116 2.17087,-1.77804 5.04987,-2.66534 8.64213,-2.66534 3.18567,0 5.82172,0.42211 7.91851,1.25945 v 6.84168 c -2.19844,-1.5265 -4.70183,-2.28803 -7.50673,-2.28803 -1.40934,0 -2.52407,0.29979 -3.34245,0.90109 a 2.8428041,2.8428041 0 0 0 -1.22671,2.41379 c 0,1.03719 0.32908,1.88831 0.99067,2.55164 0.6616,0.66332 2.01236,1.48342 4.05918,2.46031 3.04955,1.45069 5.22042,2.92034 6.5195,4.41583 1.29907,1.49549 1.93827,3.35968 1.93827,5.58395 z m 35.09571,-7.41197 c 0,3.85933 -0.87352,7.21039 -2.61711,10.04458 -1.74358,2.8342 -4.20045,4.82588 -7.36889,5.97162 l 9.46051,8.80924 h -9.55182 l -6.75553,-7.62044 c -2.89623,-0.10509 -5.50987,-0.87696 -7.83753,-2.31042 -2.32766,-1.43347 -4.12637,-3.39758 -5.39099,-5.89236 -1.26462,-2.49478 -1.90038,-5.27555 -1.90038,-8.34061 0,-3.40104 0.68572,-6.43335 2.05717,-9.09525 1.37143,-2.6619 3.30109,-4.71044 5.78898,-6.1439 2.48788,-1.43347 5.33585,-2.1502 8.55425,-2.1502 2.99959,0 5.68905,0.69434 8.06323,2.083 2.37417,1.38867 4.21424,3.3614 5.5271,5.92509 1.31286,2.56369 1.97101,5.47025 1.97101,8.71794 z m -7.73243,0.4135 c 0,-3.32694 -0.72018,-5.95266 -2.16225,-7.88403 -1.44208,-1.93139 -3.41137,-2.89623 -5.91475,-2.89623 -2.54819,0 -4.5864,0.96828 -6.11979,2.90311 -1.5334,1.93483 -2.29664,4.51576 -2.29664,7.73415 0,3.20463 0.74947,5.76142 2.25013,7.67558 1.50065,1.91415 3.49406,2.87036 5.98194,2.87036 2.5344,0 4.5416,-0.92692 6.02847,-2.77905 1.48687,-1.85213 2.23289,-4.39342 2.23289,-7.6256 z m 32.55097,16.2195 h -19.42582 v -32.80941 h 7.34648 v 26.81539 h 12.07762 z"
       stroke="none"
       id="path4188"
       style="fill:#ffb727;fill-opacity:1;stroke-width:0.0231529" /></g></svg>
