<?xml version="1.0" encoding="UTF-8" standalone="no"?>
<!-- Created with Inkscape (http://www.inkscape.org/) -->

<svg
   width="210.51849mm"
   height="170.14804mm"
   viewBox="0 0 210.51849 170.14804"
   version="1.1"
   id="svg5"
   inkscape:version="1.1.1 (3bf5ae0d25, 2021-09-20)"
   sodipodi:docname="dessin-1.svg"
   xml:space="preserve"
   xmlns:inkscape="http://www.inkscape.org/namespaces/inkscape"
   xmlns:sodipodi="http://sodipodi.sourceforge.net/DTD/sodipodi-0.dtd"
   xmlns="http://www.w3.org/2000/svg"
   xmlns:svg="http://www.w3.org/2000/svg"><sodipodi:namedview
     id="namedview7"
     pagecolor="#ffffff"
     bordercolor="#999999"
     borderopacity="1"
     inkscape:pageshadow="0"
     inkscape:pageopacity="0"
     inkscape:pagecheckerboard="0"
     inkscape:document-units="mm"
     showgrid="false"
     inkscape:snap-global="false"
     inkscape:zoom="0.22645918"
     inkscape:cx="1671.3829"
     inkscape:cy="-794.84523"
     inkscape:window-width="2880"
     inkscape:window-height="1586"
     inkscape:window-x="2869"
     inkscape:window-y="-11"
     inkscape:window-maximized="1"
     inkscape:current-layer="layer1"
     inkscape:showpageshadow="0"
     inkscape:deskcolor="#d1d1d1"
     showguides="true"><sodipodi:guide
       position="-875.3859,173.6021"
       orientation="0,-1"
       id="guide1923"
       inkscape:locked="false" /><sodipodi:guide
       position="-773.73955,3.0231698"
       orientation="0,-1"
       id="guide1925"
       inkscape:locked="false" /><sodipodi:guide
       position="-843.25631,63.777308"
       orientation="0,-1"
       id="guide1927"
       inkscape:locked="false" /></sodipodi:namedview><defs
     id="defs2" /><g
     inkscape:label="Calque 1"
     inkscape:groupmode="layer"
     id="layer1"
     transform="translate(-954.24947,-376.15737)"><path
       style="fill:#ffb727;fill-opacity:1;stroke-width:1"
       d="m 1000.6948,546.3007 -2.93911,-0.005 -1.9363,-2.27883 -1.9364,-2.27882 -0.9242,-0.96912 -0.9242,-0.96912 -0.445,-0.32871 -0.445,-0.32871 -0.3869,-0.16586 -0.3869,-0.16585 -0.9801,-0.1754 -0.9801,-0.17539 -0.7998,-0.20722 -0.7998,-0.20722 -0.7577,-0.25161 -0.7577,-0.2516 -1.0103,-0.4874 -1.0103,-0.48741 -0.5893,-0.38293 -0.5893,-0.38293 -0.6723,-0.56383 -0.6723,-0.56383 -0.6181,-0.68379 -0.6182,-0.6838 -0.5888,-0.88051 -0.5888,-0.88051 -0.4029,-0.80742 -0.403,-0.80742 -0.3052,-0.92609 -0.3052,-0.92609 -0.2487,-1.05238 -0.2488,-1.05238 -0.1327,-0.90253 -0.1328,-0.90254 -0.092,-1.11803 -0.092,-1.11803 0.049,-1.30495 0.049,-1.30494 0.1328,-1.01028 0.1327,-1.01028 0.206,-0.91351 0.2061,-0.9135 0.286,-0.85488 0.2861,-0.8549 0.3499,-0.777 0.3498,-0.77701 0.42,-0.71363 0.4201,-0.71364 0.5149,-0.69791 0.5149,-0.69791 0.7661,-0.78681 0.766,-0.78683 0.7965,-0.60052 0.7965,-0.60052 1.1032,-0.55791 1.1031,-0.55792 0.7944,-0.26296 0.7945,-0.26295 0.7255,-0.17066 0.7254,-0.17066 0.8742,-0.1298 0.8741,-0.12979 1.647,-0.0499 1.6469,-0.0499 0.9629,0.0996 0.963,0.0996 0.9584,0.21362 0.9583,0.21361 0.8446,0.29399 0.8447,0.29401 0.6385,0.32154 0.63851,0.32154 0.884,0.58409 0.884,0.58408 0.7021,0.66164 0.7021,0.66164 0.4858,0.59456 0.4858,0.59456 0.4797,0.73589 0.4797,0.73589 0.4125,0.86372 0.4125,0.86373 0.3763,1.13657 0.3763,1.13657 0.1805,0.884 0.1806,0.884 0.1219,0.96818 0.1219,0.96819 0.052,1.43124 0.052,1.43122 -0.1,1.43123 -0.1,1.43124 -0.1242,0.85169 -0.1243,0.8517 -0.2167,0.74792 -0.2168,0.74792 -0.5415,1.21763 -0.5415,1.21765 -0.47,0.84502 -0.4701,0.84502 -0.5953,0.8419 -0.5954,0.84191 -0.9739,0.97394 -0.9739,0.97395 -0.8444,0.55887 -0.84441,0.55886 -0.6289,0.28544 -0.6289,0.28545 -0.8419,0.2772 -0.8419,0.27719 -0.3999,0.20016 -0.3999,0.20014 v 0.0699 0.0699 l 0.5656,0.66532 0.5656,0.66533 3.23641,3.26237 3.2364,3.26237 -2.9391,-0.005 z m -9.37961,-11.28826 0.463,0.0115 0.9261,-0.0878 0.9261,-0.0878 0.884,-0.20025 0.884,-0.20024 0.6314,-0.22749 0.6315,-0.22749 0.4209,-0.2104 0.421,-0.2104 0.6777,-0.43983 0.6778,-0.43983 0.5674,-0.5308 0.5674,-0.53081 0.49861,-0.66162 0.4985,-0.66162 0.3479,-0.5855 0.3478,-0.5855 0.3744,-0.93251 0.3745,-0.93251 0.2456,-0.98574 0.2457,-0.98574 0.1406,-1.01028 0.1406,-1.01029 v -1.64171 -1.6417 l -0.1426,-1.09447 -0.1426,-1.09447 -0.1699,-0.8419 -0.1698,-0.84191 -0.3257,-0.9784 -0.3257,-0.97839 -0.3113,-0.62122 -0.3113,-0.62122 -0.4435,-0.68298 -0.4435,-0.68299 -0.57691,-0.61159 -0.577,-0.61159 -0.4638,-0.35578 -0.4638,-0.35577 -0.6735,-0.38782 -0.6735,-0.38781 -0.7076,-0.2587 -0.7076,-0.25871 -0.7237,-0.16556 -0.7236,-0.16556 -1.353,-0.0983 -1.3531,-0.0983 -1.0892,0.13706 -1.0892,0.13706 -0.757,0.21713 -0.757,0.21714 -0.8538,0.4145 -0.8539,0.4145 -0.6699,0.50479 -0.6699,0.5048 -0.7235,0.7603 -0.7236,0.76032 -0.6602,0.98993 -0.6603,0.98994 -0.3494,0.71561 -0.3493,0.71562 -0.1769,0.54724 -0.1769,0.54723 -0.2029,1.01029 -0.2029,1.01028 -0.088,0.96819 -0.088,0.96819 4e-4,1.05236 4e-4,1.05238 0.084,0.96819 0.084,0.96819 0.1346,0.79981 0.1346,0.7998 0.2027,0.71562 0.2027,0.71562 0.5844,1.17866 0.5844,1.17866 0.6686,0.88755 0.6687,0.88755 0.7617,0.72493 0.7618,0.72492 0.7082,0.47121 0.7082,0.47119 0.5651,0.25625 0.5651,0.25625 0.7877,0.20964 0.7876,0.20963 0.7847,0.0698 0.7848,0.0698 0.463,0.0115 z m -29.3236,3.78675 -1.1112,-0.0135 -0.2947,-0.0305 -0.2946,-0.0305 -0.5894,-0.0856 -0.5893,-0.0856 -1.2564,-0.29441 -1.2564,-0.29442 -1.175,-0.38403 -1.1751,-0.38404 0.038,-2.26691 0.038,-2.26691 0.097,-0.0966 0.097,-0.0966 1.581,0.76236 1.581,0.76236 0.8419,0.31515 0.8419,0.31514 0.9682,0.20889 0.9682,0.20889 1.3471,0.006 1.347,0.006 0.6735,-0.1828 0.6735,-0.18278 0.6818,-0.33496 0.6817,-0.33497 0.5587,-0.55324 0.5587,-0.55324 0.2859,-0.60667 0.2858,-0.60666 0.1,-0.41636 0.1,-0.41637 -10e-4,-0.67811 -10e-4,-0.67811 -0.13,-0.48666 -0.1301,-0.48666 -0.1806,-0.35524 -0.1806,-0.35524 -0.3147,-0.46305 -0.3147,-0.46305 -0.789,-0.75944 -0.789,-0.75945 -0.753,-0.55839 -0.753,-0.55839 -1.1412,-0.69795 -1.1413,-0.69795 -1.0524,-0.66975 -1.0524,-0.66975 -0.9682,-0.73738 -0.9682,-0.73735 -0.8001,-0.7889 -0.8001,-0.78889 -0.4447,-0.58704 -0.4448,-0.58705 -0.4177,-0.8419 -0.4176,-0.8419 -0.1362,-0.50514 -0.1362,-0.50514 -0.042,-1.01186 -0.042,-1.01186 0.144,-0.71404 0.1441,-0.71404 0.2968,-0.79981 0.2968,-0.79981 0.2098,-0.42095 0.2098,-0.42095 0.3366,-0.50514 0.3366,-0.50515 0.5587,-0.57821 0.5588,-0.57822 0.7267,-0.48262 0.7267,-0.48262 0.7466,-0.31511 0.7466,-0.31512 0.774,-0.19866 0.774,-0.19866 0.9337,-0.13024 0.9338,-0.13024 1.5336,0.002 1.5336,0.002 0.884,0.11851 0.884,0.1185 0.7577,0.16896 0.7577,0.16896 0.7156,0.23708 0.7156,0.23709 0.022,2.20999 0.022,2.21 h -0.055 -0.055 l -0.2625,-0.16178 -0.2625,-0.16178 -0.9439,-0.38623 -0.944,-0.38624 -0.7819,-0.21003 -0.782,-0.21002 -0.7156,-0.12141 -0.7156,-0.1214 -0.7577,-0.0547 -0.7577,-0.0548 -0.7998,0.0908 -0.7999,0.0908 -0.5051,0.12856 -0.5051,0.12857 -0.6934,0.33941 -0.6934,0.33941 -0.5286,0.52865 -0.5287,0.52864 -0.2641,0.4992 -0.2641,0.4992 -0.1728,0.56474 -0.1728,0.56475 -0.057,0.62524 -0.057,0.62523 0.1065,0.45173 0.1064,0.45173 0.2107,0.42095 0.2107,0.42095 0.3597,0.46304 0.3598,0.46305 0.5335,0.5146 0.5336,0.51459 0.8419,0.62491 0.8419,0.62491 0.9261,0.59133 0.9261,0.59133 1.4175,0.87906 1.4175,0.87906 0.9398,0.70354 0.9398,0.70355 0.7001,0.63538 0.7001,0.63538 0.5374,0.68819 0.5374,0.68819 0.3361,0.62488 0.3362,0.62487 0.2161,0.74847 0.2161,0.74848 0.082,0.93584 0.082,0.93584 -0.079,0.89895 -0.079,0.89895 -0.1339,0.53177 -0.1339,0.53178 -0.4155,0.8419 -0.4155,0.84191 -0.5291,0.62852 -0.5291,0.62853 -0.5459,0.4407 -0.5459,0.44071 -0.6449,0.39001 -0.6448,0.39 -0.8004,0.32954 -0.8003,0.32953 -0.7859,0.21134 -0.7858,0.21132 -0.9514,0.12571 -0.9515,0.1257 -1.1112,-0.0135 z m 85.15191,-8.5e-4 -1.4835,-0.0142 -0.3368,-0.0304 -0.3367,-0.0304 -1.1366,-0.21923 -1.1366,-0.21921 -1.0065,-0.28679 -1.0066,-0.2868 -0.6772,-0.23451 -0.6773,-0.2345 -0.026,-1.50912 -0.026,-1.50912 0.056,-0.86295 0.055,-0.86295 h 0.064 0.064 l 1.5857,0.76678 1.5857,0.76677 0.7282,0.27789 0.7282,0.2779 0.918,0.22998 0.918,0.22998 0.8419,0.0513 0.8419,0.0513 0.7577,-0.0551 0.7578,-0.0551 0.5472,-0.13983 0.5472,-0.13982 0.7156,-0.34372 0.7157,-0.34372 0.5709,-0.57083 0.571,-0.57083 0.2825,-0.61639 0.2825,-0.61638 0.094,-0.44614 0.094,-0.44614 v -0.6096 -0.60959 l -0.1256,-0.48215 -0.1256,-0.48215 -0.2204,-0.44059 -0.2204,-0.44058 -0.4473,-0.59909 -0.4474,-0.5991 -0.632,-0.57248 -0.6321,-0.57246 -1.0303,-0.73576 -1.0303,-0.73575 -1.0592,-0.6134 -1.0593,-0.61341 -1.0028,-0.66396 -1.0027,-0.66396 -0.6811,-0.51618 -0.681,-0.51618 -0.9176,-0.8875 -0.9175,-0.8875 -0.5011,-0.67119 -0.5011,-0.67118 -0.3186,-0.63377 -0.3185,-0.63376 -0.1875,-0.58933 -0.1875,-0.58933 -0.043,-1.06139 -0.043,-1.06138 0.1001,-0.58033 0.1001,-0.58032 0.2526,-0.75771 0.2526,-0.75772 0.3709,-0.75771 0.371,-0.75771 0.5585,-0.69785 0.5585,-0.69786 0.5597,-0.44602 0.5597,-0.44603 0.5052,-0.30085 0.5051,-0.30083 0.7422,-0.30647 0.7421,-0.30647 0.647,-0.15956 0.647,-0.15956 0.9682,-0.14569 0.9682,-0.14568 1.5154,-0.003 1.5154,-0.003 0.8419,0.10951 0.8419,0.10952 0.7577,0.16064 0.7577,0.16063 0.8209,0.26422 0.8209,0.26421 v 2.1771 2.1771 h -0.087 -0.087 l -0.4258,-0.21577 -0.4258,-0.21578 -0.8554,-0.33567 -0.8553,-0.33568 -0.9971,-0.24565 -0.997,-0.24566 -0.8972,-0.0976 -0.8972,-0.0976 -0.9261,0.0497 -0.9261,0.0497 -0.6735,0.17143 -0.6735,0.17143 -0.6276,0.3078 -0.6275,0.3078 -0.595,0.59731 -0.595,0.5973 -0.2686,0.56537 -0.2687,0.56536 -0.1474,0.48701 -0.1475,0.48702 -8e-4,0.8419 -8e-4,0.84191 0.1356,0.35945 0.1357,0.35945 0.2829,0.48089 0.2829,0.4809 0.8442,0.84346 0.8442,0.84346 1.0724,0.75771 1.0723,0.75771 1.2827,0.78361 1.2827,0.78362 1.1786,0.79006 1.1787,0.79009 0.7025,0.56441 0.7026,0.56442 0.6884,0.68226 0.6884,0.68227 0.3948,0.55326 0.3947,0.55327 0.3393,0.70959 0.3392,0.70959 0.1747,0.67352 0.1747,0.67352 0.048,1.13657 0.048,1.13657 -0.1,0.75771 -0.1,0.75771 -0.24,0.70044 -0.24,0.70044 -0.4079,0.68433 -0.4079,0.68433 -0.7156,0.7232 -0.7156,0.7232 -0.5929,0.38695 -0.5929,0.38697 -0.6993,0.35161 -0.6993,0.35161 -0.8547,0.28509 -0.8546,0.28508 -1.0001,0.17284 -1.0002,0.17285 -1.4835,-0.0142 z m 24.375,0.003 -0.3489,-0.0114 -0.7367,-0.071 -0.7367,-0.071 -0.6817,-0.17407 -0.6818,-0.17407 -0.6752,-0.24643 -0.6753,-0.24643 -0.7266,-0.39196 -0.7267,-0.39195 -0.7282,-0.49769 -0.7282,-0.49768 -0.5378,-0.49276 -0.5377,-0.49276 -0.5317,-0.74563 -0.5317,-0.74564 -0.3173,-0.63143 -0.3174,-0.63143 -0.2176,-0.65101 -0.2175,-0.65101 -0.1261,-0.61184 -0.126,-0.61185 -0.1021,-0.7998 -0.1021,-0.79981 -0.01,-1.97847 -0.01,-1.97847 0.1576,-0.79981 0.1576,-0.79981 0.3162,-0.97053 0.3161,-0.97054 0.3562,-0.71326 0.3562,-0.71327 0.4668,-0.70576 0.4667,-0.70575 0.7784,-0.81097 0.7784,-0.81097 0.6611,-0.47428 0.6611,-0.47429 0.5473,-0.29857 0.5472,-0.29857 0.76,-0.28935 0.76,-0.28935 0.6712,-0.15725 0.6713,-0.15725 1.768,0.004 1.7679,0.004 0.8232,0.22351 0.8232,0.22352 0.8073,0.38243 0.8073,0.38244 0.5598,0.41496 0.5597,0.41496 0.5065,0.53287 0.5064,0.53286 0.3019,0.42095 0.3019,0.42095 0.3436,0.63143 0.3437,0.63143 0.2933,0.884 0.2932,0.88398 0.1309,0.64319 0.1308,0.64318 0.085,0.95644 0.085,0.95642 8e-4,1.74695 9e-4,1.74695 h -8.3349 -8.3348 v 0.23152 0.23152 l 0.2058,0.84191 0.2057,0.8419 0.1711,0.49167 0.171,0.49167 0.3535,0.70667 0.3534,0.70668 0.5439,0.72471 0.5439,0.72472 0.4727,0.37604 0.4727,0.37603 0.8419,0.40867 0.8419,0.40866 0.5472,0.13639 0.5473,0.13639 0.6735,0.0499 0.6735,0.0499 0.8727,-0.0954 0.8728,-0.0954 0.6848,-0.17136 0.6847,-0.17137 0.8939,-0.29421 0.8938,-0.29421 1.3599,-0.66746 1.3598,-0.66746 -0.023,1.90091 -0.023,1.90091 -0.8419,0.37592 -0.8419,0.37593 -1.1129,0.37131 -1.1129,0.37131 -1.034,0.20776 -1.0339,0.20775 -0.8719,0.0879 -0.8719,0.0879 -0.3489,-0.0114 z m -0.6131,-14.80595 h 6.1763 l -0.1112,-0.69457 -0.1112,-0.69457 -0.2171,-0.75771 -0.2171,-0.75771 -0.3934,-0.79845 -0.3933,-0.79847 -0.5927,-0.59916 -0.5926,-0.59916 -0.7157,-0.35093 -0.7156,-0.35091 -0.6314,-0.13246 -0.6314,-0.13247 -0.884,0.0392 -0.884,0.0392 -0.6735,0.219 -0.6736,0.21901 -0.5472,0.31771 -0.5472,0.31771 -0.558,0.55736 -0.5579,0.55737 -0.3497,0.58854 -0.3496,0.58852 -0.2883,0.70719 -0.2884,0.70719 -0.214,0.79906 -0.2141,0.79907 v 0.10523 0.10524 h 6.1763 z m 61.7295,14.72172 -0.3432,-0.0116 -0.7577,-0.0686 -0.7577,-0.0686 -0.8419,-0.21912 -0.8419,-0.21912 -0.7156,-0.29104 -0.7156,-0.29102 -0.6736,-0.3881 -0.6735,-0.38809 -0.6735,-0.4732 -0.6735,-0.4732 -0.5912,-0.58994 -0.5911,-0.58995 -0.4826,-0.72543 -0.4826,-0.72543 -0.291,-0.63 -0.2911,-0.63 -0.2108,-0.72729 -0.2107,-0.72729 -0.1314,-0.73765 -0.1314,-0.73766 -0.083,-1.89428 -0.083,-1.89428 0.092,-0.8419 0.092,-0.8419 0.1219,-0.58934 0.122,-0.58933 0.2643,-0.79981 0.2643,-0.7998 0.2362,-0.52761 0.2362,-0.52761 0.3345,-0.57266 0.3344,-0.57265 0.4029,-0.53587 0.4028,-0.53586 0.4617,-0.49873 0.4618,-0.49874 0.6771,-0.52363 0.6771,-0.52363 0.5176,-0.31007 0.5176,-0.31008 0.6189,-0.28057 0.619,-0.28058 0.5893,-0.17393 0.5894,-0.17394 0.6314,-0.11105 0.6314,-0.11104 1.3471,-0.002 1.347,-0.002 0.5894,0.11724 0.5893,0.11722 0.6295,0.20387 0.6294,0.20387 0.6928,0.34328 0.6928,0.3433 0.6688,0.52884 0.6688,0.52883 0.4441,0.53268 0.444,0.53267 0.3824,0.58933 0.3824,0.58934 0.3086,0.71561 0.3086,0.71562 0.1755,0.63143 0.1756,0.63141 0.1384,0.75772 0.1384,0.75771 0.043,2.42047 0.043,2.42047 h -8.353 -8.3529 l 0.059,0.35781 0.059,0.35781 0.2372,0.94587 0.2371,0.94586 0.3321,0.7524 0.332,0.75239 0.3968,0.59698 0.3969,0.59699 0.4269,0.46708 0.4269,0.46709 0.526,0.37536 0.526,0.37536 0.549,0.24889 0.5489,0.24889 0.6168,0.17193 0.6168,0.17193 0.7168,0.0518 0.7168,0.0518 0.8828,-0.10085 0.8828,-0.10085 0.6735,-0.16518 0.6736,-0.16519 1.0102,-0.35047 1.0103,-0.35047 1.203,-0.61545 1.203,-0.61545 h 0.039 0.039 v 1.87858 1.8786 l -1.0734,0.46997 -1.0734,0.46996 -0.9261,0.29578 -0.9261,0.29578 -0.9682,0.21275 -0.9682,0.21275 -0.9196,0.0896 -0.9197,0.0896 -0.3432,-0.0116 z m -0.6842,-14.72172 h 6.2026 l -0.058,-0.3999 -0.057,-0.39991 -0.2315,-0.92669 -0.2314,-0.9267 -0.2738,-0.65764 -0.2738,-0.65762 -0.3298,-0.49403 -0.33,-0.49404 -0.4807,-0.43989 -0.4806,-0.4399 -0.6736,-0.32341 -0.6735,-0.32342 -0.6314,-0.13381 -0.6314,-0.1338 -0.884,0.0401 -0.884,0.0401 -0.6736,0.22489 -0.6735,0.2249 -0.5638,0.33323 -0.5638,0.33323 -0.4203,0.4094 -0.4203,0.40939 -0.4104,0.62872 -0.4105,0.62873 -0.3057,0.7116 -0.3057,0.71161 -0.2092,0.72217 -0.2093,0.72216 -0.057,0.30529 -0.057,0.30529 z m -110.5796,14.05977 h -8.84 v -16.66967 -16.66966 h 2.1469 2.1468 v 14.64911 14.64909 h 6.6932 6.6931 v 2.02057 2.02056 z m 65.9149,0 h -2.0987 v -11.82873 -11.82872 h 2.1031 2.1032 l 0.023,1.87185 0.023,1.87183 0.5472,-0.87756 0.5473,-0.87758 0.4571,-0.49566 0.4571,-0.49566 0.5219,-0.37247 0.522,-0.37245 0.4943,-0.21882 0.4942,-0.21881 0.8239,-0.15991 0.8238,-0.1599 h 1.302 1.3019 v 2.10073 2.10073 l -0.3999,-0.12352 -0.3999,-0.12351 -0.6262,-0.16712 -0.6263,-0.16713 h -0.5557 -0.5558 l -0.495,0.12891 -0.4949,0.12892 -0.4966,0.26471 -0.4967,0.26472 -0.5877,0.54408 -0.5876,0.5441 -0.3649,0.51456 -0.3649,0.51457 -0.2738,0.54612 -0.2738,0.54613 -0.2031,0.53959 -0.2031,0.53958 -0.1366,0.80856 -0.1366,0.80857 -0.034,6.92465 -0.034,6.92464 z m 22.5459,-8.4e-4 -2.0016,8.4e-4 -0.074,-0.18942 -0.074,-0.18943 -0.9838,-2.52571 -0.9837,-2.52571 -1.3082,-3.4518 -1.3082,-3.4518 -1.1167,-3.03085 -1.1167,-3.03084 -0.9356,-2.62028 -0.9356,-2.62028 v -0.0528 -0.0528 l 2.1679,10e-4 2.1679,10e-4 1.5901,4.73459 1.5901,4.73458 1.0472,2.86247 1.0472,2.86247 0.6834,1.87097 0.6835,1.87098 0.015,-0.0188 0.015,-0.0188 1.6911,-4.41999 1.6911,-4.41999 1.0986,-3.03084 1.0986,-3.03084 0.7449,-1.97848 0.745,-1.97847 2.0853,-0.0225 2.0852,-0.0225 -0.04,0.14883 -0.041,0.14882 -2.6259,6.60893 -2.6259,6.60893 -2.0374,5.11369 -2.0375,5.11368 -2.0016,8.4e-4 z m 38.4905,-0.0833 h -2.0972 v -11.82873 -11.82872 h 2.1048 2.1047 l 9e-4,1.91533 8e-4,1.91533 0.6518,-0.98505 0.6518,-0.98505 0.4379,-0.46132 0.4379,-0.46131 0.5194,-0.35269 0.5194,-0.35269 0.4745,-0.19284 0.4746,-0.19282 0.6483,-0.13393 0.6483,-0.13391 h 1.4348 1.4348 v 2.07167 2.07167 l -0.1263,-0.0485 -0.1264,-0.0485 -0.8208,-0.22993 -0.8208,-0.22992 -0.7156,10e-4 -0.7156,10e-4 -0.5633,0.18929 -0.5632,0.18927 -0.4998,0.32303 -0.4998,0.32303 -0.4675,0.46751 -0.4675,0.46752 -0.3313,0.48816 -0.3314,0.48817 -0.3475,0.69157 -0.3476,0.69159 -0.166,0.61336 -0.1661,0.61336 -0.097,0.67353 -0.097,0.67352 -0.04,6.79836 -0.04,6.79836 h -2.0972 z m 14.1547,-19.64725 -0.6346,0.0234 -0.2991,-0.0848 -0.2991,-0.0848 -0.4165,-0.31466 -0.4165,-0.31467 -0.2105,-0.37547 -0.2105,-0.37548 9e-4,-0.75771 8e-4,-0.75771 0.1817,-0.34054 0.1818,-0.34055 0.3779,-0.34839 0.378,-0.34839 0.4442,-0.13192 0.4442,-0.13192 h 0.3483 0.3483 l 0.4239,0.1259 0.424,0.12589 0.3947,0.34741 0.3946,0.3474 0.1782,0.34756 0.1782,0.34755 0.039,0.5963 0.039,0.5963 -0.1732,0.39153 -0.1732,0.39154 -0.2155,0.28249 -0.2154,0.28248 -0.4392,0.23901 -0.4391,0.23902 -0.6347,0.0233 z m -0.2137,-0.3127 0.421,0.006 0.3002,-0.0834 0.3001,-0.0834 0.3552,-0.30405 0.3553,-0.30405 0.176,-0.34499 0.176,-0.34499 v -0.51508 -0.51507 l -0.1655,-0.3727 -0.1654,-0.37269 -0.3443,-0.31011 -0.3443,-0.31011 -0.3216,-0.0893 -0.3217,-0.0893 h -0.3789 -0.3788 l -0.3217,0.0893 -0.3217,0.0893 -0.3439,0.31011 -0.344,0.31011 -0.1533,0.33676 -0.1534,0.33676 v 0.54171 0.5417 l 0.1771,0.36595 0.1772,0.36596 0.3185,0.26738 0.3184,0.26738 0.2832,0.10246 0.2831,0.10245 0.4209,0.006 z m -0.6735,-0.49827 h -0.2946 v -1.51542 -1.51543 h 0.7198 0.7198 l 0.2365,0.12231 0.2365,0.12232 0.1074,0.25934 0.1075,0.25935 -0.078,0.27082 -0.077,0.27081 -0.25,0.16405 -0.2499,0.16405 0.3628,0.69891 0.3628,0.69889 h -0.2984 -0.2985 l -0.2446,-0.53959 -0.2447,-0.53959 -0.1716,-0.0918 -0.1716,-0.0918 h -0.09 -0.09 v 0.63143 0.63142 z m 0.6315,-1.6838 h 0.3367 l 0.1757,-0.17568 0.1757,-0.17567 -0.056,-0.22339 -0.056,-0.22339 -0.099,-0.0627 -0.099,-0.0627 -0.3578,-0.001 -0.3578,-10e-4 v 0.46305 0.46305 h 0.3368 z m -163.41331,-14.40563 -0.2946,-0.008 -0.5251,-0.11506 -0.525,-0.11507 -0.2537,-0.13121 -0.2538,-0.13122 v -0.75555 -0.75555 h 0.074 0.074 l 0.096,0.11533 0.096,0.11534 0.5246,0.23539 0.5245,0.2354 0.6116,0.0393 0.6117,0.0392 0.3851,-0.14709 0.38521,-0.1471 0.1609,-0.26393 0.161,-0.26394 3e-4,-0.35756 3e-4,-0.35756 -0.2959,-0.32763 -0.296,-0.32764 -0.60911,-0.2936 -0.609,-0.29361 -0.421,-0.1957 -0.4209,-0.19569 -0.4257,-0.42512 -0.4256,-0.42512 -0.1103,-0.39561 -0.1103,-0.39563 0.033,-0.58261 0.033,-0.58262 0.2536,-0.4109 0.2535,-0.4109 0.4599,-0.31408 0.46,-0.31408 0.5472,-0.13835 0.5472,-0.13835 0.63151,0.0447 0.6314,0.0447 0.463,0.1552 0.4631,0.15519 0.024,0.73222 0.024,0.73223 -0.5053,-0.26057 -0.5052,-0.26057 -0.6354,-0.0408 -0.63531,-0.0408 -0.3852,0.1471 -0.3851,0.1471 -0.161,0.26392 -0.1609,0.26394 -4e-4,0.2778 -3e-4,0.2778 0.1262,0.24404 0.1262,0.24403 0.2737,0.20479 0.2737,0.20477 1.05561,0.5063 1.0556,0.50629 0.3091,0.34218 0.3092,0.34217 0.1399,0.48127 0.1399,0.48125 -0.045,0.43757 -0.045,0.43758 -0.1685,0.32645 -0.1684,0.32646 -0.3228,0.31131 -0.3229,0.31132 -0.463,0.21046 -0.4631,0.21045 -0.54721,0.088 -0.5473,0.088 -0.2946,-0.008 z m -21.0021,-0.0773 -0.7611,-0.002 -0.5593,-0.19066 -0.5593,-0.19065 -0.3513,-0.24339 -0.3512,-0.24338 -0.4043,-0.44242 -0.4044,-0.44243 -0.2298,-0.57365 -0.2299,-0.57364 -0.089,-0.75878 -0.089,-0.75878 0.1299,-0.77022 0.1299,-0.77023 0.2974,-0.61784 0.2975,-0.61785 0.4487,-0.44705 0.4486,-0.44706 0.421,-0.23657 0.4209,-0.23658 0.5622,-0.14806 0.5621,-0.14805 0.9533,0.0379 0.9533,0.038 0.3999,0.17862 0.3999,0.17863 v 0.71908 0.71907 l -0.4849,-0.2464 -0.4848,-0.24639 -0.4202,-0.0954 -0.4202,-0.0954 -0.5125,0.0537 -0.5125,0.0537 -0.4204,0.19478 -0.4205,0.19478 -0.3175,0.32617 -0.3176,0.32617 -0.1933,0.38026 -0.1932,0.38027 -0.1,0.37132 -0.1,0.37133 v 0.70299 0.703 l 0.1289,0.4432 0.1288,0.44321 0.3408,0.47596 0.3409,0.47596 0.5248,0.2518 0.5249,0.25181 0.4209,0.0509 0.421,0.0509 0.463,-0.0865 0.4631,-0.0865 0.5683,-0.28802 0.5683,-0.28803 v 0.6951 0.69511 l -0.3158,0.13828 -0.3157,0.13828 -0.5018,0.12707 -0.5017,0.12708 -0.7611,-0.002 z m 13.3925,-0.007 -0.5989,-0.009 -0.3789,-0.074 -0.3788,-0.074 -0.5473,-0.2686 -0.5472,-0.2686 -0.4333,-0.44283 -0.4333,-0.44283 -0.2166,-0.44716 -0.2166,-0.44717 -0.1289,-0.50178 -0.1288,-0.50178 v -0.87521 -0.8752 l 0.134,-0.5173 0.134,-0.51729 0.2238,-0.45789 0.2238,-0.4579 0.4085,-0.44735 0.4085,-0.44734 0.7145,-0.35404 0.7145,-0.35404 1.032,-0.0343 1.0319,-0.0344 0.497,0.14346 0.4971,0.14346 0.4019,0.21752 0.4019,0.21752 0.3698,0.39528 0.3697,0.39529 0.2186,0.43138 0.2186,0.43138 0.1346,0.56904 0.1347,0.56903 v 0.884 0.884 l -0.1403,0.53773 -0.1402,0.53773 -0.2619,0.49135 -0.2619,0.49134 -0.4518,0.4273 -0.4518,0.42729 -0.5272,0.24673 -0.5273,0.24675 -0.4531,0.0859 -0.4532,0.0859 -0.5988,-0.009 z m 0.6857,-1.26529 0.4427,-0.0582 0.3762,-0.1821 0.3762,-0.18211 0.2258,-0.26706 0.2259,-0.26706 0.1949,-0.42368 0.1948,-0.42369 0.096,-0.64274 0.096,-0.64275 -0.093,-0.69403 -0.093,-0.69404 -0.197,-0.42848 -0.197,-0.42848 -0.2278,-0.26932 -0.2278,-0.26931 -0.4759,-0.23282 -0.4759,-0.23282 -0.7199,10e-4 -0.72,0.001 -0.4691,0.21596 -0.469,0.21594 -0.2759,0.28517 -0.2759,0.28518 -0.2052,0.43502 -0.2052,0.43503 -0.091,0.51358 -0.091,0.51356 0.09,0.76258 0.09,0.76258 0.2028,0.44296 0.2028,0.44296 0.3079,0.30786 0.3078,0.30786 0.338,0.17241 0.3379,0.1724 0.4807,0.0619 0.4807,0.0619 z m 15.60511,1.26736 -0.641,-0.007 -0.421,-0.10532 -0.4209,-0.10532 -0.4068,-0.19471 -0.4069,-0.1947 -0.4591,-0.41964 -0.4592,-0.41963 -0.2172,-0.37067 -0.2172,-0.37066 -0.1621,-0.52082 -0.1621,-0.52082 -0.049,-0.76007 -0.049,-0.76007 0.1324,-0.69669 0.1324,-0.6967 0.2581,-0.52406 0.2581,-0.52406 0.3413,-0.39903 0.3412,-0.39903 0.5204,-0.28829 0.5204,-0.28829 0.4573,-0.13354 0.4573,-0.13353 0.9318,0.002 0.9319,0.002 0.5658,0.19969 0.5658,0.19969 0.4191,0.30771 0.4192,0.30771 0.3403,0.50954 0.3402,0.50952 0.1768,0.55987 0.1768,0.55985 0.043,0.884 0.043,0.884 -0.1337,0.63143 -0.1336,0.63142 -0.2745,0.54365 -0.2746,0.54365 -0.421,0.43053 -0.4209,0.43054 -0.5472,0.26718 -0.5473,0.26717 -0.4535,0.0846 -0.4535,0.0846 -0.6409,-0.007 z m 0.7002,-1.27536 0.4993,-0.0663 0.3667,-0.21491 0.3667,-0.21491 0.2912,-0.39456 0.2911,-0.39457 0.1291,-0.42095 0.129,-0.42095 0.05,-0.58933 0.05,-0.58933 -0.097,-0.63143 -0.097,-0.63143 -0.2424,-0.52054 -0.2425,-0.52055 -0.3499,-0.25346 -0.3499,-0.25347 -0.4257,-0.14141 -0.4258,-0.14141 -0.614,0.0394 -0.6141,0.0394 -0.4638,0.22691 -0.4638,0.22692 -0.2708,0.30849 -0.2709,0.30849 -0.2166,0.4669 -0.2167,0.46688 -0.032,0.9445 -0.032,0.94451 0.1769,0.58228 0.1768,0.58229 0.391,0.43483 0.3909,0.43483 0.3286,0.16764 0.3286,0.16764 0.4807,0.062 0.4807,0.062 z m 13.482,1.27528 -0.5109,-0.007 -0.211,-0.0642 -0.211,-0.0642 -0.2687,-0.13895 -0.2688,-0.13897 -0.2219,-0.29096 -0.2219,-0.29095 -0.1192,-0.39603 -0.1192,-0.39604 v -2.84908 -2.8491 h -0.7577 -0.7577 v -0.58933 -0.58933 h 0.7551 0.7551 l 0.024,-1.02475 0.024,-1.02474 0.6286,-0.19181 0.6287,-0.19182 0.039,0.0393 0.039,0.0392 -0.011,1.17731 -0.011,1.17731 h 1.0897 1.0898 v 0.58933 0.58933 h -1.101 -1.101 l 0.034,2.67305 0.034,2.67304 0.1297,0.2985 0.1298,0.29851 0.2239,0.14669 0.2238,0.14669 0.4488,0.005 0.4488,0.005 0.2649,-0.137 0.2649,-0.13702 v 0.63034 0.63032 l -0.4362,0.12955 -0.4362,0.12955 -0.5109,-0.007 z m -65.50571,-0.16113 h -0.7157 v -5.93541 -5.93541 h 0.9532 0.9532 l 1.988,4.56732 1.9881,4.56732 0.056,0.23094 0.057,0.23094 0.063,-0.0388 0.063,-0.0388 0.1496,-0.40265 0.1497,-0.40265 1.9358,-4.31475 1.9358,-4.31475 h 0.9158 0.9158 v 5.89331 5.89332 h -0.7156 -0.7156 l -0.01,-0.18943 -0.01,-0.18942 v -4.67256 l 0.01,-4.67256 -0.1455,0.39786 -0.1454,0.39787 -1.9785,4.46549 -1.9784,4.4655 -0.3785,-0.0224 -0.3784,-0.0224 -1.8702,-4.16742 -1.8701,-4.16742 -0.2529,-0.63143 -0.2529,-0.63142 v 4.81989 4.81989 z m 26.6883,0 h -0.7157 v -4.20951 -4.20951 h 0.7157 0.7156 v 0.73666 0.73667 l 0.1739,-0.33677 0.174,-0.33676 0.2643,-0.28113 0.2643,-0.28114 0.404,-0.20643 0.4039,-0.20642 0.6485,0.0245 0.6484,0.0245 0.024,0.74699 0.024,0.74698 -0.1508,-0.0621 -0.1507,-0.0622 -0.3368,-0.0797 -0.3367,-0.0797 -0.2918,0.0546 -0.2918,0.0546 -0.2317,0.11984 -0.2317,0.11983 -0.2222,0.23075 -0.2221,0.23076 -0.1971,0.42095 -0.1971,0.42095 -0.088,0.54724 -0.088,0.54723 -7e-4,2.29419 -6e-4,2.29418 h -0.7156 z m 31.82391,0 h -0.7156 v -3.62018 -3.62018 h -0.7157 -0.7156 v -0.58933 -0.58933 h 0.7074 0.7073 l 0.03,-1.11552 0.03,-1.11553 0.218,-0.46688 0.2179,-0.46689 0.2709,-0.30847 0.2708,-0.30847 0.4784,-0.22839 0.4783,-0.22838 0.7156,-0.007 0.7157,-0.007 0.1473,0.0605 0.1473,0.0605 v 0.64307 0.64308 l -0.1473,-0.064 -0.1473,-0.064 -0.5473,-0.0336 -0.5472,-0.0336 -0.2593,0.16293 -0.2593,0.16292 -0.1615,0.32565 -0.1615,0.32565 -0.028,0.98924 -0.028,0.98924 h 0.9753 0.9752 v 0.58933 0.58933 h -0.9682 -0.9682 v 3.66228 3.66227 h -0.7156 z m -43.52641,-0.58933 h -0.6314 v -3.66228 -3.66227 h 0.6314 0.6314 v 3.66227 3.66228 z m 55.50581,-4.93095 -0.4454,0.0385 -0.3665,-0.0766 -0.3665,-0.0766 -0.3612,-0.21173 -0.3613,-0.21173 -0.2225,-0.26438 -0.2225,-0.26438 -0.1333,-0.30555 -0.1334,-0.30555 -0.01,-0.63143 -0.01,-0.63143 0.1721,-0.37885 0.1722,-0.37886 0.2277,-0.26932 0.2276,-0.26931 0.4798,-0.23473 0.4797,-0.23471 0.6319,0.006 0.632,0.006 0.3788,0.17358 0.3789,0.17358 0.3063,0.30357 0.3064,0.30356 0.1537,0.31519 0.1536,0.31518 0.033,0.64228 0.033,0.64227 -0.1673,0.37832 -0.1674,0.37831 -0.3066,0.33939 -0.3066,0.33939 -0.3731,0.17537 -0.3731,0.17537 -0.4453,0.0385 z m -0.098,-0.32467 0.4312,-0.034 0.3441,-0.17552 0.344,-0.17552 0.2225,-0.23157 0.2224,-0.23157 0.158,-0.33676 0.158,-0.33677 v -0.50514 -0.50514 l -0.156,-0.34356 -0.156,-0.34357 -0.3048,-0.29599 -0.3048,-0.29601 -0.431,-0.13919 -0.431,-0.1392 h -0.2276 -0.2276 l -0.4375,0.1299 -0.4374,0.1299 -0.2877,0.25266 -0.2878,0.25265 -0.1835,0.37913 -0.1836,0.37913 v 0.53417 0.53417 l 0.1753,0.34362 0.1753,0.34362 0.2945,0.29446 0.2944,0.29446 0.3996,0.1278 0.3995,0.12781 z m -0.8944,-0.55351 h -0.2525 v -1.51542 -1.51543 h 0.6777 0.6777 l 0.232,0.11997 0.232,0.11998 0.1006,0.22075 0.1005,0.22075 v 0.21494 0.21492 l -0.2945,0.29452 -0.2945,0.29451 0.1574,0.22326 0.1575,0.22325 0.2227,0.442 0.2227,0.442 h -0.2949 -0.2949 l -0.2519,-0.49907 -0.2519,-0.49907 -0.189,-0.13236 -0.189,-0.13235 h -0.1075 -0.1076 v 0.63143 0.63142 z m 0.5706,-1.6838 h 0.3181 l 0.1871,-0.13106 0.1871,-0.13106 v -0.24483 -0.24484 l -0.1628,-0.0871 -0.1629,-0.0872 h -0.3423 -0.3423 v 0.46305 0.46305 z m 61.1408,-0.67352 h -0.2526 v -1.51543 -1.51542 h -0.5051 -0.5051 v -0.21048 -0.21048 h 1.2207 1.2208 v 0.21048 0.21048 h -0.4631 -0.463 v 1.51542 1.51543 z m 1.8943,0 h -0.2105 v -1.73099 -1.73098 l 0.3044,0.0261 0.3044,0.0261 0.5756,1.30439 0.5756,1.3044 0.2673,-0.58878 0.2673,-0.58878 0.3143,-0.71561 0.3143,-0.71562 0.3064,-0.0261 0.3064,-0.0261 v 1.73098 1.73099 h -0.2504 -0.2503 l -0.023,-1.28256 -0.023,-1.28256 -0.5575,1.26151 -0.5575,1.26151 -0.1237,0.0246 -0.1238,0.0246 -0.6014,-1.3296 -0.6015,-1.3296 v 1.326 1.326 h -0.2105 z m -7.7698,-0.18154 -1.0701,-0.0131 -1.4733,-0.0623 -1.4734,-0.0623 -1.5575,-0.13993 -1.5575,-0.13992 -1.5154,-0.16474 -1.5154,-0.16474 -1.305,-0.1707 -1.3049,-0.17072 -1.768,-0.2519 -1.768,-0.25192 -2.2311,-0.37723 -2.231,-0.37723 -1.8943,-0.38172 -1.8943,-0.38171 -1.5996,-0.42172 -1.5996,-0.4217 -1.2629,-0.38034 -1.2628,-0.38034 -1.6838,-0.57223 -1.6838,-0.57222 -0.8419,-0.31588 -0.8419,-0.31587 -1.1581,-0.4944 -1.1581,-0.49439 -1.2614,-0.63172 -1.2613,-0.63173 -0.9482,-0.56043 -0.9481,-0.56043 -1.0945,-0.73842 -1.0945,-0.73842 -0.9261,-0.73944 -0.9261,-0.73943 -1.082,-1.0557 -1.0821,-1.05569 -0.5015,-0.62157 -0.5015,-0.62159 -0.4261,-0.63146 -0.4261,-0.63147 -0.3382,-0.68333 -0.3381,-0.68333 -0.1926,-0.5644 -0.1926,-0.56441 -0.1496,-0.69844 -0.1495,-0.69846 v -1.13656 -1.13657 l 0.1452,-0.67352 0.1452,-0.67353 0.2153,-0.63142 0.2152,-0.63143 0.4207,-0.8419 0.4207,-0.84191 0.5736,-0.90443 0.5736,-0.90445 0.7836,-1.02972 0.7836,-1.02971 1.0945,-1.13004 1.0945,-1.13003 1.2138,-1.10323 1.2139,-1.10322 1.2276,-1.04116 1.2277,-1.04116 1.6828,-1.48384 1.6828,-1.48384 1.2217,-1.13728 1.2217,-1.13727 1.9785,-1.98029 1.9786,-1.98028 1.138,-1.26104 1.138,-1.26104 1.0563,-1.26286 1.0564,-1.26285 0.8038,-1.05238 0.8038,-1.05238 0.6247,-0.884 0.6247,-0.88399 0.7255,-1.13657 0.7255,-1.13657 0.4779,-0.83494 0.478,-0.83494 0.503,-1.00336 0.5029,-1.00337 0.5446,-1.3078 0.5446,-1.30781 0.3318,-0.97921 0.3319,-0.97921 0.2986,-1.17867 0.2987,-1.17866 0.1683,-1.14868 0.1683,-1.14868 0.08,-1.39751 0.08,-1.39752 -0.082,-1.45284 -0.082,-1.45285 -0.1279,-1.05237 -0.1279,-1.05238 -0.2061,-1.02144 -0.2061,-1.02145 -0.3012,-0.99912 -0.3012,-0.99913 -0.3846,-0.96818 -0.3847,-0.96819 -0.359,-0.71562 -0.359,-0.71562 -0.3945,-0.66602 -0.3945,-0.66602 -0.4289,-0.63893 -0.429,-0.63892 -0.5058,-0.67353 -0.5058,-0.67352 -0.8185,-0.92609 -0.8186,-0.92609 -2.5991,-2.56781 -2.5992,-2.5678 -2.0184,-1.97922 -2.0183,-1.97921 -0.242,-0.45083 -0.242,-0.45082 -0.039,-0.51662 -0.039,-0.51662 0.2689,-0.40116 0.2689,-0.40116 0.7279,-0.67902 0.7279,-0.67902 0.9261,-0.61698 0.9261,-0.61697 1.2191,-0.69665 1.2191,-0.69664 1.7697,-0.8615 1.7696,-0.8615 1.5155,-0.67014 1.5154,-0.67013 1.1786,-0.48536 1.1787,-0.48536 0.5051,-0.20535 0.5052,-0.20536 2.231,-0.84371 2.2311,-0.84372 2.184,-0.74916 2.1839,-0.74917 h 0.2336 0.2335 l 0.078,0.14733 0.078,0.14734 0.2274,0.8419 0.2274,0.8419 0.505,1.50751 0.5049,1.50751 0.6119,1.52334 0.6118,1.52334 0.4913,1.09447 0.4912,1.09448 1.6215,3.24132 1.6215,3.24133 0.9361,1.6838 0.936,1.68381 0.062,0.0636 0.062,0.0636 2.3106,0.37287 2.3106,0.37288 1.2207,0.21712 1.2208,0.21713 1.2208,0.21684 1.2207,0.21685 2.2732,0.46093 2.2731,0.46094 2.2731,0.54828 2.2732,0.54829 1.2207,0.33501 1.2208,0.33501 1.7055,0.50348 1.7056,0.50348 1.4937,0.51273 1.4936,0.51274 1.4976,0.57618 1.4977,0.57619 1.5332,0.65278 1.5332,0.65278 2.0206,1.01982 2.0206,1.01982 0.8419,0.48673 0.8419,0.48673 1.3049,0.86329 1.305,0.86329 0.9539,0.71746 0.9539,0.71745 0.8983,0.74557 0.8982,0.74558 1.2937,1.26288 1.2937,1.26288 0.9794,1.12379 0.9795,1.12379 0.9591,1.27564 0.959,1.27563 0.8732,1.32184 0.8731,1.32184 0.049,0.12692 0.049,0.12691 -0.1971,0.0433 -0.1971,0.0433 -2.6099,0.42906 -2.6099,0.42905 -1.7422,0.33128 -1.7423,0.33127 -2.9724,0.63447 -2.9724,0.63447 -2.3994,0.55125 -2.3994,0.55126 -3.6623,0.91343 -3.6623,0.91342 -3.0308,0.80898 -3.0309,0.80897 -4.1674,1.18513 -4.1674,1.18513 -0.035,0.0316 -0.035,0.0316 0.2245,1.49455 0.2245,1.49455 0.1223,1.09447 0.1222,1.09447 0.1388,1.89429 0.1388,1.89428 -0.041,4.63046 -0.041,4.63046 -0.2203,2.23105 -0.2204,2.23104 -0.2129,1.7259 -0.213,1.7259 -0.2101,1.38914 -0.2101,1.38914 -0.2532,1.37153 -0.2532,1.37154 -0.252,1.11207 -0.2521,1.11208 -0.418,1.52837 -0.4181,1.52837 -0.6418,1.96552 -0.6417,1.96553 -0.4866,1.34705 -0.4865,1.34704 -0.7566,1.89428 -0.7566,1.89428 -0.7134,1.64171 -0.7133,1.64171 -0.7012,1.51543 -0.7013,1.51542 -1.334,2.65985 -1.3341,2.65984 -0.1691,0.18158 -0.1692,0.18157 z m 0.1614,-1.00974 0.2212,0.0126 0.09,-0.1086 0.09,-0.10858 0.5175,-1.3437 0.5174,-1.34368 0.7866,-2.11163 0.7867,-2.11162 0.6787,-1.95487 0.6788,-1.95486 v -0.0787 -0.0786 l -0.3999,0.15988 -0.3999,0.15989 -0.8419,0.39432 -0.8419,0.39431 -1.5584,0.65418 -1.5584,0.65416 -1.3462,0.50746 -1.3461,0.50746 -1.305,0.42382 -1.3049,0.42382 -0.9682,0.29542 -0.9682,0.29541 -1.8943,0.50573 -1.8943,0.50571 -1.8943,0.43856 -1.8942,0.43856 -2.2311,0.52551 -2.231,0.52552 0.1263,0.0482 0.1263,0.0482 1.5154,0.29292 1.5154,0.29291 1.1787,0.21217 1.1786,0.21217 1.768,0.30251 1.768,0.30251 1.5154,0.25007 1.5155,0.25007 3.7885,0.54016 3.7886,0.54016 0.2526,0.034 0.2525,0.034 z m -22.9272,-3.87161 0.1096,0.0115 2.795,-0.79814 2.795,-0.79815 1.8521,-0.54053 1.8522,-0.54055 1.768,-0.51811 1.768,-0.51812 2.4415,-0.71933 2.4416,-0.71933 1.81,-0.54244 1.8101,-0.54246 2.8624,-0.93582 2.8625,-0.93581 -1.305,-0.14945 -1.3049,-0.14945 -1.6837,-0.26405 -1.6838,-0.26405 -1.4734,-0.29677 -1.4733,-0.29678 -1.768,-0.44738 -1.768,-0.44739 -1.5025,-0.4745 -1.5024,-0.47448 -1.5617,-0.58737 -1.5618,-0.58737 -0.022,0.0228 -0.022,0.0228 -1.2277,1.8376 -1.2277,1.8376 -1.0114,1.40773 -1.0114,1.40772 -1.4519,1.86101 -1.4518,1.861 -0.8209,1.00647 -0.8208,1.00646 v 0.0904 0.0904 l 0.1894,0.0365 0.1894,0.0365 z m -2.029,-0.50031 0.017,0.007 0.3152,-0.56829 0.3153,-0.56828 1.1911,-1.89428 1.1912,-1.89428 1.3323,-2.10476 1.3324,-2.10476 0.8684,-1.38349 0.8683,-1.38349 -0.021,-0.0209 -0.021,-0.0209 -1.6404,0.50458 -1.6405,0.50458 -3.6623,1.04028 -3.6623,1.04028 -2.1889,0.59597 -2.189,0.59596 -1.347,0.37797 -1.3471,0.37797 -1.445,0.38002 -1.445,0.38002 -0.186,0.0688 -0.186,0.0688 0.7891,0.50632 0.7891,0.50631 0.526,0.31482 0.526,0.31481 1.7051,0.82522 1.705,0.82522 1.0945,0.42494 1.0945,0.42493 2.3994,0.83778 2.3994,0.83778 0.2526,0.0884 0.2526,0.0884 0.017,0.007 z m -14.6084,-6.73126 0.058,0.003 0.237,-0.0931 0.237,-0.0931 2.0206,-0.70153 2.0206,-0.70153 1.6838,-0.58768 1.6838,-0.58768 3.2413,-1.13721 3.2413,-1.13721 3.1908,-1.14124 3.1907,-1.14125 0.035,-0.0349 0.035,-0.0349 -0.9525,-0.57111 -0.9526,-0.57112 -0.884,-0.58479 -0.884,-0.58478 -1.0524,-0.82028 -1.0523,-0.82026 -1.0144,-0.92512 -1.0143,-0.92511 -0.9221,-1.02129 -0.922,-1.02131 -0.058,-9.2e-4 -0.058,-9.3e-4 -1.5879,1.91533 -1.5878,1.91533 -1.8964,2.31523 -1.8964,2.31523 -1.2595,1.59962 -1.2595,1.59961 -0.805,1.09447 -0.805,1.09448 -0.3252,0.49213 -0.3251,0.49214 0.1225,0.0704 0.1225,0.0704 0.1683,0.12937 0.1684,0.12937 0.058,0.003 z m -1.6152,-1.17988 0.042,0.002 0.6423,-0.98814 0.6424,-0.98814 0.8153,-1.17867 0.8154,-1.17866 0.605,-0.84867 0.605,-0.84868 2.0205,-2.8364 2.0206,-2.8364 1.1198,-1.60759 1.1198,-1.60759 -0.025,-0.0216 -0.025,-0.0216 -2.6098,0.61871 -2.6099,0.61871 -1.4734,0.34476 -1.4733,0.34476 -2.8625,0.66279 -2.8624,0.66279 -1.3892,0.33183 -1.3891,0.33185 -0.3283,0.0739 -0.3284,0.0739 -0.091,0.1442 -0.091,0.1442 0.1514,0.73864 0.1513,0.73863 0.2136,0.63143 0.2136,0.63143 0.4454,0.89824 0.4453,0.89824 0.4404,0.65928 0.4404,0.65928 0.6088,0.76037 0.6087,0.76038 0.7067,0.74799 0.7067,0.74799 0.9682,0.86721 0.9682,0.86721 0.042,0.002 z m 45.9594,-0.44405 0.118,-0.0151 0.1183,-0.33676 0.1184,-0.33676 0.8859,-2.82038 0.8859,-2.82037 0.5378,-1.86465 0.5378,-1.86464 0.5176,-2.00811 0.5176,-2.00811 0.1924,-0.90806 0.1925,-0.90807 -0.146,0.0463 -0.146,0.0463 -0.9612,0.55147 -0.9612,0.55148 -3.4518,1.71277 -3.4517,1.71279 -2.8624,1.32322 -2.8625,1.32324 -2.8204,1.25949 -2.8204,1.25948 -0.7812,0.34509 -0.7812,0.34509 0.1077,0.0979 0.1077,0.0979 1.2208,0.53119 1.2207,0.53119 1.8522,0.69132 1.8522,0.69132 1.8503,0.5681 1.8504,0.56811 1.7698,0.44754 1.7699,0.44756 1.8521,0.37862 1.8521,0.37863 z m -20.3655,-6.87757 0.042,-8.4e-4 0.6469,-1.11465 0.6469,-1.11466 0.6668,-1.22076 0.6668,-1.22075 0.8987,-1.71062 0.8987,-1.71062 0.8047,-1.69274 0.8046,-1.69275 0.3775,-0.84825 0.3775,-0.84824 0.378,-0.91398 0.3781,-0.91399 -0.031,-0.0312 -0.031,-0.0312 -1.1315,0.46833 -1.1315,0.46833 -1.0945,0.44918 -1.0944,0.44918 -1.3892,0.52002 -1.3891,0.52003 -1.7259,0.58586 -1.7259,0.58586 -2.0206,0.61805 -2.0205,0.61805 -1.5997,0.4386 -1.5996,0.4386 -0.074,0.0691 -0.074,0.0691 0.6305,0.74268 0.6304,0.74269 0.959,0.96896 0.9589,0.96897 0.8419,0.72247 0.8419,0.72247 1.0524,0.79833 1.0524,0.79832 0.5472,0.38566 0.5472,0.38566 1.2208,0.76572 1.2207,0.76571 0.042,-8.4e-4 z m 4.4079,-1.59688 0.433,-0.15138 1.6838,-0.63223 1.6838,-0.63221 2.3994,-0.92564 2.3995,-0.92563 1.768,-0.71547 1.768,-0.71547 1.2206,-0.50636 1.2208,-0.50636 1.6838,-0.72733 1.6838,-0.72733 1.3681,-0.67322 1.3681,-0.67321 v -0.0639 -0.0639 l -0.5262,-0.10611 -0.5262,-0.10611 -1.4312,-0.41181 -1.4313,-0.41183 -1.2495,-0.42662 -1.2495,-0.42662 -1.0236,-0.41052 -1.0236,-0.41053 -0.9171,-0.39316 -0.9171,-0.39316 -1.1876,-0.59376 -1.1877,-0.59375 -0.9545,-0.54679 -0.9545,-0.54678 -0.063,0.0726 -0.063,0.0726 -0.4046,1.17866 -0.4046,1.17867 -0.6088,1.51542 -0.6087,1.51542 -0.7168,1.59962 -0.7168,1.59961 -0.7188,1.47333 -0.7188,1.47333 -0.7549,1.44467 -0.755,1.44467 z m -36.9701,-3.28519 h 0.1069 l 2.2731,-0.62547 2.2731,-0.62547 2.1889,-0.63379 2.189,-0.63379 2.0627,-0.59794 2.0626,-0.59794 1.948,-0.58281 1.9479,-0.5828 0.2171,-0.0825 0.2171,-0.0825 -0.5944,-1.24498 -0.5943,-1.24498 -0.3239,-0.96819 -0.3238,-0.96819 -0.1524,-0.71561 -0.1523,-0.71562 0.01,-1.768 0.01,-1.76799 0.1256,-0.75771 0.1256,-0.75772 -0.025,-0.0294 -0.025,-0.0294 -0.7424,0.39984 -0.7424,0.39985 -1.8522,1.02595 -1.8522,1.02595 -0.7998,0.4948 -0.7998,0.4948 -0.974,0.73304 -0.9739,0.73305 -0.8589,0.81666 -0.8589,0.81667 -0.7846,0.89485 -0.7846,0.89485 -0.6004,0.81204 -0.6005,0.81205 -0.4541,0.74547 -0.454,0.74548 -0.3796,0.75771 -0.3795,0.75771 -0.2176,0.60551 -0.2176,0.6055 -0.121,0.48897 -0.1211,0.48897 -0.053,0.23152 -0.053,0.23153 z m 57.9204,-6.30849 0.059,-0.21626 0.2097,-1.47333 0.2098,-1.47333 0.1718,-1.59961 0.1717,-1.59962 0.127,-1.64171 0.1269,-1.64171 0.084,-2.23104 0.084,-2.23104 8e-4,-0.40243 8e-4,-0.40242 -0.8208,0.62251 -0.8209,0.6225 -1.3049,0.88519 -1.305,0.88519 -1.2321,0.76351 -1.2321,0.76351 -1.3357,0.7895 -1.3357,0.7895 -1.6416,0.88781 -1.6417,0.8878 -0.9202,0.4867 -0.9202,0.4867 0.2366,0.18862 0.2366,0.18863 1.6939,1.00761 1.6939,1.00762 0.9681,0.5085 0.9681,0.5085 1.3892,0.62801 1.3891,0.62802 1.0524,0.40461 1.0524,0.40461 1.2628,0.39181 1.2629,0.39181 0.059,-0.21627 z m -37.8174,-0.59511 h 0.061 l 0.2186,-0.33027 0.2186,-0.33026 1.4061,-2.30068 1.4062,-2.30069 0.7892,-1.37562 0.7892,-1.37563 0.7863,-1.44474 0.7862,-1.44475 0.9005,-1.80071 0.9004,-1.80071 0.1969,-0.44524 0.1969,-0.44524 -0.3504,0.15045 -0.3505,0.15044 -2.0206,0.90811 -2.0205,0.9081 -2.0627,0.98069 -2.0627,0.9807 -0.5472,0.29089 -0.5472,0.2909 -0.096,0.29466 -0.096,0.29467 -0.1449,1.02214 -0.145,1.02213 0.038,1.62986 0.038,1.62986 0.1862,0.7998 0.1862,0.79981 0.2899,0.86864 0.29,0.86864 0.3494,0.75202 0.3494,0.75203 z m 3.7244,-0.10483 0.1053,-0.0386 4.1253,-1.36791 4.1253,-1.3679 2.5257,-0.91412 2.5257,-0.91412 1.5996,-0.62267 1.5997,-0.62268 v -0.0834 -0.0834 l -0.8857,-0.75715 -0.8857,-0.75716 -0.854,-0.91869 -0.854,-0.91869 -0.4913,-0.5904 -0.4914,-0.5904 -0.4884,-0.65078 -0.4883,-0.65078 -0.5511,-0.90567 -0.5512,-0.90567 -0.484,-0.96819 -0.4841,-0.96819 -0.2367,-0.61038 -0.2367,-0.61038 h -0.068 -0.068 l -0.2765,0.13211 -0.2765,0.13211 -0.4121,1.1097 -0.4121,1.1097 -0.5012,1.17866 -0.5012,1.17866 -0.6335,1.38914 -0.6334,1.38914 -1.1277,2.25437 -1.1277,2.25438 -0.6856,1.23952 -0.6856,1.23952 -0.66,1.0782 -0.66,1.07821 v 0.0463 0.0463 z m 20.4583,-7.43671 0.1894,-0.0599 1.5575,-0.69461 1.5575,-0.6946 1.4142,-0.67979 1.4141,-0.6798 1.4483,-0.77489 1.4483,-0.7749 1.2207,-0.71191 1.2208,-0.71191 1.5403,-1.01145 1.5403,-1.01144 -0.025,-0.10808 -0.025,-0.10809 -1.7984,-0.89336 -1.7984,-0.89336 -1.6955,-0.95642 -1.6954,-0.95643 -1.4734,-0.87932 -1.4732,-0.87932 -1.1186,-0.67805 -1.1185,-0.67806 -0.1667,0.0436 -0.1666,0.0436 -0.048,0.0781 -0.048,0.0781 -0.07,2.03755 -0.071,2.03755 -0.1355,1.17866 -0.1355,1.17866 -0.21,1.30495 -0.21,1.30495 -0.2135,1.05238 -0.2135,1.05238 -0.4154,1.66852 -0.4155,1.66853 v 0.0841 0.0841 z m -2.6038,-0.14275 0.099,-0.0329 0.275,-0.91919 0.2751,-0.91919 0.3316,-1.30495 0.3315,-1.30495 0.2106,-1.05237 0.2106,-1.05238 0.1778,-1.17867 0.1779,-1.17866 0.048,-2.37837 0.048,-2.37838 h -0.05 -0.05 l -0.1934,0.0821 -0.1934,0.0821 -1.1366,0.41519 -1.1366,0.41519 -1.6417,0.63051 -1.6417,0.6305 -1.7259,0.68994 -1.7259,0.68995 -0.034,0.033 -0.034,0.033 0.3202,0.7802 0.3202,0.7802 0.2792,0.56112 0.2792,0.56112 0.4751,0.78592 0.4752,0.78593 0.642,0.884 0.642,0.884 0.7244,0.8419 0.7243,0.8419 1.198,1.1626 1.198,1.16259 z m -21.4957,-7.93133 0.6314,-0.40268 1.305,-0.89004 1.3049,-0.89005 1.3892,-1.04708 1.3891,-1.04709 1.0228,-0.86977 1.0228,-0.86978 1.3345,-1.2504 1.3346,-1.25041 1.1786,-1.25665 1.1787,-1.25665 0.5498,-0.63143 0.5498,-0.63142 0.1237,-0.1635 0.1237,-0.16349 -0.1263,0.0721 -0.1262,0.0721 -2.7783,1.86646 -2.7783,1.86647 -1.0524,0.74248 -1.0524,0.74248 -0.8264,0.62587 -0.8265,0.62587 -0.4785,0.5945 -0.4785,0.5945 -0.8265,1.01747 -0.8265,1.01747 -1.1152,1.22214 -1.1153,1.22213 -0.3314,0.37056 -0.3313,0.37056 z m 3.3255,-0.0673 0.9261,-0.46158 1.3891,-0.65138 1.3892,-0.65137 1.2628,-0.54591 1.2629,-0.54591 1.3049,-0.54668 1.305,-0.54668 1.8522,-0.74253 1.8522,-0.74254 1.9784,-0.77448 1.9785,-0.77449 0.015,-0.0123 0.015,-0.0123 -0.1189,-0.68497 -0.1188,-0.68497 -0.2896,-0.8839 -0.2895,-0.88389 -0.4225,-0.8533 -0.4226,-0.85331 -0.4426,-0.67095 -0.4427,-0.67094 h -0.065 -0.065 l -0.6544,0.77548 -0.6544,0.77549 -0.8528,0.97146 -0.8529,0.97146 -1.2098,1.22948 -1.2098,1.22948 -0.8032,0.74899 -0.8033,0.749 -1.4699,1.26796 -1.4699,1.26797 -1.0102,0.79784 -1.0103,0.79784 -1.305,0.95886 -1.3049,0.95887 -0.084,0.0779 -0.084,0.0779 z m 35.4102,-0.81837 h 0.058 l 0.049,-0.12775 0.049,-0.12774 -0.124,-1.91387 -0.1241,-1.91387 -0.1305,-1.47333 -0.1305,-1.47333 -0.1659,-1.29953 -0.1659,-1.29952 -0.019,-0.0157 -0.019,-0.0157 -2.2731,0.70503 -2.2732,0.70504 -2.5472,0.8489 -2.5472,0.84889 0.049,0.0797 0.049,0.0797 2.2033,1.45885 2.2034,1.45885 1.5575,0.95579 1.5576,0.95579 1.3432,0.78194 1.3432,0.78194 z m -17.1708,-7.24037 0.4254,-0.46304 1.1988,-1.43124 1.1988,-1.43123 1.8889,-2.35733 1.8889,-2.35733 1.0868,-1.4239 1.0869,-1.42391 1.4999,-2.09898 1.5,-2.09898 v -0.0353 -0.0353 l -0.3158,0.13169 -0.3157,0.13169 -2.2009,1.12887 -2.2008,1.12888 -0.3669,0.20195 -0.3669,0.20195 -1.4312,0.78068 -1.4313,0.78067 -1.6417,0.92438 -1.6417,0.92437 -1.0834,0.64317 -1.0834,0.64318 -0.04,0.10236 -0.04,0.10237 0.4339,0.93388 0.434,0.93389 0.288,0.87897 0.2879,0.87897 0.1723,0.84577 0.1724,0.84576 0.08,1.02757 0.08,1.02758 0.01,0.21047 0.01,0.21048 0.4255,-0.46305 z m 1.9663,-0.28854 0.3367,-0.12616 3.1572,-1.13059 3.157,-1.1306 3.1151,-1.01486 3.115,-1.01486 1.8101,-0.55793 1.8101,-0.55793 3.1992,-0.91337 3.1992,-0.91336 0.5814,-0.15881 0.5814,-0.15881 -1.269,-1.15889 -1.2691,-1.15889 -1.1645,-0.9679 -1.1645,-0.9679 -1.1366,-0.85587 -1.1366,-0.85588 -1.628,-1.11316 -1.628,-1.11316 -0.7824,1.17187 -0.7823,1.17187 -0.9699,1.28717 -0.9699,1.28716 -0.8968,1.09448 -0.8969,1.09447 -1.1093,1.26285 -1.1092,1.26286 -2.2328,2.23818 -2.2328,2.23819 -1.0103,0.943 -1.0103,0.943 z m -15.9924,-1.18617 0.4169,-0.33538 0.6315,-0.51404 0.6316,-0.51405 2.2311,-1.67506 2.231,-1.67506 0.7367,-0.5426 0.7366,-0.5426 -10e-4,-0.0466 -10e-4,-0.0466 -0.6947,-0.516 -0.6948,-0.516 -0.7812,-0.47374 -0.7813,-0.47373 -0.4274,-0.21658 -0.4274,-0.21659 -0.069,0.0697 -0.069,0.0697 -0.2659,0.79981 -0.2659,0.7998 -0.4245,1.05238 -0.4246,1.05238 -0.5261,1.05238 -0.5262,1.05238 -0.3746,0.63142 -0.3746,0.63143 -0.3762,0.58933 -0.3763,0.58933 -0.075,0.12491 -0.075,0.12491 0.4169,-0.33539 z m 41.884,-7.1568 0.059,-0.0363 0.4614,-0.57018 0.4613,-0.57017 2.7632,-3.4939 2.7631,-3.49389 0.7685,-0.96819 0.7686,-0.96819 0.8866,-1.13657 0.8866,-1.13657 1.0258,-1.36429 1.0258,-1.36429 0.925,-1.40968 0.9251,-1.40969 v -0.0621 -0.0621 l -0.6104,0.16696 -0.6104,0.16695 -1.5575,0.46359 -1.5575,0.46359 -3.2413,1.08209 -3.2413,1.08208 -2.505,0.9322 -2.505,0.9322 -1.0731,0.43441 -1.0731,0.43441 -1.8943,0.79337 -1.8943,0.79338 -0.5683,0.2598 -0.5682,0.25981 v 0.0507 0.0507 l 0.5223,0.39379 0.5224,0.39378 0.7577,0.64715 0.7577,0.64715 0.8752,0.80858 0.8752,0.80857 0.8874,0.97087 0.8873,0.97086 0.8211,1.02833 0.8211,1.02834 0.6931,1.00938 0.6931,1.00938 0.059,-0.0363 z m 2.3626,-0.46111 0.05,8e-5 1.4649,-0.34146 1.4649,-0.34145 1.7259,-0.37933 1.7259,-0.37933 1.4179,-0.28819 1.418,-0.28819 2.0338,-0.37791 2.0339,-0.37792 1.8522,-0.30053 1.8521,-0.30054 1.1366,-0.16719 1.1366,-0.16719 1.9785,-0.24557 1.9784,-0.24557 2.3153,-0.21287 2.3152,-0.21287 0.3578,-0.0186 0.3578,-0.0186 v -0.0772 -0.0772 l -2.2521,-2.24879 -2.2521,-2.2488 -0.884,-0.75446 -0.884,-0.75447 -0.8419,-0.67438 -0.8419,-0.67438 -0.6735,-0.50858 -0.6735,-0.50859 -1.1241,-0.77825 -1.124,-0.77826 -1.0571,-0.67404 -1.0571,-0.67403 -0.9512,-0.54003 -0.9513,-0.54004 -0.1089,0.001 -0.109,10e-4 -1.039,2.05944 -1.039,2.05944 -0.7749,1.28607 -0.7748,1.28606 -0.4517,0.67352 -0.4517,0.67352 -0.6758,0.884 -0.6759,0.884 -0.8051,0.96457 -0.805,0.96457 -0.9584,1.0139 -0.9584,1.0139 -1.7357,1.70478 -1.7357,1.70478 z m -33.8731,-0.26057 0.1061,-0.14907 0.6405,-1.11903 0.6405,-1.11903 0.6127,-1.22287 0.6127,-1.22287 0.3971,-0.92609 0.3971,-0.92609 0.417,-1.09447 0.417,-1.09448 0.5016,-1.76209 0.5017,-1.76209 -0.023,-0.0659 -0.023,-0.0659 -1.6493,1.32285 -1.6492,1.32286 -0.4553,0.37886 -0.4552,0.37885 -1.179,1.00872 -1.1789,1.00872 -0.7998,0.7131 -0.7998,0.71311 -1.0734,1.00288 -1.0734,1.00288 v 0.0652 0.0652 l 0.6945,0.35884 0.6946,0.35884 0.7391,0.50334 0.7392,0.50334 1.0709,0.9857 1.071,0.9857 z m 3.7138,-2.1965 0.3055,-0.18507 0.8785,-0.5393 0.8784,-0.5393 1.7433,-0.99943 1.7432,-0.99943 1.5878,-0.84987 1.5877,-0.84988 1.5996,-0.804 1.5996,-0.804 0.07,-0.0646 0.07,-0.0646 -1.5011,-0.80072 -1.5012,-0.80072 -1.5155,-0.75411 -1.5153,-0.7541 -1.0735,-0.4897 -1.0735,-0.48971 -0.042,0.0419 -0.042,0.0419 -0.3727,1.4664 -0.3728,1.46639 -0.3776,1.13657 -0.3776,1.13657 -0.4446,1.13656 -0.4446,1.13657 -0.8575,1.70539 -0.8576,1.70538 z m -8.8494,-3.94285 0.511,-0.46151 1.9225,-1.81866 1.9225,-1.81867 1.2208,-1.08687 1.2207,-1.08686 0.8419,-0.7047 0.8419,-0.70471 0.3158,-0.28334 0.3157,-0.28335 v -0.0349 -0.0349 l -0.6525,-0.24821 -0.6525,-0.24822 -1.6838,-0.5515 -1.6838,-0.5515 -0.7156,-0.21287 -0.7156,-0.21288 -1.1787,-0.29516 -1.1787,-0.29516 -0.7366,-0.16381 -0.7367,-0.1638 v 0.0301 0.0301 l 0.127,0.91045 0.127,0.91046 0.1279,1.21824 0.1279,1.21825 0.051,2.10476 0.051,2.10475 -0.098,1.30495 -0.098,1.30495 -0.053,0.29313 -0.053,0.29313 z m 24.0578,-5.22223 0.086,0.004 0.2633,-0.442 0.2634,-0.442 0.7395,-1.34705 0.7396,-1.34704 0.5826,-1.21808 0.5827,-1.21808 0.4875,-1.13966 0.4874,-1.13967 0.4241,-1.26244 0.4241,-1.26243 0.2072,-1.01029 0.2072,-1.01028 0.054,-0.36604 0.054,-0.36604 -0.9915,0.52766 -0.9916,0.52766 -1.6838,0.96603 -1.6838,0.96604 -1.1365,0.68915 -1.1366,0.68914 -0.7156,0.44904 -0.7156,0.44904 -1.8101,1.17576 -1.8101,1.17575 -1.0297,0.72582 -1.0297,0.72583 v 0.0421 0.0421 l 1.5753,0.66819 1.5753,0.6682 1.6839,0.82251 1.6838,0.82251 1.2628,0.71532 1.2629,0.71532 0.085,0.004 z m 3.5978,-0.42742 0.442,-0.17635 1.3891,-0.54736 1.3892,-0.54736 1.3891,-0.50593 1.3891,-0.50594 2.2927,-0.74476 2.2927,-0.74476 1.9169,-0.54628 1.9168,-0.54628 1.5575,-0.41339 1.5575,-0.41339 1.9153,-0.45305 1.9154,-0.45304 v -0.0463 -0.0463 l -1.1156,-0.49251 -1.1155,-0.49251 -1.768,-0.71014 -1.768,-0.71014 -2.231,-0.78313 -2.2311,-0.78313 -1.2207,-0.38352 -1.2208,-0.38353 -1.6838,-0.47322 -1.6838,-0.47321 -0.463,-0.13174 -0.4631,-0.13173 -0.4911,-0.11649 -0.491,-0.11648 -0.077,0.0477 -0.077,0.0477 -9e-4,0.31074 -8e-4,0.31075 -0.1717,1.17866 -0.1716,1.17866 -0.215,0.96819 -0.215,0.96819 -0.3688,1.28717 -0.3687,1.28717 -0.5436,1.44901 -0.5437,1.44902 -0.5527,1.21625 -0.5527,1.21625 v 0.0664 0.0664 l 0.442,-0.17636 z m -16.5644,-5.48002 0.084,-0.0745 v -2.37419 -2.37419 l -0.1086,-0.884 -0.1087,-0.88399 -0.1678,-0.96819 -0.1679,-0.96819 -0.3276,-1.26285 -0.3276,-1.26286 -0.09,-0.23665 -0.09,-0.23665 -0.6105,0.42357 -0.6105,0.42357 -1.6048,1.24432 -1.6049,1.24431 -1.1734,0.96579 -1.1734,0.96579 -1.5155,1.49923 -1.5154,1.49924 0.1263,0.0737 0.1263,0.0737 2.9466,0.8467 2.9467,0.84671 1.1366,0.33905 1.1365,0.33905 1.305,0.40801 1.3049,0.40801 z m 2.125,-0.23448 h 0.037 l 1.4545,-0.95981 1.4545,-0.95981 1.4635,-0.87986 1.4635,-0.87985 1.768,-0.93695 1.768,-0.93695 2.3153,-1.08029 2.3152,-1.08028 0.2474,-0.13176 0.2474,-0.13175 -0.4579,-0.0997 -0.4579,-0.0996 -1.1786,-0.25117 -1.1787,-0.25117 -1.2628,-0.25275 -1.2629,-0.25275 -1.5154,-0.28515 -1.5155,-0.28515 -1.0102,-0.18014 -1.0103,-0.18013 -2.9,-0.49653 -2.9001,-0.49653 -0.027,0.0275 -0.028,0.0275 0.3746,0.95924 0.3746,0.95925 0.3024,0.99912 0.3023,0.99913 0.208,1.02682 0.2079,1.02682 0.1223,1.047 0.1223,1.047 0.06,1.49437 0.06,1.49438 z m -14.9503,-4.2937 h 0.061 l 0.91,-0.87336 0.91,-0.87336 0.6315,-0.52785 0.6314,-0.52784 0.7998,-0.6047 0.7998,-0.6047 0.7998,-0.53729 0.7998,-0.5373 1.7931,-1.06951 1.7931,-1.06952 -0.069,-0.0425 -0.069,-0.0425 -2.4629,-0.42919 -2.4629,-0.42919 -1.9135,-0.37248 -1.9134,-0.37248 -2.0627,-0.43073 -2.0626,-0.43073 -0.2736,-0.0486 -0.2737,-0.0485 v 0.0387 0.0387 l 0.4714,1.04577 0.4714,1.04578 0.578,1.4554 0.5779,1.45541 0.5828,1.78592 0.5829,1.78592 0.1544,0.61038 0.1545,0.61038 z m -2.0763,-0.8419 h 0.042 v -0.0421 -0.0421 h -0.042 -0.042 v 0.0421 0.0421 z m -0.062,-0.20417 0.031,-0.0314 -0.098,-0.36631 -0.098,-0.3663 -0.6637,-2.24718 -0.6636,-2.24718 -0.6131,-1.91683 -0.6132,-1.91683 -2.3145,-0.60607 -2.3145,-0.60607 -1.347,-0.42159 -1.3471,-0.42158 0.2918,0.22444 0.2917,0.22444 0.7185,0.572 0.7186,0.57201 1.0824,0.98551 1.0824,0.98552 0.8572,0.92609 0.8573,0.92609 0.6353,0.75771 0.6353,0.75772 0.5098,0.6774 0.5097,0.6774 0.5822,0.88012 0.5822,0.88012 0.3273,0.5661 0.3273,0.5661 z m 16.7193,-7.97233 0.072,0.01 -0.1873,-0.31571 -0.1873,-0.31572 -0.6327,-1.17866 -0.6327,-1.17866 -0.7881,-1.59275 -0.788,-1.59274 -0.033,-0.0328 -0.033,-0.0328 -0.8301,0.70403 -0.83,0.70403 -0.6735,0.50413 -0.6735,0.50413 -0.5473,0.38528 -0.5472,0.38529 -1.2046,0.71941 -1.2045,0.71942 0.1521,0.0445 0.1522,0.0445 3.4097,0.55241 3.4097,0.55241 1.2629,0.20007 1.2628,0.20006 z m -12.9008,-2.10376 0.1359,0.009 1.5479,-0.9366 1.5479,-0.9366 1.8101,-0.99128 1.8101,-0.99128 1.1521,-0.57261 1.1522,-0.57261 -0.042,-0.0673 -0.042,-0.0673 -0.3108,-5e-5 -0.3107,-6e-5 -1.5154,-0.17094 -1.5155,-0.17095 -1.9363,-0.29774 -1.9364,-0.29773 -1.8522,-0.33501 -1.8522,-0.33501 -1.5996,-0.33928 -1.5996,-0.33928 -1.5154,-0.37012 -1.5155,-0.37012 -0.9555,-0.30259 -0.9555,-0.30259 -0.028,0.0276 -0.028,0.0276 1.0673,1.00486 1.0673,1.00485 3.3166,3.20377 3.3167,3.20378 0.7245,0.13829 0.7244,0.13829 z m -5.4537,-0.92708 0.07,0.01 -0.5411,-0.65247 -0.5411,-0.65248 -2.4283,-3.03085 -2.4284,-3.03085 -0.085,0.0265 -0.085,0.0265 -0.8673,0.67919 -0.8674,0.67918 -0.8632,0.89491 -0.8632,0.89492 -0.28,0.55501 -0.2799,0.55501 -0.044,0.32799 -0.044,0.32799 0.6603,0.22937 0.6603,0.22937 1.2207,0.33155 1.2208,0.33156 0.9682,0.21323 0.9682,0.21323 1.5575,0.29778 1.5575,0.29778 0.6314,0.11774 0.6315,0.11774 z m 13.8771,-5.71491 h 0.1544 v -0.13193 -0.13193 l -0.5014,-1.58329 -0.5014,-1.58329 -0.2927,-1.16829 -0.2928,-1.1683 -0.1687,-0.884 -0.1686,-0.88399 -0.1738,-1.24116 -0.1738,-1.24115 v -0.0382 -0.0382 l -0.442,0.15696 -0.442,0.15696 -0.8419,0.33349 -0.8419,0.33349 -2.4415,1.02712 -2.4415,1.02712 -1.5154,0.67957 -1.5154,0.67957 -1.2208,0.62586 -1.2208,0.62585 -1.2894,0.68584 -1.2893,0.68584 0.1528,0.0592 0.1528,0.0592 2.6941,0.39052 2.6941,0.39051 2.5678,0.41999 2.5678,0.42 1.6417,0.29073 1.6417,0.29073 1.6417,0.34288 1.6417,0.34288 0.035,0.0347 0.035,0.0347 z M 971.08589,490.57196 h -0.3721 l -0.2193,-0.2033 -0.2194,-0.2033 -0.056,-0.22333 -0.056,-0.22332 0.076,-0.26642 0.076,-0.26642 0.292,-0.1982 0.2919,-0.19819 0.3368,0.0441 0.3367,0.0441 0.2316,0.25909 0.2315,0.25911 v 0.25541 0.25543 l -0.1272,0.24589 -0.1271,0.2459 -0.162,0.0867 -0.162,0.0867 z"
       id="path4625"
       inkscape:export-filename="..\Documents\Luciana web site\Luciana\assets\img\ssms.svg"
       inkscape:export-xdpi="90"
       inkscape:export-ydpi="90" /></g></svg>
