<?xml version="1.0" encoding="UTF-8" standalone="no"?>
<!-- Created with Inkscape (http://www.inkscape.org/) -->

<svg
   width="270.32065mm"
   height="267.11829mm"
   viewBox="0 0 270.32065 267.11829"
   version="1.1"
   id="svg5"
   inkscape:version="1.2.2 (732a01da63, 2022-12-09)"
   sodipodi:docname="dessin-1.svg"
   xml:space="preserve"
   xmlns:inkscape="http://www.inkscape.org/namespaces/inkscape"
   xmlns:sodipodi="http://sodipodi.sourceforge.net/DTD/sodipodi-0.dtd"
   xmlns="http://www.w3.org/2000/svg"
   xmlns:svg="http://www.w3.org/2000/svg"><sodipodi:namedview
     id="namedview7"
     pagecolor="#ffffff"
     bordercolor="#999999"
     borderopacity="1"
     inkscape:pageshadow="0"
     inkscape:pageopacity="0"
     inkscape:pagecheckerboard="0"
     inkscape:document-units="mm"
     showgrid="false"
     inkscape:snap-global="false"
     inkscape:zoom="0.7096503"
     inkscape:cx="4040.7226"
     inkscape:cy="3352.3554"
     inkscape:window-width="2880"
     inkscape:window-height="1586"
     inkscape:window-x="2869"
     inkscape:window-y="-11"
     inkscape:window-maximized="1"
     inkscape:current-layer="layer1"
     inkscape:showpageshadow="0"
     inkscape:deskcolor="#d1d1d1"
     showguides="true"><sodipodi:guide
       position="477.12922,167.32996"
       orientation="0,-1"
       id="guide1923"
       inkscape:locked="false" /><sodipodi:guide
       position="578.77557,-3.2489829"
       orientation="0,-1"
       id="guide1925"
       inkscape:locked="false" /><sodipodi:guide
       position="509.25881,57.505158"
       orientation="0,-1"
       id="guide1927"
       inkscape:locked="false" /></sodipodi:namedview><defs
     id="defs2" /><g
     inkscape:label="Calque 1"
     inkscape:groupmode="layer"
     id="layer1"
     transform="translate(398.26566,-272.91497)"><path
       style="fill:#ffb727;fill-opacity:1;stroke-width:1"
       d="m -258.97393,515.39897 v -24.63428 h 2.58222 2.5822 v 24.63428 24.63427 h -2.5822 -2.58222 z m -125.71671,11.71137 v -8.39988 h -6.7875 -6.78753 v -2.66536 -2.66534 h 6.78753 6.7875 v -7.8345 -7.83452 h 2.58223 2.58221 v 7.83452 7.8345 h 6.78752 6.78751 v 2.66534 2.66536 h -6.78751 -6.78752 v 8.39988 8.39988 h -2.58221 -2.58223 z m 163.04808,8.30456 c -0.20289,-0.0407 -0.99967,-0.18562 -1.77065,-0.32206 -15.16229,-2.68355 -12.337,-28.16194 2.94299,-26.53976 6.25061,0.66359 9.35411,4.88118 9.94086,13.50925 l 0.0576,0.84806 h -8.76067 c -9.95129,0 -8.83374,-0.24704 -8.35945,1.84798 1.17172,5.17548 7.50344,6.91389 14.36718,3.94458 1.43869,-0.62238 1.288,-0.87056 1.33784,2.20349 l 0.0419,2.58458 -1.21821,0.53549 c -2.39119,1.05111 -6.74646,1.75591 -8.57941,1.38839 z m 5.24664,-17.47175 c -0.69881,-5.42447 -8.10412,-5.68349 -10.68918,-0.37389 -0.58443,1.20041 -1.11832,1.0917 5.49618,1.1192 l 5.29185,0.0221 z m -120.6345,17.09341 c -7.55812,-0.73582 -12.09148,-8.20743 -10.33947,-17.04093 1.53065,-7.71743 9.25296,-11.81676 16.00909,-8.49827 l 0.97035,0.47663 v -0.88169 -0.8817 h 2.60358 2.6036 l -0.0913,12.31714 c -0.10749,14.50726 0.0451,13.06739 -1.4319,13.51052 -3.39739,1.0193 -6.76424,1.34486 -10.32396,0.9983 z m 5.92218,-5.46864 c 0.46679,-0.20887 0.50748,-0.77059 0.66018,-9.11719 l 0.0937,-5.12502 -1.20086,-0.63574 c -2.26903,-1.20124 -4.89639,-1.31764 -6.84028,-0.30304 -5.58014,2.91251 -4.85635,13.68458 1.02822,15.3028 0.73008,0.20077 5.75667,0.10294 6.25897,-0.12181 z m 150.9286,5.5233 c -8.05334,-0.9798 -12.51203,-8.44051 -10.41699,-17.43075 1.76917,-7.59182 9.6505,-11.62448 15.90753,-8.13943 0.87539,0.4876 1.00186,0.42413 1.00186,-0.50276 v -0.80768 h 2.6057 2.60569 l -0.0996,10.21717 c -0.0547,5.61944 -0.14159,11.35377 -0.19293,12.74296 l -0.0934,2.5258 -1.49052,0.43056 c -2.9153,0.84213 -7.29689,1.27199 -9.82737,0.96413 z m 5.63058,-5.48398 c 0.56211,-0.15173 0.55955,-0.1228 0.66554,-7.54319 l 0.0963,-6.74241 -1.24109,-0.63406 c -5.36765,-2.74221 -10.1603,0.25905 -10.42232,6.52668 -0.19798,4.73557 1.48401,7.49986 5.19724,8.54161 0.39521,0.11087 5.20754,-0.0145 5.70436,-0.14863 z m -123.3173,4.79267 c -3.24537,-0.91267 -2.86556,-0.11172 -2.86567,-6.04335 -5e-5,-2.77328 -0.0442,-11.20291 -0.0981,-18.73251 l -0.098,-13.6902 h 2.68029 2.68029 v 6.80181 c 0,5.72195 0.0324,6.7882 0.20394,6.71612 10.08074,-4.23488 18.76658,3.95238 16.70524,15.74629 -1.40196,8.02133 -9.54096,11.92041 -19.20801,9.20184 z m 8.77088,-4.71265 c 3.36167,-0.59716 5.3607,-3.88106 5.14453,-8.45119 -0.28508,-6.02726 -4.55662,-8.9418 -10.10414,-6.89423 l -1.51243,0.55823 v 7.1441 7.1441 l 1.14356,0.26628 c 0.62893,0.14646 1.20994,0.29106 1.29109,0.32134 0.34115,0.1273 3.17164,0.0652 4.03739,-0.0886 z m 147.85832,5.17621 c -3.16475,-0.54759 -5.74594,-2.44959 -6.95782,-5.12698 -0.74922,-1.65527 -0.82059,-2.85066 -0.83924,-14.05484 l -0.0111,-6.8249 h 2.64701 2.64704 l 0.0459,9.00564 c 0.0519,10.18628 0.0572,10.22627 1.5536,11.66827 2.19306,2.11332 7.00143,1.51346 8.1824,-1.02078 0.61277,-1.31495 0.6215,-1.44606 0.70476,-10.6071 l 0.0814,-8.96527 2.6191,-0.0441 2.61909,-0.0441 -0.009,8.60553 c -0.009,10.06521 -0.045,10.62678 -0.78509,12.3327 -1.6997,3.91824 -6.92514,6.04035 -12.49889,5.07595 z"
       id="path1171"
       sodipodi:nodetypes="ccccccccccccccccccccccccccccccccccscsscsssscsssssscsssscccccscsssscssssscssscccsscsccsscsssssssccccscsssssscccsssscsscccssssccccscc"
       inkscape:export-filename="..\Documents\Luciana web site\Luciana\assets\img\tableau_logo.svg"
       inkscape:export-xdpi="90"
       inkscape:export-ydpi="90" /><path
       style="fill:#ffb727;fill-opacity:1;stroke-width:0.999996"
       d="m -262.07286,438.60754 v -8.20262 h -7.38234 -7.38234 v -3.44508 -3.4451 h 7.38234 7.38234 v -8.20259 -8.20262 h 3.77319 3.77321 v 8.20262 8.20259 h 7.38232 7.38236 v 3.4451 3.44508 h -7.38236 -7.38232 v 8.20262 8.2026 h -3.77321 -3.77319 z m -46.59078,-21.65487 v -11.81175 h -11.00191 -11.00187 l 0.0925,-3.85524 0.0925,-3.85521 10.90944,-0.0865 10.90949,-0.0865 v -11.64328 -11.64327 h 4.26533 4.26537 v 11.64771 11.64767 h 10.99147 10.99148 v 3.93727 3.93724 h -10.99148 -10.99149 v 11.81176 11.81172 h -4.26535 -4.26533 z m 91.54103,-0.16406 V 404.8128 h -11.00222 -11.00223 l 0.0927,-3.69118 0.0927,-3.69118 10.90945,-0.0865 10.90946,-0.0865 v -11.64326 -11.64326 h 4.26537 4.26533 v 11.64768 11.6477 h 10.99148 10.99152 v 3.77318 3.77321 h -10.99152 -10.99148 v 11.97581 11.97579 h -4.26533 -4.26537 z M -263.48623,390.494 c -0.12498,-0.12497 -0.22713,-6.03279 -0.22713,-13.12854 v -12.9014 l -12.05783,-0.0859 -12.05784,-0.0859 v -4.92156 -4.92158 l 12.05408,-0.0859 12.05406,-0.0859 0.0858,-13.0381 0.0858,-13.03809 5.00356,-0.0908 5.0036,-0.0904 v 13.13271 13.13271 h 12.14838 12.14841 l -0.0904,5.00358 -0.0904,5.0036 -12.05407,0.086 -12.05405,0.0859 -0.0858,13.03808 -0.0857,13.03812 -4.77644,0.0904 c -2.62704,0.0497 -4.87865,-0.0112 -5.00358,-0.13665 z m 71.51829,-11.16397 c -0.12051,-0.12018 -0.21878,-3.88528 -0.21878,-8.36665 v -8.14791 h -7.39382 -7.39382 l 0.0936,-3.36308 0.0933,-3.36305 7.29458,-0.0882 7.29461,-0.0882 0.0878,-8.11432 0.0878,-8.11432 3.69119,-0.0927 3.69117,-0.0927 v 8.21334 8.21336 h 7.38234 7.38234 v 3.44509 3.4451 h -7.38234 -7.38232 v 8.36664 8.36667 h -3.55448 c -1.95498,0 -3.65291,-0.0983 -3.77321,-0.21876 z m -140.97542,-9.29629 v -7.87449 h -7.21827 -7.21829 v -2.78887 -2.78889 h 7.21829 7.21827 v -7.87451 -7.87449 h 2.95294 2.95296 v 7.87449 7.87451 h 7.39615 7.39613 l -0.0959,2.5428 -0.0959,2.54281 -4.92155,0.20369 c -2.70686,0.11202 -5.99201,0.22281 -7.30031,0.24606 l -2.37876,0.0423 v 7.87449 7.87453 h -2.95295 -2.95294 z m 24.27972,-37.5679 v -11.9758 h -11.00224 -11.00223 l 0.0927,-3.69118 0.0927,-3.69117 10.90945,-0.0865 10.90948,-0.0865 v -11.64325 -11.64328 h 4.1013 4.10129 v 11.64769 11.6477 h 11.15554 11.15555 v 3.77318 3.77321 h -11.15555 -11.15553 v 11.97577 11.97581 h -4.1013 -4.10129 z m 91.54103,0.16406 v -11.81174 h -11.00188 -11.00191 l 0.0925,-3.85522 0.0925,-3.85523 10.90946,-0.0865 10.90944,-0.0865 v -11.64323 -11.64326 h 4.26537 4.26536 v 11.64767 11.64769 h 10.99147 10.99152 v 3.93724 3.93725 h -10.99152 -10.99147 v 11.81175 11.81175 h -4.26536 -4.26537 z m -44.29405,-30.34959 v -8.03857 h -7.21827 -7.21829 v -2.62482 -2.62484 h 7.21829 7.21827 v -8.03854 -8.03857 h 2.78889 2.7889 v 8.03857 8.03854 h 7.54639 7.54639 v 2.62484 2.62482 h -7.54639 -7.54639 v 8.03857 8.03851 h -2.7889 -2.78889 z"
       id="path1031"
       sodipodi:nodetypes="cccccccccccccccccccccccccccccccccccccccccccccccccccccccccccccccccccccccccccsscccccccccccccccccccccssscscccccccccccccccccccccscccccccccccccccccccccsccccccccccccccccccccccccccccccccccccccccccccccccccccccccccccccccccccccccccccccccc" /></g></svg>
