<?xml version="1.0" encoding="UTF-8" standalone="no"?>
<!-- Created with Inkscape (http://www.inkscape.org/) -->

<svg
   width="197.17139mm"
   height="57.704346mm"
   viewBox="0 0 197.17139 57.704346"
   version="1.1"
   id="svg5"
   inkscape:version="1.1.1 (3bf5ae0d25, 2021-09-20)"
   sodipodi:docname="dessin-1.svg"
   xml:space="preserve"
   xmlns:inkscape="http://www.inkscape.org/namespaces/inkscape"
   xmlns:sodipodi="http://sodipodi.sourceforge.net/DTD/sodipodi-0.dtd"
   xmlns="http://www.w3.org/2000/svg"
   xmlns:svg="http://www.w3.org/2000/svg"><sodipodi:namedview
     id="namedview7"
     pagecolor="#ffffff"
     bordercolor="#999999"
     borderopacity="1"
     inkscape:pageshadow="0"
     inkscape:pageopacity="0"
     inkscape:pagecheckerboard="0"
     inkscape:document-units="mm"
     showgrid="false"
     inkscape:snap-global="false"
     inkscape:zoom="0.22645918"
     inkscape:cx="1671.3829"
     inkscape:cy="-794.84523"
     inkscape:window-width="2880"
     inkscape:window-height="1586"
     inkscape:window-x="2869"
     inkscape:window-y="-11"
     inkscape:window-maximized="1"
     inkscape:current-layer="layer1"
     inkscape:showpageshadow="0"
     inkscape:deskcolor="#d1d1d1"
     showguides="true"><sodipodi:guide
       position="-1045.4394,591.26068"
       orientation="0,-1"
       id="guide1923"
       inkscape:locked="false" /><sodipodi:guide
       position="-943.793,420.68173"
       orientation="0,-1"
       id="guide1925"
       inkscape:locked="false" /><sodipodi:guide
       position="-1013.3098,481.43587"
       orientation="0,-1"
       id="guide1927"
       inkscape:locked="false" /></sodipodi:namedview><defs
     id="defs2" /><g
     inkscape:label="Calque 1"
     inkscape:groupmode="layer"
     id="layer1"
     transform="translate(-1124.3029,-906.25962)"><path
       style="fill:#ffb727;fill-opacity:1;stroke-width:1"
       d="m 1182.5017,963.88524 -0.9355,0.0787 -0.189,-0.18898 -0.189,-0.18898 v -7.76112 -7.76111 h 1.1907 1.1906 v 0.42731 0.4273 l 0.685,-0.44885 0.6851,-0.44886 1.3864,-0.14309 1.3865,-0.1431 1.209,0.53478 1.2089,0.53478 0.7545,1.28351 0.7544,1.28352 v 2.38125 2.38124 l -0.6615,1.16719 -0.6614,1.16719 -0.6825,0.50445 -0.6825,0.50445 -1.1214,0.25196 -1.1214,0.25195 -1.1065,-0.29456 -1.1066,-0.29456 -0.453,-0.40425 -0.4531,-0.40425 -0.076,2.61168 -0.076,2.61167 z m 4.0575,-6.05275 0.7407,0.0209 0.7291,-0.37703 0.7291,-0.37704 0.3414,-0.74744 0.3414,-0.74745 0.1393,-1.3439 0.1394,-1.34391 -0.5383,-1.217 -0.5383,-1.21699 -0.8491,-0.43908 -0.8491,-0.43907 -0.8861,0.16623 -0.8861,0.16624 -0.8016,0.67444 -0.8015,0.67446 v 2.60429 2.6043 l 0.7276,0.50946 0.7276,0.50946 0.3969,0.14913 0.3969,0.14912 0.7407,0.0209 z m 69.8148,6.1063 h -1.0142 l -0.1764,-0.17639 -0.1764,-0.17638 v -7.76112 -7.76111 h 1.1906 1.1906 v 0.38394 0.38394 l 1.1245,-0.51042 1.1245,-0.51042 h 1.0583 1.0584 l 1.0845,0.49253 1.0845,0.49252 0.5229,0.75844 0.523,0.75843 0.3654,0.91422 0.3653,0.91422 -0.019,1.73162 -0.019,1.73161 -0.4447,1.05472 -0.4448,1.05472 -0.5827,0.62407 -0.5827,0.62406 -0.7784,0.40481 -0.7784,0.40481 h -1.3927 -1.3926 l -0.9378,-0.55332 -0.9378,-0.55332 v 2.63691 2.63691 h -1.0142 z m 4.2757,-6.08792 1.0126,0.002 0.7507,-0.75073 0.7508,-0.75074 0.185,-1.23363 0.1849,-1.23365 -0.181,-1.20741 -0.1811,-1.20741 -0.7533,-0.84311 -0.7533,-0.84311 h -1.1668 -1.1668 l -0.9716,0.74107 -0.9716,0.74107 v 2.61737 2.61738 l 1.1245,0.67395 1.1245,0.67395 1.0125,0.002 z m -26.2802,2.10608 -0.6615,-0.0101 -1.0172,-0.36271 -1.0173,-0.3627 -0.6723,-0.61787 -0.6723,-0.61787 -0.5362,-1.19062 -0.5362,-1.19063 0.011,-1.85208 0.011,-1.85208 0.279,-0.69821 0.2791,-0.69822 0.8735,-0.99484 0.8735,-0.99485 0.8555,-0.35746 0.8555,-0.35746 h 1.0754 1.0753 l 0.8637,0.36089 0.8638,0.3609 0.7413,0.88096 0.7412,0.88096 0.2134,0.5613 0.2134,0.56129 0.188,1.50414 0.1879,1.50414 h -3.9992 -3.9993 v 0.40537 0.40538 l 0.369,0.88296 0.3689,0.88296 0.616,0.43146 0.616,0.43145 1.0656,-0.001 1.0656,-10e-4 0.8688,-0.5297 0.8687,-0.52969 0.1518,-0.39536 0.1517,-0.39536 0.3024,0.006 0.3024,0.006 0.6522,0.5012 0.6522,0.50119 -1.1822,1.18225 -1.1823,1.18226 -1.0574,0.29356 -1.0575,0.29357 -0.6614,-0.0101 z m -0.1323,-7.39524 h 2.7781 v -0.4222 -0.4222 l -0.4406,-0.74588 -0.4406,-0.74588 -0.6302,-0.28713 -0.6301,-0.28713 h -0.5421 -0.542 l -0.7642,0.4514 -0.7641,0.4514 -0.4012,0.84536 -0.4011,0.84536 v 0.15845 0.15845 z m -25.5323,7.14375 h -1.0583 v -5.82083 -5.82084 h 1.0583 1.0583 v 0.70247 0.70247 l 0.4728,-0.4278 0.4727,-0.42779 0.974,-0.40696 0.974,-0.40697 h 0.9345 0.9345 v 0.63982 0.63982 l -0.1606,0.41851 -0.1606,0.41852 h -0.9326 -0.9327 l -0.8637,0.53382 -0.8638,0.53383 -0.4242,0.64749 -0.4243,0.64749 v 3.71348 3.71347 z m -63.1031,-11.1125 h -0.9261 v -1.97229 -1.97228 l -1.7859,-0.0782 -1.7859,-0.0782 v -0.79375 -0.79375 l 1.7859,-0.0782 1.7859,-0.0782 v -1.97229 -1.97228 h 0.9261 0.926 v 1.97228 1.97229 l 1.786,0.0782 1.7859,0.0782 v 0.79375 0.79375 l -1.7859,0.0782 -1.786,0.0782 v 1.97228 1.97229 z m -10.3849,-4.45423 -0.463,0.1054 -0.5953,-0.0929 -0.5954,-0.0929 v -2.75972 -2.75973 h -2.6458 -2.6458 v -1.05833 -1.05833 h 2.6458 2.6458 v -2.74728 -2.74729 l 0.7109,-0.13588 0.7108,-0.13589 0.3475,0.13335 0.3475,0.13335 v 2.76976 2.76976 l 0.7276,-0.048 0.7276,-0.048 1.9182,0.028 1.9183,0.028 v 1.05833 1.05833 h -2.6459 -2.6458 v 2.74727 2.74727 z m 21.5957,0.005 -1.0518,0.1003 -0.1186,-0.11854 -0.1185,-0.11855 v -2.72444 -2.72445 l -2.5797,-0.0757 -2.5797,-0.0757 -0.082,-0.99218 -0.082,-0.99219 h 2.6528 2.6529 l 0.075,-2.84427 0.075,-2.84427 0.926,0.0907 0.9261,0.0907 0.1274,0.12492 0.1274,0.12492 0.031,2.16566 0.031,2.16566 0.04,0.46302 0.04,0.46301 h 2.5135 2.5135 v 1.05833 1.05833 h -2.5988 -2.5989 l 0.065,2.75227 0.065,2.75227 -1.0518,0.1003 z m 95.9029,-5.12882 -1.3654,0.0792 -0.1215,-0.21145 -0.1215,-0.21144 -0.011,-11.6635 -0.011,-11.6635 0.2009,-0.32505 0.2009,-0.32505 1.2973,0.0823 1.2973,0.0823 v 12.03854 12.03854 l -1.3654,0.0792 z m -67.0392,-2.11747 -1.2005,0.0783 -0.1886,-0.18859 -0.1885,-0.18859 v -4.05695 -4.05694 h -3.5719 -3.5719 v -1.38907 l 10e-5,-1.38906 3.5718,0.0192 3.5719,0.0191 v -3.78947 -3.78948 h 1.4552 1.4552 v 3.78747 3.78748 l 3.638,0.01 3.638,0.01 v 1.29596 1.29596 l -3.6313,0.0736 -3.6314,0.0736 -0.073,4.15977 -0.073,4.15979 -1.2004,0.0783 z m 87.2864,-0.11403 -1.6838,0.14517 -1.6503,-0.40301 -1.6503,-0.40302 -1.1737,-1.17363 -1.1736,-1.17364 -0.343,-0.99163 -0.343,-0.99164 0.01,-1.74447 0.01,-1.74447 0.4695,-1.22929 0.4695,-1.22929 1.0355,-0.88636 1.0355,-0.88636 1.1265,-0.34286 1.1265,-0.34286 0.9971,-0.005 0.9972,-0.005 1.1195,0.35179 1.1195,0.3518 1.1202,1.18531 1.1202,1.18531 0.1844,0.95099 0.1844,0.951 0.018,1.19062 0.018,1.19063 -4.4351,0.0254 -4.4351,0.0254 -0.1579,0.15797 -0.158,0.15797 0.492,1.00728 0.492,1.00728 0.9261,0.47733 0.926,0.47732 1.5875,-0.12 1.5875,-0.12 0.7686,-0.17148 0.7685,-0.17149 0.4922,-0.26339 0.4921,-0.2634 0.1151,0.34214 0.1152,0.34214 -0.053,1.16408 -0.053,1.16407 -0.9621,0.33299 -0.962,0.33299 -1.6838,0.14518 z m -1.8409,-8.2987 h 2.8857 l -0.1449,-0.59532 -0.1448,-0.59531 -0.3949,-0.45678 -0.395,-0.45678 -0.2109,0.13037 -0.2109,0.13036 -0.1662,-0.26889 -0.1662,-0.2689 h -0.5962 -0.5961 l -1.0999,0.53143 -1.1,0.53142 -0.2727,0.50952 -0.2726,0.50951 v 0.14968 0.14969 z m -59.6388,8.12004 -2.9104,0.068 -1.0095,-0.48537 -1.0095,-0.48538 -1.0234,-0.99927 -1.0233,-0.99927 -0.3176,-1.32384 -0.3176,-1.32385 0.1449,-1.91615 0.1449,-1.91615 0.3928,-0.75843 0.3927,-0.75843 0.9065,-0.82405 0.9064,-0.82405 1.0262,-0.33867 1.0262,-0.33867 1.3676,0.0107 1.3675,0.0107 0.5353,0.28652 0.5354,0.28651 0.335,-0.40366 0.335,-0.40367 1.3464,0.0785 1.3465,0.0785 v 6.21432 6.21432 l -0.7938,0.3914 -0.7937,0.39141 -2.9105,0.068 z m -0.1704,-2.69843 1.1626,-0.13955 0.2315,-0.14311 0.2315,-0.1431 v -3.25928 -3.25928 l -0.3865,-0.32076 -0.3864,-0.32077 -1.0611,-0.14231 -1.061,-0.14231 -0.8815,0.41833 -0.8816,0.41833 -0.5076,0.56095 -0.5077,0.56095 -0.084,1.7665 -0.084,1.76651 0.3422,0.66145 0.3422,0.66146 1.1847,0.59778 1.1846,0.59777 z m 22.7923,2.70676 -2.2489,0.0278 -1.1016,-0.19022 -1.1016,-0.19021 -0.4198,-0.34837 -0.4198,-0.34839 v -9.09572 -9.09573 h 1.4553 1.4552 v 3.29463 3.29464 l 1.1976,-0.36044 1.1977,-0.36045 1.382,0.19184 1.382,0.19184 1.0072,0.48308 1.0071,0.48307 0.6775,0.88828 0.6775,0.88827 0.3543,0.99272 0.3543,0.99272 0.01,1.58751 0.01,1.5875 -0.2676,0.96313 -0.2675,0.96313 -0.9878,1.10464 -0.9877,1.10464 -1.0584,0.46118 -1.0583,0.46117 -2.249,0.0278 z m 0.6393,-2.79353 1.1592,-0.0922 0.854,-0.71292 0.854,-0.71293 0.1311,-1.36437 0.131,-1.36436 -0.178,-0.94904 -0.178,-0.94903 -1.0845,-0.78562 -1.0846,-0.78562 h -0.7895 -0.7895 l -1.0229,0.30646 -1.0228,0.30647 v 3.39266 3.39266 l 0.7276,0.16047 0.7276,0.16048 0.203,0.0445 0.2031,0.0445 z m 60.7441,2.76175 -2.5136,0.0515 -0.7666,-0.12665 -0.7667,-0.12664 -0.9531,-0.60846 -0.9531,-0.60846 -0.57,-0.62697 -0.5699,-0.62696 -0.4223,-1.0245 -0.4222,-1.0245 v -1.88592 -1.88592 l 0.6394,-1.37329 0.6394,-1.3733 1.0912,-0.79046 1.0912,-0.79047 1.2434,-0.26341 1.2433,-0.26341 1.0584,0.22382 1.0583,0.22383 0.5953,0.18369 0.5953,0.18368 v -0.44156 -0.44156 l 1.3891,0.08 1.389,0.08 v 6.21415 6.21414 l -0.7937,0.38809 -0.7938,0.38809 -2.5135,0.0515 z m -0.2646,-2.71462 1.1906,-0.13981 0.052,-0.0494 0.052,-0.0494 0.043,-3.38007 0.044,-3.38007 -0.1375,-0.13754 -0.1376,-0.13754 -0.355,-0.0725 -0.3549,-0.0725 -0.4757,-0.20541 -0.4756,-0.20539 -1.0752,0.14421 -1.0753,0.14423 -0.7392,0.70825 -0.7393,0.70826 -0.2934,1.16504 -0.2933,1.16505 0.2943,1.16886 0.2943,1.16887 0.6183,0.58081 0.6182,0.5808 0.8772,0.21747 0.8772,0.21747 z m 20.962,2.71915 -2.0443,0.11273 -1.0253,-0.38298 -1.0253,-0.38297 -0.888,-0.86061 -0.8879,-0.8606 -0.2635,-0.81283 -0.2635,-0.81282 0.06,-4.36563 0.06,-4.36562 1.5213,-0.0793 1.5214,-0.0793 v 4.65544 4.65544 l 0.6494,0.64943 0.6494,0.64943 h 1.347 1.347 l 0.6494,-0.64943 0.6495,-0.64943 v -4.64224 -4.64223 h 1.616 1.616 l -0.095,4.96093 -0.095,4.96094 -0.6001,0.84124 -0.6,0.84125 -0.9276,0.57326 -0.9276,0.57327 z m -170.5839,-1.7512 h -1.1906 v -3.175 -3.175 h -2.9105 -2.9104 v -1.19063 -1.19062 h 2.9104 2.9105 v -3.175 -3.175 h 1.1906 1.1906 v 3.175 3.175 h 2.9104 2.9104 v 1.19062 1.19063 h -2.9104 -2.9104 v 3.175 3.175 z m 16.9333,-2.64584 h -0.926 v -1.98437 -1.98438 h -1.8521 -1.8521 v -0.92604 -0.92604 h 1.8521 1.8521 v -1.98438 -1.98437 h 0.926 0.9261 v 1.98437 1.98438 h 1.6914 1.6915 l 0.1425,0.37136 0.1425,0.37135 -0.145,0.55469 -0.1451,0.55468 h -1.6889 -1.6889 v 1.98438 1.98437 z m -34.0722,-0.31315 -0.7205,0.0837 v -2.00195 -2.00195 h -1.7198 -1.7198 v -0.66146 -0.66146 h 1.7198 1.7198 v -1.98437 -1.98438 h 0.6499 0.6498 l 0.078,1.91823 0.078,1.91823 1.8028,0.0786 1.8027,0.0786 -0.083,0.58284 -0.083,0.58284 -1.7198,0.13229 -1.7198,0.13229 -0.01,1.85209 -0.01,1.85208 -0.7205,0.0837 z m 6.0925,-8.20369 -0.9922,0.0821 v -2.92639 -2.92639 h -2.6458 -2.6458 v -0.92604 -0.92604 h 2.6369 2.6368 l 0.075,-2.84427 0.075,-2.84427 h 0.9261 0.926 l 0.075,2.84427 0.075,2.84427 h 2.6369 2.6369 v 0.92604 0.92604 h -2.6369 -2.6369 l -0.075,2.84427 -0.075,2.84428 z m 22.0927,-7.9e-4 -1.1244,0.0814 v -2.92563 -2.92563 h -2.6459 -2.6458 v -0.92604 -0.92604 h 2.6458 2.6459 v -2.91042 -2.91042 h 1.0275 1.0275 l 0.1834,1.71229 0.1833,1.71228 -0.1787,0.28926 -0.1788,0.28926 0.1705,0.90887 0.1705,0.90888 h 2.5015 2.5016 v 0.92604 0.92604 l -2.4474,0.0313 -2.4474,0.0313 -0.1497,-0.0151 -0.1496,-0.0151 0.017,2.82801 0.017,2.82801 -1.1245,0.0814 z m -11.0758,-8.15112 h -0.632 v -1.98437 -1.98438 h -1.6889 -1.6889 l -0.1344,-0.51384 -0.1344,-0.51385 0.1476,-0.14761 0.1476,-0.14761 h 1.6757 1.6757 v -1.98438 -1.98437 h 0.6615 0.6614 l 0.019,0.59531 0.019,0.59531 0.01,1.38906 0.01,1.38907 h 1.8241 1.824 v 0.66145 0.66146 h -1.83 -1.8299 l 0.1,1.12448 0.1,1.12448 -0.1515,0.8599 -0.1515,0.85989 h -0.632 z"
       id="path7614"
       inkscape:export-filename="..\Documents\Luciana web site\Luciana\assets\img\tableau_prep.svg"
       inkscape:export-xdpi="90"
       inkscape:export-ydpi="90"
       sodipodi:nodetypes="ccccccccccccccccccccccccccccccccccccccccccccccccccccccccccccccccccccccccccccccccccccccccccccccccccccccccccccccccccccccccccccccccccccccccccccccccccccccccccccccccccccccccccccccccccccccccccccccccccccccccccccccccccccccccccccccccccccccccccccccccccccccccccccccccccccccccccccccccccccccccccccccccccccccccccccccccccccccccccccccccccccccccccccccccccccccccccccccccccccccccccccccccccccccccccccccccccccccccccccccccccccccccccccccccccccccccccccccccccccccccccccccccccccccccccccccccccccccccccccccccccccccccccccccccccccccccccccccccccccccccccccccccccccccccccccccccccccccccccccccccccccccccccccccccccccccccccccccccccccccccccccccccccccccccccccccccccccccccccccccccccccccccccccccccccccccccccccccccccccccccccccccccccccccccccccccccccccccccccccccccccccccccccccccccccccccccccccccccccccccccccc" /></g></svg>
