<?xml version="1.0" standalone="no"?>
<!DOCTYPE svg PUBLIC "-//W3C//DTD SVG 20010904//EN"
 "http://www.w3.org/TR/2001/REC-SVG-20010904/DTD/svg10.dtd">
<svg version="1.0" xmlns="http://www.w3.org/2000/svg"
 width="200.000000pt" height="200.000000pt" viewBox="0 0 200.000000 200.000000"
 preserveAspectRatio="xMidYMid meet">
<metadata>
Created by potrace 1.14, written by Peter Selinger 2001-2017
</metadata>
<g transform="translate(0.000000,200.000000) scale(0.100000,-0.100000)"
fill="#000000" stroke="none">
<path d="M1458 1901 c-31 -10 -74 -29 -95 -41 -56 -34 -131 -117 -166 -185
-29 -57 -31 -67 -32 -175 0 -110 1 -118 33 -180 20 -40 60 -93 102 -137 l70
-72 -24 -63 c-31 -83 -113 -264 -133 -294 -13 -21 -23 -24 -77 -24 -33 -1 -80
-5 -104 -9 -59 -12 -69 -1 -180 184 -132 221 -131 220 -118 280 7 28 11 64 10
80 -1 17 -2 41 -3 55 -2 39 -50 106 -94 130 -54 31 -152 38 -199 16 -68 -33
-126 -109 -132 -174 -1 -15 3 -52 9 -82 l11 -55 -77 -191 c-103 -255 -109
-266 -158 -287 -61 -27 -96 -78 -96 -142 0 -158 194 -216 281 -85 25 38 26 45
20 119 -6 70 -3 87 20 152 43 122 116 293 132 312 18 21 110 24 133 5 19 -16
54 -73 164 -266 l86 -153 -32 -82 c-28 -73 -31 -90 -27 -157 8 -127 74 -226
188 -279 78 -37 191 -36 271 1 183 84 248 306 140 479 -35 56 -37 74 -17 121
8 18 21 49 29 68 56 135 133 292 146 299 9 4 36 9 61 10 220 11 398 198 398
417 0 187 -99 324 -293 404 -50 21 -182 21 -247 1z"/>
</g>
</svg>
