<?xml version="1.0" encoding="UTF-8" standalone="no"?>
<!-- Uploaded to: SVG Repo, www.svgrepo.com, Generator: SVG Repo Mixer Tools -->

<svg
   width="800px"
   height="800px"
   viewBox="0 -2.5 256 256"
   version="1.1"
   preserveAspectRatio="xMidYMid"
   id="svg9"
   sodipodi:docname="tableau.svg"
   inkscape:version="1.3.2 (091e20e, 2023-11-25, custom)"
   xmlns:inkscape="http://www.inkscape.org/namespaces/inkscape"
   xmlns:sodipodi="http://sodipodi.sourceforge.net/DTD/sodipodi-0.dtd"
   xmlns="http://www.w3.org/2000/svg"
   xmlns:svg="http://www.w3.org/2000/svg">
  <defs
     id="defs9" />
  <sodipodi:namedview
     id="namedview9"
     pagecolor="#505050"
     bordercolor="#eeeeee"
     borderopacity="1"
     inkscape:showpageshadow="0"
     inkscape:pageopacity="0"
     inkscape:pagecheckerboard="0"
     inkscape:deskcolor="#505050"
     inkscape:zoom="0.295"
     inkscape:cx="403.38983"
     inkscape:cy="394.91525"
     inkscape:window-width="1920"
     inkscape:window-height="974"
     inkscape:window-x="-11"
     inkscape:window-y="-11"
     inkscape:window-maximized="1"
     inkscape:current-layer="svg9" />
  <polygon
     fill="#7099A6"
     points="103.1089,23.233808 103.1089,30.804907 123.92942,30.804907 123.92942,53.991396 132.06835,53.991396 132.06835,30.804907 153.40938,30.804907 153.40938,23.233808 132.06835,23.233808 132.06835,0 123.92942,0 123.92942,11.593244 123.92942,23.233808 "
     id="polygon1"
     style="fill:#000000;fill-opacity:1" />
  <polygon
     fill="#EB912C"
     points="24.369473,58.013542 24.369473,68.613079 55.88417,68.613079 55.88417,102.91962 67.572053,102.91962 67.572053,68.613079 99.559944,68.613079 99.559944,58.013542 67.572053,58.013542 67.572053,24.227515 55.88417,24.227515 55.88417,41.120528 55.88417,58.013542 "
     id="polygon2"
     style="fill:#000000;fill-opacity:1" />
  <polygon
     fill="#59879B"
     points="156.43782,58.013542 156.43782,69.133592 187.95252,69.133592 187.95252,102.91962 200.1136,102.91962 200.1136,69.133592 231.62829,69.133592 231.62829,58.013542 200.1136,58.013542 200.1136,24.227515 187.95252,24.227515 187.95252,41.120528 187.95252,58.013542 "
     id="polygon3"
     style="fill:#000000;fill-opacity:1" />
  <polygon
     fill="#E8762C"
     points="85.837328,117.58862 85.837328,131.68979 120.90098,131.68979 120.90098,169.54529 135.09679,169.54529 135.09679,131.68979 170.16044,131.68979 170.16044,117.58862 135.09679,117.58862 135.09679,79.73313 120.90098,79.73313 120.90098,98.660876 120.90098,117.58862 "
     id="polygon4"
     style="fill:#000000;fill-opacity:1" />
  <polygon
     fill="#5B6591"
     points="202.66884,120.09655 202.66884,129.70238 224.00987,129.70238 224.00987,153.40938 234.65673,153.40938 234.65673,129.70238 255.99776,129.70238 255.99776,120.09655 234.65673,120.09655 234.65673,96.389547 224.00987,96.389547 224.00987,108.21939 224.00987,120.09655 "
     id="polygon5"
     style="fill:#000000;fill-opacity:1" />
  <polygon
     fill="#7099A6"
     points="0,120.61706 0,128.66135 20.820521,128.66135 20.820521,151.37465 28.959451,151.37465 28.959451,128.66135 50.300485,127.90424 50.300485,120.61706 28.959451,120.61706 28.959451,97.903766 20.820521,97.903766 20.820521,109.26041 20.820521,120.61706 "
     id="polygon6"
     style="fill:#000000;fill-opacity:1" />
  <polygon
     fill="#C72035"
     points="24.369473,179.62431 24.369473,190.74436 55.88417,190.74436 55.88417,224.53039 68.045247,224.53039 68.045247,190.74436 99.559944,190.74436 99.559944,179.62431 68.045247,179.62431 68.045247,145.83828 55.88417,145.83828 55.88417,162.7313 55.88417,179.62431 "
     id="polygon7"
     style="fill:#000000;fill-opacity:1" />
  <polygon
     fill="#1F447E"
     points="156.43782,179.62431 156.43782,190.22385 187.95252,190.22385 187.95252,224.53039 200.1136,224.53039 200.1136,190.22385 231.62829,190.22385 231.62829,179.62431 200.1136,179.62431 200.1136,145.83828 187.95252,145.83828 187.95252,162.7313 187.95252,179.62431 "
     id="polygon8"
     style="fill:#000000;fill-opacity:1" />
  <polygon
     fill="#5B6591"
     points="101.59468,217.4798 101.59468,227.08563 122.93571,227.08563 122.93571,250.79263 133.58257,250.79263 133.58257,227.08563 154.9236,227.08563 154.9236,217.4798 133.58257,217.4798 133.58257,193.7728 122.93571,193.7728 122.93571,205.64996 122.93571,217.4798 "
     id="polygon9"
     style="fill:#000000;fill-opacity:1" />
</svg>
